<svg width="562" height="562" viewBox="0 0 562 562" fill="none" xmlns="http://www.w3.org/2000/svg">
<circle cx="281" cy="281" r="280.439" fill="url(#paint0_linear_44_23047)" stroke="url(#paint1_linear_44_23047)" stroke-width="1.12208"/>
<path fill-rule="evenodd" clip-rule="evenodd" d="M281.426 13.4396C290.035 18.6903 297.888 25.1132 304.764 32.5278C311.898 40.277 315.907 50.4438 316 61.0289C316 88.0667 299.729 108.727 289.27 121.984C286.698 125.036 284.343 128.269 282.226 131.659C281.902 132.258 281.355 132.703 280.707 132.896C280.059 133.088 279.362 133.013 278.768 132.686C278.349 132.437 277.999 132.083 277.753 131.659C275.636 128.274 273.29 125.041 270.73 121.984C260.271 108.727 244 88.0667 244 61.0289C244.093 50.4438 248.102 40.277 255.236 32.5278C262.121 25.0993 269.989 18.6684 278.617 13.4178C279.036 13.1451 279.523 13 280.022 13C280.52 13 281.007 13.1451 281.426 13.4178V13.4396ZM300.874 35.9348C294.707 29.2467 287.67 23.4352 279.957 18.6594C272.239 23.429 265.202 29.2411 259.04 35.9348C252.73 42.7473 249.169 51.6982 249.056 61.0289C249.056 86.2759 264.658 106.063 274.663 118.774C276.694 121.351 278.509 123.644 279.957 125.675C281.405 123.644 283.22 121.307 285.251 118.774C295.256 106.063 310.857 86.2759 310.857 61.0289C310.756 51.704 307.211 42.754 300.917 35.9348H300.874Z" fill="white"/>
<path fill-rule="evenodd" clip-rule="evenodd" d="M283.562 17V64.8766C287.147 78.1963 311.911 87.1636 312 87.1855L311.292 89.0008C311.292 89.0008 290.666 81.5645 283.562 69.7539V87.4698C287.811 97.6619 304.896 100.724 304.94 100.746L304.564 102.649C304.564 102.649 289.914 100.024 283.562 91.4066V108.554C287.192 113.366 294.628 115.487 294.628 115.487L294.074 117.368C290.165 116.173 286.558 114.167 283.496 111.485V132H281.504V111.485C278.442 114.167 274.835 116.173 270.926 117.368L270.372 115.487C270.372 115.487 277.897 113.3 281.438 108.554V91.4066C275.086 100.024 260.48 102.649 260.436 102.649L260.06 100.746C260.06 100.746 277.189 97.6619 281.438 87.4698V69.7539C274.334 81.5645 253.775 88.9789 253.708 89.0008L253 87.1855C253 87.1855 277.853 78.1963 281.438 64.8766V17H283.562Z" fill="white"/>
<path fill-rule="evenodd" clip-rule="evenodd" d="M149.304 50.1332C159.487 50.3231 169.596 51.9231 179.343 54.8879C189.443 58.0142 198.014 64.8131 203.375 73.9506C216.898 97.4613 212.987 123.645 210.475 140.473C209.759 144.396 209.321 148.364 209.164 152.349C209.173 152.69 209.114 153.03 208.991 153.348C208.868 153.667 208.683 153.958 208.448 154.204C208.212 154.451 207.93 154.648 207.618 154.784C207.306 154.921 206.97 154.994 206.63 155C206.146 155.001 205.671 154.873 205.253 154.627C201.733 152.751 198.083 151.133 194.33 149.785C178.535 143.562 153.957 133.878 140.434 110.345V110.192C135.278 100.992 133.721 90.1981 136.064 79.9105C138.377 69.9553 142.053 60.3694 146.988 51.4259C147.216 50.9822 147.565 50.6126 147.994 50.3604C148.423 50.1082 148.915 49.9838 149.413 50.0017L149.304 50.1332ZM177.704 59.796C168.956 57.123 159.888 55.6489 150.745 55.4138C146.382 63.4749 143.127 72.0911 141.067 81.0279C138.981 90.0955 140.312 99.6165 144.803 107.76V107.891C157.431 129.802 180.981 139.114 196.099 145.14C199.18 146.345 201.911 147.441 204.205 148.47C204.445 145.973 204.882 143.102 205.363 139.859C207.788 123.733 211.545 98.6226 198.918 76.6895C194.187 68.5962 186.602 62.576 177.661 59.8179L177.704 59.796Z" fill="white"/>
<path fill-rule="evenodd" clip-rule="evenodd" d="M149.805 52L173.887 93.2775C183.66 102.989 209.547 98.5349 209.613 98.5132L209.921 100.425C209.921 100.425 188.393 104.14 176.33 97.4703L185.267 112.678C194.072 119.347 210.318 113.612 210.362 113.59L211 115.437C211 115.437 197.066 120.347 187.226 116.067L195.855 130.818C201.403 133.164 208.953 131.318 209.063 131.318L209.503 133.186C205.495 134.14 201.323 134.207 197.286 133.382L207.632 151.044L205.937 152L195.591 134.338C194.302 138.146 192.208 141.641 189.45 144.592L187.997 143.288C187.997 143.288 193.434 137.727 194.116 131.817L185.487 117.066C184.343 127.603 173.094 137.032 173.05 137.075L171.774 135.598C171.774 135.598 184.981 124.54 183.506 113.677L174.591 98.4697C174.415 112.113 160.437 128.602 160.393 128.667L158.874 127.429C158.874 127.429 175.78 107.486 172.082 94.255L148 52.9776L149.805 52Z" fill="white"/>
<path fill-rule="evenodd" clip-rule="evenodd" d="M51.5366 147.015C60.4288 142.082 69.9673 138.407 79.8772 136.096C90.2164 133.703 101.081 135.261 110.322 140.463C133.841 153.981 143.529 178.549 149.775 194.316C151.121 198.068 152.74 201.717 154.619 205.235C154.798 205.524 154.917 205.845 154.969 206.18C155.022 206.515 155.007 206.857 154.925 207.187C154.844 207.516 154.697 207.826 154.494 208.098C154.291 208.37 154.036 208.6 153.743 208.772C153.279 209.063 152.732 209.193 152.186 209.144C148.223 209.319 144.275 209.764 140.372 210.476C123.539 212.987 97.3463 216.896 73.8278 203.378H73.6743C64.5986 197.984 57.8575 189.423 54.7586 179.357C51.7929 169.614 50.1924 159.509 50.0024 149.329C49.98 148.807 50.1166 148.289 50.3943 147.845C50.6719 147.401 51.0777 147.051 51.5586 146.84L51.5366 147.015ZM80.8636 141.228C71.9238 143.286 63.3046 146.54 55.2408 150.902C55.4761 160.04 56.9507 169.105 59.6245 177.85C62.3272 186.734 68.249 194.3 76.2387 199.076H76.3703C98.2888 211.699 123.429 207.943 139.561 205.628C142.827 205.147 145.72 204.711 148.329 204.47C147.299 202.177 146.137 199.448 144.997 196.368C139.035 181.257 129.654 157.715 107.736 145.093C99.5738 140.516 89.9916 139.138 80.8636 141.228Z" fill="white"/>
<path fill-rule="evenodd" clip-rule="evenodd" d="M53.065 148L94.2517 171.407C107.488 174.916 127.353 158.57 127.418 158.57L128.657 160.046C128.657 160.046 112.096 173.675 98.4465 173.846L113.661 182.405C124.528 183.838 135.547 171.044 135.591 171.022L137.09 172.22C137.09 172.22 127.592 183.218 117.051 184.33L131.809 192.718C137.72 192.054 143.263 186.791 143.284 186.77L144.589 188.182C141.636 190.863 138.14 192.898 134.33 194.151L152 204.207L151.044 205.855L133.374 195.799C134.18 199.679 134.136 203.683 133.243 207.545L131.352 207.117C131.352 207.117 133.2 199.757 130.852 194.28L116.095 185.892C120.442 195.456 115.486 208.957 115.464 209L113.617 208.379C113.617 208.379 119.377 192.525 112.704 183.967L97.4902 175.301C104.163 187.026 100.468 207.887 100.446 207.952L98.5334 207.652C98.5334 207.652 103.011 182.448 93.2954 172.926L52 149.519L53.065 148Z" fill="white"/>
<path fill-rule="evenodd" clip-rule="evenodd" d="M13.44 278.574C18.6954 269.965 25.1242 262.112 32.5455 255.237C40.274 248.127 50.4064 244.12 60.9633 244C88.0258 244 108.705 260.271 121.974 270.73C125.029 273.302 128.265 275.657 131.658 277.774C132.258 278.098 132.703 278.645 132.895 279.293C133.088 279.941 133.013 280.638 132.685 281.232C132.436 281.651 132.083 282.001 131.658 282.247C128.269 284.364 125.034 286.71 121.974 289.27C108.705 299.729 88.0258 316 60.9633 316C50.4064 315.88 40.274 311.873 32.5455 304.763C25.1103 297.878 18.6736 290.011 13.4181 281.383C13.1452 280.964 13 280.477 13 279.978C13 279.48 13.1452 278.993 13.4181 278.574H13.44ZM35.9556 259.126C29.2615 265.293 23.4447 272.33 18.6645 280.043C23.4385 287.761 29.2559 294.798 35.9556 300.96C42.7744 307.27 51.7334 310.831 61.0726 310.944C86.3426 310.944 106.148 295.342 118.87 285.337C121.45 283.306 123.745 281.491 125.778 280.043C123.745 278.595 121.406 276.78 118.87 274.749C106.148 264.744 86.3426 249.143 61.0726 249.143C51.7393 249.244 42.781 252.789 35.9556 259.083V259.126Z" fill="white"/>
<path fill-rule="evenodd" clip-rule="evenodd" d="M17 281.438H64.8766C78.1963 277.853 87.1636 253.089 87.1854 253L89.0008 253.708C89.0008 253.708 81.5645 274.334 69.7539 281.438H87.4698C97.6619 277.189 100.724 260.104 100.746 260.06L102.649 260.436C102.649 260.436 100.024 275.086 91.4066 281.438H108.554C113.366 277.808 115.487 270.372 115.487 270.372L117.368 270.926C116.173 274.835 114.167 278.441 111.485 281.504H132V283.496H111.485C114.167 286.559 116.173 290.165 117.368 294.074L115.487 294.628C115.487 294.628 113.3 287.103 108.554 283.562H91.4066C100.024 289.914 102.649 304.52 102.649 304.564L100.746 304.94C100.746 304.94 97.6619 287.811 87.4698 283.562H69.7539C81.5645 290.666 88.9789 311.225 89.0008 311.292L87.1854 312C87.1854 312 78.1963 287.147 64.8766 283.562H17V281.438Z" fill="white"/>
<path fill-rule="evenodd" clip-rule="evenodd" d="M50.1332 414.587C50.3331 404.44 51.933 394.369 54.8878 384.657C58.0141 374.557 64.8131 365.986 73.9506 360.625C97.4613 347.102 123.645 351.013 140.473 353.525C144.396 354.241 148.364 354.679 152.349 354.836C152.69 354.827 153.03 354.886 153.348 355.009C153.667 355.132 153.958 355.317 154.204 355.552C154.451 355.788 154.648 356.07 154.784 356.382C154.921 356.694 154.994 357.03 155 357.37C155.001 357.854 154.873 358.329 154.628 358.747C152.752 362.267 151.133 365.917 149.785 369.67C143.562 385.465 133.878 410.043 110.345 423.566H110.192C100.992 428.722 90.1981 430.279 79.9104 427.936C69.9553 425.623 60.3694 421.947 51.4259 417.012C50.9822 416.784 50.6126 416.435 50.3604 416.006C50.1082 415.577 49.9838 415.085 50.0017 414.587H50.1332ZM59.796 386.186C57.1231 394.935 55.649 404.003 55.4138 413.145C63.4749 417.509 72.0911 420.764 81.0279 422.823C90.0955 424.91 99.6165 423.579 107.76 419.088H107.891C129.802 406.46 139.114 382.909 145.14 367.769C146.345 364.711 147.441 361.98 148.471 359.686C145.973 359.446 143.102 359.009 139.859 358.528C123.733 356.103 98.6226 352.346 76.6895 365.082C68.6092 369.783 62.5836 377.326 59.796 386.23V386.186Z" fill="white"/>
<path fill-rule="evenodd" clip-rule="evenodd" d="M143.306 376.043C143.306 376.043 137.742 370.597 131.83 369.913L117.073 378.557C127.614 379.704 137.047 390.972 137.09 391.016L135.612 392.295C135.612 392.295 124.549 379.064 113.682 380.542L98.4682 389.362C112.117 389.539 128.614 403.541 128.679 403.585L127.44 405.107C127.44 405.107 107.488 388.172 94.2517 391.876L52.9563 416L52 414.302L93.2954 390.178C103.011 380.387 98.5551 354.455 98.5334 354.389L100.446 354.081C100.446 354.081 104.163 375.646 97.4902 387.73L112.704 378.778C119.377 369.957 113.639 353.684 113.617 353.64L115.464 353C115.464 353 120.376 366.98 116.073 376.815L130.852 368.171C133.2 362.614 131.352 355.051 131.352 354.941L133.222 354.5C134.142 358.475 134.194 362.607 133.374 366.606L151.044 356.242L152 357.939L134.33 368.303C138.14 369.595 141.636 371.692 144.589 374.456L143.306 376.043Z" fill="white"/>
<path fill-rule="evenodd" clip-rule="evenodd" d="M147.015 510.463C142.082 501.571 138.407 492.033 136.096 482.123C133.703 471.784 135.261 460.919 140.463 451.678C153.981 428.159 178.549 418.471 194.316 412.225C198.066 410.875 201.715 409.256 205.235 407.381C205.524 407.202 205.845 407.083 206.18 407.031C206.515 406.978 206.857 406.993 207.187 407.075C207.516 407.156 207.826 407.303 208.098 407.506C208.37 407.709 208.6 407.964 208.772 408.257C209.063 408.721 209.193 409.268 209.144 409.814C209.319 413.778 209.764 417.725 210.476 421.628C212.987 438.461 216.896 464.654 203.378 488.172V488.326C197.984 497.401 189.423 504.142 179.357 507.241C169.614 510.207 159.509 511.808 149.329 511.998C148.807 512.02 148.289 511.883 147.845 511.606C147.401 511.328 147.051 510.922 146.84 510.441L147.015 510.463ZM141.228 481.136C143.262 490.057 146.487 498.661 150.814 506.715C159.953 506.48 169.018 505.005 177.762 502.332C186.647 499.629 194.213 493.707 198.989 485.717V485.586C211.611 463.667 207.855 438.527 205.431 422.395C204.951 419.129 204.514 416.236 204.274 413.627C201.981 414.658 199.251 415.819 196.172 416.959C181.06 422.921 157.519 432.302 144.896 454.22C140.346 462.409 139.006 472.008 141.14 481.136H141.228Z" fill="white"/>
<path fill-rule="evenodd" clip-rule="evenodd" d="M148 509.043L172.124 467.811C175.74 454.582 158.893 434.674 158.893 434.608L160.415 433.368C160.415 433.368 174.461 449.948 174.638 463.612L183.568 448.381C185.046 437.502 171.859 426.471 171.837 426.427L173.072 424.926C173.072 424.926 184.406 434.434 185.553 444.987L194.197 430.213C193.491 424.273 188.089 418.747 188.067 418.725L189.522 417.42C192.286 420.375 194.383 423.875 195.674 427.689L206.039 410L207.736 410.957L197.372 428.647C201.371 427.839 205.499 427.884 209.478 428.777L209.037 430.67C209.037 430.67 201.452 428.821 195.807 431.171L187.185 445.944C197.042 441.593 210.956 446.554 211 446.575L210.36 448.425C210.36 448.425 194.021 442.659 185.222 449.339L176.27 464.569C188.354 457.889 209.853 461.588 209.919 461.61L209.611 463.525C209.611 463.525 183.613 459.043 173.822 468.768L149.698 510L148 509.043Z" fill="white"/>
<path fill-rule="evenodd" clip-rule="evenodd" d="M278.574 548.56C269.965 543.31 262.112 536.887 255.236 529.472C248.102 521.723 244.093 511.556 244 500.971C244 473.933 260.271 453.273 270.73 440.016C273.302 436.964 275.657 433.731 277.774 430.341C278.098 429.742 278.645 429.297 279.293 429.104C279.941 428.912 280.638 428.987 281.232 429.314C281.651 429.563 282.001 429.917 282.247 430.341C284.364 433.726 286.71 436.959 289.27 440.016C299.729 453.273 316 473.933 316 500.971C315.907 511.556 311.898 521.723 304.764 529.472C297.879 536.901 290.011 543.332 281.383 548.582C280.964 548.855 280.477 549 279.978 549C279.48 549 278.993 548.855 278.574 548.582V548.56ZM259.126 526.065C265.293 532.753 272.33 538.565 280.043 543.341C287.757 538.565 294.793 532.753 300.96 526.065C307.27 519.253 310.831 510.302 310.944 500.971C310.944 475.724 295.342 455.937 285.337 443.226C283.306 440.649 281.491 438.356 280.043 436.325C278.595 438.356 276.78 440.693 274.749 443.226C264.744 455.937 249.143 475.724 249.143 500.971C249.244 510.296 252.789 519.246 259.083 526.065H259.126Z" fill="white"/>
<path fill-rule="evenodd" clip-rule="evenodd" d="M281.438 546V498.123C277.853 484.804 253.089 475.836 253 475.815L253.708 473.999C253.708 473.999 274.334 481.436 281.438 493.246V475.53C277.189 465.338 260.104 462.276 260.06 462.254L260.436 460.351C260.436 460.351 275.086 462.976 281.438 471.593V454.446C277.808 449.634 270.372 447.513 270.372 447.513L270.926 445.632C274.835 446.827 278.442 448.833 281.504 451.515V431H283.496V451.515C286.558 448.833 290.165 446.827 294.074 445.632L294.628 447.513C294.628 447.513 287.103 449.7 283.562 454.446V471.593C289.914 462.976 304.52 460.351 304.564 460.351L304.94 462.254C304.94 462.254 287.811 465.338 283.562 475.53V493.246C290.666 481.436 311.225 474.021 311.292 473.999L312 475.815C312 475.815 287.147 484.804 283.562 498.123V546H281.438Z" fill="white"/>
<path fill-rule="evenodd" clip-rule="evenodd" d="M414.696 514.867C404.513 514.677 394.404 513.077 384.657 510.112C374.557 506.986 365.986 500.187 360.625 491.049C347.102 467.539 351.013 441.355 353.525 424.527C354.241 420.604 354.679 416.636 354.836 412.651C354.827 412.31 354.886 411.97 355.009 411.652C355.132 411.333 355.317 411.042 355.552 410.796C355.788 410.549 356.07 410.352 356.382 410.216C356.694 410.079 357.03 410.006 357.37 410C357.854 409.999 358.329 410.127 358.747 410.373C362.267 412.249 365.917 413.867 369.67 415.215C385.465 421.438 410.043 431.122 423.566 454.655V454.808C428.722 464.008 430.279 474.802 427.936 485.09C425.623 495.045 421.947 504.631 417.012 513.574C416.784 514.018 416.435 514.387 416.006 514.64C415.577 514.892 415.085 515.016 414.587 514.998L414.696 514.867ZM386.296 505.204C395.044 507.877 404.112 509.351 413.255 509.586C417.618 501.525 420.873 492.909 422.933 483.972C425.021 474.902 423.682 465.378 419.175 457.24V457.109C406.548 435.198 382.997 425.886 367.857 419.86C364.798 418.655 362.067 417.559 359.773 416.53C359.533 419.027 359.096 421.898 358.616 425.119C356.191 441.245 352.433 466.356 365.06 488.289C369.793 496.394 377.387 502.423 386.339 505.182L386.296 505.204Z" fill="white"/>
<path fill-rule="evenodd" clip-rule="evenodd" d="M414.302 510L390.178 468.769C380.387 458.956 354.389 463.503 354.389 463.525L354.08 461.61C354.08 461.61 375.646 457.889 387.73 464.569L378.778 449.339C369.957 442.659 353.684 448.403 353.64 448.425L353 446.575C353 446.575 366.958 441.658 376.815 445.944L368.171 431.171C362.614 428.821 355.051 430.67 354.941 430.67L354.499 428.799C358.475 427.877 362.607 427.825 366.606 428.647L356.242 410.957L357.939 410L368.303 427.689C369.595 423.875 371.692 420.375 374.456 417.42L375.911 418.725C375.911 418.725 370.465 424.295 369.781 430.213L378.425 444.987C379.572 434.434 390.84 424.991 390.884 424.948L392.163 426.427C392.163 426.427 378.932 437.502 380.409 448.381L389.34 463.612C389.517 449.948 403.519 433.433 403.563 433.368L405.085 434.608C405.085 434.608 388.149 454.582 391.854 467.833L416 508.999L414.302 510Z" fill="white"/>
<path fill-rule="evenodd" clip-rule="evenodd" d="M416.985 51.5366C421.918 60.4288 425.593 69.9674 427.904 79.8773C430.297 90.2165 428.739 101.081 423.537 110.322C410.019 133.841 385.451 143.529 369.684 149.775C365.932 151.121 362.283 152.74 358.765 154.619C358.477 154.798 358.155 154.917 357.82 154.969C357.485 155.022 357.143 155.007 356.813 154.925C356.484 154.844 356.174 154.697 355.902 154.494C355.63 154.291 355.4 154.036 355.228 153.743C354.937 153.279 354.807 152.732 354.856 152.186C354.681 148.222 354.236 144.275 353.524 140.372C351.013 123.539 347.104 97.3463 360.622 73.8277V73.6744C366.016 64.5987 374.577 57.8575 384.643 54.7587C394.386 51.7929 404.491 50.1924 414.671 50.0024C415.193 49.98 415.711 50.1166 416.155 50.3943C416.599 50.672 416.949 51.0778 417.16 51.5586L416.985 51.5366ZM422.772 80.8636C420.71 71.9389 417.456 63.3348 413.098 55.2847C403.96 55.52 394.895 56.9946 386.15 59.6684C377.266 62.3711 369.7 68.2928 364.924 76.2826V76.4142C352.301 98.3327 356.057 123.473 358.481 139.605C358.962 142.871 359.399 145.764 359.639 148.373C361.823 147.342 364.662 146.181 367.741 145.041C382.853 139.079 406.394 129.698 419.016 107.78C423.567 99.5911 424.907 89.9919 422.772 80.8636Z" fill="white"/>
<path fill-rule="evenodd" clip-rule="evenodd" d="M416 53.065L391.859 94.23C388.24 107.444 405.099 127.332 405.099 127.397L403.577 128.636C403.577 128.636 389.52 112.074 389.344 98.4247L380.407 113.639C378.928 124.506 392.124 135.525 392.146 135.569L390.91 137.068C390.91 137.068 379.568 127.571 378.421 117.029L369.793 131.809C370.499 137.721 375.905 143.263 375.927 143.285L374.471 144.589C371.705 141.636 369.607 138.14 368.314 134.33L357.943 152L356.244 151.044L366.615 133.374C362.613 134.18 358.483 134.136 354.501 133.243L354.942 131.352C354.942 131.352 362.533 133.2 368.182 130.852L376.832 116.095C366.968 120.442 353.044 115.486 353 115.464L353.64 113.617C353.64 113.617 369.991 119.377 378.796 112.704L387.755 97.4901C375.662 104.163 354.147 100.468 354.081 100.446L354.39 98.5334C354.39 98.5334 380.407 103.011 390.204 93.2954L414.345 52L416 53.065Z" fill="white"/>
<path fill-rule="evenodd" clip-rule="evenodd" d="M149.282 223.348C149.4 223.078 149.57 222.834 149.783 222.63C149.996 222.426 150.248 222.265 150.524 222.157C150.8 222.049 151.094 221.996 151.391 222C151.687 222.005 151.98 222.068 152.252 222.184C152.524 222.301 152.771 222.47 152.977 222.681C153.183 222.892 153.346 223.141 153.455 223.414C153.564 223.687 153.618 223.979 153.613 224.273C153.608 224.567 153.545 224.857 153.427 225.126C145.516 243.134 141.462 262.571 141.523 282.209C141.588 301.732 145.771 321.025 153.804 338.853C154.048 339.395 154.065 340.01 153.851 340.564C153.637 341.117 153.209 341.564 152.662 341.806C152.116 342.048 151.494 342.064 150.935 341.852C150.376 341.64 149.925 341.217 149.681 340.675C141.385 322.275 137.066 302.36 137.001 282.209C136.93 261.958 141.112 241.913 149.282 223.348Z" fill="white"/>
<path fill-rule="evenodd" clip-rule="evenodd" d="M315.546 406.954C315.392 406.998 315.232 407.01 315.073 406.992C314.915 406.973 314.762 406.923 314.622 406.845C314.483 406.766 314.36 406.661 314.262 406.535C314.163 406.409 314.089 406.265 314.046 406.11C314.002 405.956 313.99 405.794 314.008 405.635C314.027 405.475 314.077 405.321 314.154 405.181C314.232 405.041 314.337 404.917 314.462 404.818C314.587 404.718 314.731 404.644 314.884 404.601C336.882 398.528 356.899 386.72 372.912 370.37C373.024 370.255 373.157 370.163 373.303 370.099C373.45 370.036 373.608 370.002 373.768 370C373.928 369.998 374.086 370.028 374.235 370.087C374.383 370.147 374.518 370.235 374.633 370.348C374.747 370.46 374.838 370.594 374.901 370.741C374.964 370.889 374.998 371.048 375 371.209C375.002 371.37 374.973 371.529 374.913 371.679C374.854 371.828 374.766 371.964 374.655 372.079C358.335 388.725 337.949 400.753 315.546 406.954Z" fill="white"/>
<path fill-rule="evenodd" clip-rule="evenodd" d="M407.795 315.079C407.76 315.235 407.694 315.382 407.601 315.512C407.508 315.641 407.39 315.75 407.254 315.832C407.119 315.914 406.968 315.968 406.812 315.989C406.655 316.011 406.496 316 406.344 315.957C406.04 315.875 405.78 315.674 405.622 315.398C405.464 315.123 405.42 314.795 405.499 314.487C408.309 303.529 409.693 292.245 409.615 280.924C409.553 269.639 408.016 258.412 405.044 247.537C405.002 247.382 404.99 247.221 405.009 247.062C405.029 246.903 405.079 246.75 405.158 246.611C405.237 246.472 405.342 246.351 405.467 246.253C405.593 246.156 405.736 246.085 405.889 246.044C406.04 246.001 406.197 245.989 406.353 246.01C406.508 246.03 406.658 246.081 406.793 246.161C406.929 246.241 407.047 246.347 407.141 246.474C407.235 246.601 407.303 246.746 407.34 246.9C413.395 269.192 413.552 292.706 407.795 315.079Z" fill="white"/>
<path fill-rule="evenodd" clip-rule="evenodd" d="M372.635 187.963C372.749 188.072 372.84 188.202 372.902 188.345C372.965 188.488 372.998 188.642 373 188.798C373.002 188.954 372.973 189.108 372.914 189.253C372.855 189.398 372.768 189.53 372.657 189.642C372.547 189.753 372.415 189.842 372.269 189.904C372.123 189.965 371.967 189.998 371.808 190C371.65 190.002 371.492 189.973 371.345 189.915C371.198 189.858 371.064 189.772 370.95 189.663C362.909 181.867 353.866 175.139 344.05 169.65C334.265 164.217 323.792 160.078 312.904 157.341C312.593 157.261 312.328 157.063 312.166 156.791C312.004 156.519 311.958 156.194 312.039 155.889C312.121 155.583 312.322 155.322 312.599 155.163C312.876 155.004 313.206 154.959 313.517 155.039C324.606 157.875 335.268 162.129 345.232 167.692C355.222 173.252 364.434 180.066 372.635 187.963Z" fill="white"/>
<path fill-rule="evenodd" clip-rule="evenodd" d="M246.454 155.046C246.764 154.958 247.096 154.997 247.378 155.155C247.659 155.313 247.866 155.578 247.954 155.889C248.042 156.201 248.003 156.536 247.846 156.819C247.688 157.102 247.426 157.31 247.116 157.399C225.107 163.465 205.084 175.279 189.077 191.64C188.964 191.754 188.83 191.845 188.682 191.906C188.535 191.968 188.376 192 188.216 192C188.056 192 187.898 191.968 187.75 191.906C187.603 191.845 187.469 191.754 187.356 191.64C187.243 191.529 187.154 191.396 187.093 191.249C187.031 191.102 187 190.945 187 190.786C187 190.627 187.031 190.469 187.093 190.323C187.154 190.176 187.243 190.043 187.356 189.931C195.46 181.642 204.621 174.471 214.6 168.605C224.583 162.703 235.292 158.145 246.454 155.046Z" fill="white"/>
<path fill-rule="evenodd" clip-rule="evenodd" d="M154.258 247.033C154.282 246.866 154.341 246.706 154.43 246.563C154.519 246.42 154.637 246.297 154.776 246.203C154.915 246.109 155.073 246.046 155.238 246.017C155.403 245.989 155.572 245.996 155.734 246.037C155.896 246.079 156.048 246.155 156.179 246.26C156.31 246.364 156.418 246.496 156.496 246.646C156.574 246.796 156.619 246.96 156.63 247.129C156.641 247.298 156.616 247.467 156.558 247.625C153.746 258.58 152.353 269.858 152.414 281.175C152.481 292.446 154.013 303.659 156.97 314.527C157.038 314.83 156.988 315.148 156.83 315.414C156.672 315.681 156.418 315.875 156.121 315.957C155.825 316.039 155.508 316.002 155.238 315.854C154.968 315.706 154.764 315.459 154.67 315.163C148.602 292.887 148.445 269.39 154.215 247.033H154.258Z" fill="white"/>
<path fill-rule="evenodd" clip-rule="evenodd" d="M189.433 375.081C189.305 374.977 189.201 374.848 189.126 374.702C189.052 374.556 189.01 374.397 189.001 374.234C188.993 374.071 189.02 373.909 189.079 373.757C189.138 373.604 189.229 373.466 189.346 373.35C189.463 373.234 189.603 373.143 189.758 373.083C189.912 373.023 190.078 372.995 190.244 373.001C190.41 373.007 190.573 373.046 190.723 373.117C190.873 373.188 191.006 373.289 191.114 373.412C207.217 388.975 227.217 400.108 249.105 405.694C249.258 405.732 249.402 405.799 249.528 405.891C249.655 405.984 249.761 406.101 249.84 406.234C249.919 406.368 249.971 406.516 249.991 406.669C250.01 406.823 249.999 406.979 249.956 407.128C249.874 407.428 249.674 407.684 249.4 407.84C249.126 407.997 248.8 408.04 248.493 407.962C226.234 402.293 205.898 390.965 189.542 375.124L189.433 375.081Z" fill="white"/>
<path fill-rule="evenodd" clip-rule="evenodd" d="M281.041 13.0003C343.048 13.0097 403.134 34.5208 451.059 73.868C498.984 113.215 531.782 167.963 543.863 228.783C555.945 289.603 546.563 352.73 517.316 407.407C488.069 462.084 440.766 504.928 383.47 528.636C326.174 552.345 262.429 555.452 203.098 537.428C143.768 519.404 92.5235 481.363 58.0976 429.79C23.6718 378.216 8.19487 316.301 14.3045 254.594C20.4141 192.888 47.732 135.21 91.6031 91.3883C116.461 66.491 145.993 46.7494 178.502 33.2973C211.012 19.8452 245.858 12.9475 281.041 13.0003ZM465.709 96.3529C422.985 53.6287 366.768 27.0404 306.638 21.1184C246.507 15.1963 186.184 30.307 135.945 63.8755C85.7071 97.4441 48.6624 147.394 31.1233 205.213C13.5842 263.033 16.636 325.146 39.7585 380.968C62.8811 436.79 104.644 482.867 157.931 511.349C211.218 539.831 272.732 548.956 331.992 537.168C391.253 525.38 444.592 493.409 482.923 446.702C521.253 399.996 542.203 341.443 542.203 281.022C542.25 246.719 535.517 212.744 522.389 181.052C509.262 149.36 489.999 120.575 465.709 96.3529Z" fill="white"/>
<path fill-rule="evenodd" clip-rule="evenodd" d="M423.776 79.1493C423.584 79.0242 423.419 78.8612 423.291 78.6701C423.163 78.479 423.074 78.2638 423.031 78.0373C422.987 77.8109 422.99 77.5778 423.038 77.3523C423.086 77.1268 423.178 76.9134 423.31 76.7249C423.442 76.5364 423.61 76.3768 423.804 76.2555C423.999 76.1343 424.216 76.0539 424.441 76.0193C424.667 75.9848 424.898 75.9966 425.119 76.0543C425.34 76.1119 425.548 76.214 425.729 76.3546C448.101 92.3002 467.687 111.892 483.685 134.328C483.814 134.508 483.906 134.712 483.956 134.929C484.006 135.145 484.014 135.37 483.978 135.589C483.942 135.808 483.863 136.019 483.747 136.207C483.63 136.396 483.478 136.56 483.299 136.689C482.932 136.947 482.481 137.05 482.04 136.977C481.599 136.904 481.204 136.661 480.938 136.299C465.172 114.175 445.86 94.8605 423.797 79.1493H423.776Z" fill="white"/>
<path fill-rule="evenodd" clip-rule="evenodd" d="M503.152 178.432C502.97 178.021 502.951 177.55 503.099 177.124C503.248 176.698 503.552 176.351 503.946 176.159C504.339 175.968 504.788 175.948 505.196 176.104C505.603 176.26 505.934 176.578 506.117 176.99C517.284 202.3 524.339 229.383 526.992 257.124C527.013 257.348 526.991 257.573 526.928 257.788C526.866 258.004 526.763 258.204 526.626 258.377C526.49 258.551 526.322 258.694 526.132 258.8C525.942 258.905 525.735 258.971 525.521 258.992C525.307 259.014 525.091 258.991 524.886 258.925C524.68 258.859 524.489 258.752 524.324 258.609C524.158 258.466 524.021 258.29 523.92 258.091C523.819 257.893 523.756 257.675 523.736 257.451C521.098 230.101 514.142 203.399 503.152 178.432Z" fill="white"/>
<path fill-rule="evenodd" clip-rule="evenodd" d="M525.654 302.552C525.694 302.102 525.908 301.686 526.249 301.396C526.591 301.106 527.031 300.966 527.474 301.007C527.917 301.047 528.325 301.265 528.61 301.612C528.895 301.958 529.033 302.406 528.993 302.856C526.524 330.497 519.529 357.523 508.297 382.82C508.222 383.049 508.101 383.259 507.941 383.438C507.782 383.617 507.587 383.759 507.369 383.856C507.152 383.952 506.917 384.002 506.679 384C506.442 383.998 506.207 383.946 505.991 383.846C505.775 383.746 505.582 383.601 505.425 383.42C505.267 383.24 505.149 383.027 505.078 382.797C505.007 382.567 504.984 382.324 505.011 382.084C505.038 381.844 505.115 381.613 505.236 381.405C516.299 356.455 523.199 329.806 525.654 302.552Z" fill="white"/>
<path fill-rule="evenodd" clip-rule="evenodd" d="M480.928 423.663C481.197 423.316 481.592 423.085 482.029 423.019C482.467 422.953 482.913 423.058 483.274 423.311C483.636 423.563 483.884 423.945 483.969 424.375C484.053 424.806 483.966 425.252 483.726 425.62C467.759 448.034 448.141 467.656 425.676 483.685C425.495 483.813 425.291 483.906 425.074 483.956C424.857 484.006 424.632 484.014 424.413 483.978C424.193 483.942 423.983 483.863 423.794 483.746C423.605 483.63 423.441 483.477 423.312 483.298C423.053 482.93 422.95 482.478 423.023 482.036C423.096 481.595 423.339 481.198 423.702 480.932C445.857 465.13 465.197 445.775 480.928 423.663Z" fill="white"/>
<path fill-rule="evenodd" clip-rule="evenodd" d="M383.568 503.152C383.979 502.97 384.45 502.951 384.876 503.099C385.302 503.248 385.649 503.552 385.841 503.946C386.032 504.339 386.052 504.788 385.896 505.195C385.74 505.603 385.422 505.934 385.01 506.117C359.7 517.284 332.617 524.339 304.876 526.992C304.652 527.013 304.427 526.991 304.211 526.928C303.996 526.866 303.797 526.763 303.623 526.626C303.45 526.49 303.306 526.322 303.2 526.132C303.095 525.942 303.029 525.735 303.008 525.521C302.986 525.307 303.009 525.091 303.075 524.886C303.141 524.68 303.248 524.489 303.391 524.324C303.534 524.158 303.71 524.021 303.909 523.92C304.107 523.819 304.325 523.756 304.548 523.736C331.899 521.098 358.601 514.142 383.568 503.152Z" fill="white"/>
<path fill-rule="evenodd" clip-rule="evenodd" d="M260.442 525.633C260.666 525.653 260.883 525.716 261.083 525.819C261.282 525.922 261.458 526.062 261.602 526.232C261.746 526.402 261.855 526.598 261.922 526.81C261.989 527.021 262.013 527.243 261.993 527.464C261.973 527.685 261.909 527.899 261.805 528.095C261.701 528.292 261.558 528.466 261.386 528.608C261.213 528.75 261.014 528.857 260.8 528.923C260.585 528.989 260.36 529.013 260.136 528.993C232.383 526.508 205.246 519.469 179.847 508.166C179.48 507.952 179.207 507.612 179.08 507.212C178.952 506.812 178.979 506.379 179.155 505.997C179.331 505.616 179.644 505.311 180.034 505.143C180.423 504.975 180.863 504.954 181.267 505.086C206.319 516.219 233.077 523.163 260.442 525.633Z" fill="white"/>
<path fill-rule="evenodd" clip-rule="evenodd" d="M138.336 480.928C138.684 481.197 138.915 481.592 138.981 482.029C139.047 482.467 138.942 482.913 138.689 483.274C138.436 483.636 138.055 483.884 137.624 483.969C137.193 484.053 136.747 483.966 136.379 483.726C125.194 475.748 114.681 466.853 104.948 457.131C95.2177 447.412 86.3091 436.89 78.3155 425.676C78.1866 425.495 78.0944 425.291 78.0441 425.074C77.9938 424.857 77.9865 424.632 78.0224 424.413C78.0584 424.193 78.137 423.983 78.2537 423.794C78.3705 423.605 78.5231 423.441 78.7027 423.311C79.07 423.053 79.5227 422.95 79.9645 423.023C80.4063 423.096 80.8025 423.339 81.0691 423.702C96.8703 445.855 116.225 465.196 138.336 480.928Z" fill="white"/>
<path fill-rule="evenodd" clip-rule="evenodd" d="M56.9159 383.9C57.0012 384.281 56.9585 384.682 56.7952 385.034C56.6318 385.387 56.3576 385.67 56.0183 385.837C55.6791 386.004 55.2953 386.044 54.931 385.951C54.5667 385.858 54.244 385.637 54.0167 385.326C42.7782 359.918 35.6777 332.731 33.0076 304.883C32.9869 304.659 33.0088 304.432 33.072 304.216C33.1352 304 33.2386 303.8 33.3761 303.625C33.5136 303.451 33.6827 303.307 33.8736 303.201C34.0645 303.095 34.2735 303.029 34.4887 303.008C34.7039 302.986 34.9211 303.009 35.1278 303.075C35.3346 303.141 35.5268 303.249 35.6936 303.393C35.8604 303.536 35.9985 303.713 36.0999 303.912C36.2014 304.111 36.2643 304.33 36.285 304.554C38.9399 332.01 45.9401 358.815 57 383.878L56.9159 383.9Z" fill="white"/>
<path fill-rule="evenodd" clip-rule="evenodd" d="M36.3456 257.448C36.3259 257.671 36.2633 257.888 36.1612 258.086C36.0591 258.284 35.9196 258.46 35.7507 258.604C35.5817 258.747 35.3867 258.855 35.1766 258.922C34.9665 258.989 34.7455 259.013 34.5263 258.993C34.3071 258.973 34.0939 258.909 33.8989 258.806C33.7039 258.702 33.5308 258.56 33.3897 258.388C33.2486 258.217 33.1422 258.018 33.0765 257.805C33.0107 257.591 32.987 257.367 33.0067 257.144C35.4763 229.503 42.4715 202.477 53.7035 177.18C53.7778 176.951 53.8989 176.741 54.0587 176.562C54.2185 176.383 54.4134 176.241 54.6309 176.144C54.8484 176.048 55.0835 175.998 55.3209 176C55.5583 176.002 55.7927 176.054 56.0088 176.154C56.225 176.254 56.418 176.399 56.5754 176.58C56.7327 176.76 56.8508 176.973 56.9221 177.203C56.9933 177.433 57.0161 177.676 56.9888 177.916C56.9616 178.156 56.8851 178.387 56.7641 178.595C45.7011 203.545 38.8007 230.194 36.3456 257.448Z" fill="white"/>
<path fill-rule="evenodd" clip-rule="evenodd" d="M79.0724 138.337C78.8028 138.684 78.4081 138.915 77.9707 138.981C77.5334 139.047 77.0873 138.942 76.7259 138.689C76.3644 138.437 76.1156 138.055 76.0314 137.625C75.9471 137.194 76.034 136.748 76.274 136.38C92.2408 113.966 111.859 94.3436 134.324 78.3154C134.505 78.1866 134.709 78.0944 134.926 78.0441C135.143 77.9938 135.368 77.9865 135.587 78.0224C135.807 78.0584 136.017 78.137 136.206 78.2537C136.395 78.3704 136.559 78.5229 136.688 78.7025C136.947 79.0697 137.05 79.5221 136.977 79.9638C136.904 80.4054 136.661 80.8016 136.298 81.0681C114.143 96.8701 94.8026 116.225 79.0724 138.337Z" fill="white"/>
<path fill-rule="evenodd" clip-rule="evenodd" d="M178.432 56.8477C178.228 56.9381 178.008 56.9894 177.783 56.9985C177.559 57.0076 177.335 56.9743 177.124 56.9007C176.913 56.827 176.719 56.7144 176.553 56.5692C176.388 56.424 176.254 56.2491 176.159 56.0544C176.065 55.8598 176.011 55.6492 176.002 55.4348C175.992 55.2203 176.027 55.0062 176.104 54.8046C176.181 54.603 176.299 54.4179 176.451 54.2598C176.603 54.1017 176.786 53.9738 176.99 53.8833C202.3 42.7162 229.383 35.6607 257.124 33.0075C257.576 32.966 258.027 33.0977 258.377 33.3737C258.727 33.6497 258.949 34.0474 258.992 34.4793C259.036 34.9111 258.898 35.3418 258.609 35.6765C258.32 36.0112 257.904 36.2226 257.451 36.2641C230.101 38.9023 203.399 45.8579 178.432 56.8477Z" fill="white"/>
<path fill-rule="evenodd" clip-rule="evenodd" d="M302.558 36.3667C302.334 36.3469 302.117 36.2839 301.918 36.1811C301.718 36.0784 301.542 35.9381 301.398 35.7681C301.254 35.5981 301.145 35.4017 301.078 35.1903C301.011 34.9789 300.987 34.7566 301.007 34.536C301.027 34.3153 301.091 34.1008 301.195 33.9045C301.299 33.7083 301.442 33.5342 301.614 33.3922C301.787 33.2502 301.986 33.1431 302.2 33.0769C302.415 33.0108 302.64 32.987 302.864 33.0068C330.617 35.4919 357.754 42.5314 383.153 53.8343C383.52 54.0481 383.793 54.3877 383.92 54.7879C384.048 55.188 384.021 55.6206 383.845 56.0025C383.669 56.3845 383.356 56.6888 382.966 56.8571C382.577 57.0254 382.137 57.0458 381.733 56.9143C356.681 45.7815 329.923 38.8373 302.558 36.3667Z" fill="white"/>
<path fill-rule="evenodd" clip-rule="evenodd" d="M180.15 181.182C174.623 182.555 168.931 183.155 163.239 182.966C157.327 182.76 151.706 180.345 147.488 176.197C136.744 165.453 135.133 150.819 134.08 141.386C133.895 139.144 133.55 136.918 133.048 134.725C132.954 134.38 132.998 134.012 133.171 133.699C133.343 133.387 133.631 133.153 133.972 133.048C134.219 132.984 134.478 132.984 134.724 133.048C136.918 133.541 139.144 133.878 141.386 134.058C150.819 135.133 165.517 136.809 176.196 147.489C180.339 151.701 182.754 157.313 182.965 163.218C183.157 168.911 182.557 174.602 181.182 180.129C181.13 180.386 181.005 180.622 180.822 180.809C180.639 180.995 180.405 181.125 180.15 181.182ZM163.411 180.258C168.557 180.435 173.704 179.915 178.71 178.711C179.92 173.705 180.448 168.559 180.279 163.411C180.092 158.159 177.954 153.164 174.284 149.401C164.27 139.388 150.153 137.776 141.106 136.744C139.215 136.53 137.539 136.358 136.121 136.1C136.357 137.518 136.551 139.194 136.766 141.085C137.776 150.153 139.387 164.25 149.401 174.285C153.17 177.967 158.186 180.1 163.454 180.258H163.411Z" fill="white"/>
<path fill-rule="evenodd" clip-rule="evenodd" d="M179.613 183L160.246 163.633C153.644 159.847 140.285 166.01 140.241 166.032L139.448 164.249C139.448 164.249 149.572 159.539 157.253 160.64L151.113 154.499C145.501 152.298 137.666 157.668 137.644 157.691L136.543 156.04C136.543 156.04 142.728 151.77 148.626 152.012L142.596 145.982C140.203 145.908 137.834 146.47 135.729 147.611L134.783 145.894C136.619 144.942 138.608 144.316 140.659 144.045L133 136.387L134.386 135L142.045 142.659C142.311 140.607 142.937 138.618 143.894 136.783L145.611 137.729C144.471 139.833 143.916 142.204 144.004 144.596L150.012 150.626C149.77 144.728 154.04 138.565 154.04 138.543L155.691 139.622C155.691 139.622 150.254 147.501 152.499 153.113L158.64 159.253C157.539 151.55 162.227 141.47 162.249 141.448L164.032 142.241C164.032 142.241 157.847 155.578 161.633 162.246L181 181.613L179.613 183Z" fill="white"/>
<path fill-rule="evenodd" clip-rule="evenodd" d="M142.544 244.367C138.447 248.273 133.825 251.599 128.81 254.25C123.587 257.005 117.512 257.721 111.783 256.257C97.1454 252.351 88.3627 240.546 82.7014 232.967C81.3939 231.124 79.9552 229.376 78.3962 227.737C78.1425 227.485 78 227.143 78 226.787C78 226.431 78.1425 226.089 78.3962 225.837C78.5685 225.653 78.7941 225.526 79.0419 225.474C81.1979 224.798 83.3052 223.978 85.3491 223.019C93.9595 219.262 107.629 213.392 122.266 217.277C127.968 218.859 132.871 222.489 136.021 227.46C139.035 232.27 141.36 237.471 142.931 242.915C143.018 243.172 143.023 243.448 142.946 243.708C142.869 243.967 142.713 244.197 142.501 244.367H142.544ZM127.626 251.838C132.189 249.44 136.398 246.43 140.133 242.894C138.672 237.983 136.543 233.294 133.804 228.954C131.034 224.522 126.685 221.283 121.62 219.881C107.887 216.231 94.8421 221.867 86.4684 225.496C84.7248 226.243 83.175 226.905 81.8188 227.417C82.7444 228.506 83.7562 229.851 84.8755 231.366C90.3001 238.667 98.7598 250.002 112.493 253.653C117.589 254.939 122.986 254.292 127.626 251.838Z" fill="white"/>
<path fill-rule="evenodd" clip-rule="evenodd" d="M143.61 245.932L117.622 238.742C110.085 238.742 101.769 250.955 101.747 251L100.188 249.817C100.188 249.817 106.512 240.551 113.615 237.626L105.342 235.393C99.4517 236.264 95.4452 244.972 95.4235 244.994L93.6909 244.145C95.5376 240.189 98.4174 236.841 102.007 234.478L93.9075 232.245C91.8343 233.384 90.0926 235.072 88.8615 237.135L87.1722 236.175C88.273 234.393 89.6652 232.821 91.287 231.53L81 228.695L81.4981 226.752L91.7851 229.61C91.0015 227.667 90.5615 225.595 90.4857 223.493H92.2832C92.3362 225.914 93.0248 228.275 94.2757 230.325L102.375 232.557C100.431 228.638 99.5621 224.245 99.8632 219.853L101.791 220.032C101.791 220.032 101.033 229.677 105.711 233.428L113.983 235.661C109.241 229.454 108.288 218.201 108.266 218.179L110.194 218C110.194 218 111.471 232.848 118.012 236.777L144 243.967L143.61 245.932Z" fill="white"/>
<path fill-rule="evenodd" clip-rule="evenodd" d="M145.832 319.097C144.251 324.535 141.922 329.731 138.91 334.536C135.78 339.515 130.887 343.149 125.194 344.723C110.576 348.609 97.011 342.737 88.326 338.978C86.2875 338.018 84.1825 337.205 82.0272 336.544C81.68 336.458 81.381 336.239 81.1957 335.935C81.0104 335.631 80.9538 335.266 81.0383 334.921C81.0994 334.656 81.2422 334.417 81.4467 334.237C83.0049 332.606 84.4418 330.865 85.7462 329.027C91.3786 321.446 100.171 309.637 114.79 305.75C120.508 304.279 126.575 304.987 131.794 307.736H131.902C136.885 310.397 141.478 313.724 145.553 317.623C145.745 317.798 145.883 318.023 145.952 318.272C146.02 318.522 146.016 318.786 145.94 319.033L145.832 319.097ZM136.674 333.041C139.4 328.695 141.526 324.005 142.994 319.097C139.276 315.604 135.113 312.61 130.612 310.192H130.504C125.887 307.759 120.525 307.112 115.456 308.377C101.762 312.028 93.3134 323.325 87.896 330.671C86.7566 332.187 85.7463 333.533 84.8434 334.643C86.1977 335.134 87.7456 335.796 89.4869 336.565C97.8494 340.174 110.877 345.812 124.571 342.16C129.606 340.721 133.922 337.47 136.674 333.041Z" fill="white"/>
<path fill-rule="evenodd" clip-rule="evenodd" d="M144 319.051L118.056 326.213C111.57 330.14 110.273 344.955 110.273 345L108.349 344.821C108.349 344.821 109.322 333.531 114.035 327.329L105.798 329.56C101.106 333.331 101.885 342.947 101.885 342.947L99.9606 343.126C99.9606 343.126 99.3552 335.495 102.468 330.452L94.3826 332.684C93.136 334.741 92.449 337.107 92.3937 339.533H90.4479C90.5324 337.424 90.9789 335.346 91.7667 333.398L81.4973 336.254L81 334.335L91.2694 331.479C89.6468 330.201 88.2561 328.638 87.1616 326.86L88.848 325.878C90.0679 327.947 91.8089 329.636 93.8854 330.765L101.971 328.533C96.8257 325.767 93.6692 318.872 93.6476 318.85L95.3988 318.002C95.3988 318.002 99.4201 326.748 105.301 327.596L113.538 325.365C106.446 322.442 100.177 313.227 100.155 313.183L101.712 312C101.712 312 110.035 324.227 117.559 324.249L143.503 317.065L144 319.051Z" fill="white"/>
<path fill-rule="evenodd" clip-rule="evenodd" d="M181.164 381.85C182.543 387.376 183.151 393.068 182.968 398.761C182.763 404.673 180.348 410.294 176.2 414.512C165.457 425.256 150.825 426.868 141.393 427.921C139.144 428.106 136.911 428.451 134.71 428.952C134.369 429.046 134.004 429.001 133.695 428.828C133.385 428.655 133.156 428.368 133.056 428.028C132.981 427.783 132.981 427.521 133.056 427.276C133.55 425.075 133.887 422.842 134.066 420.593C135.14 411.16 136.795 396.483 147.495 385.782C151.711 381.647 157.321 379.24 163.223 379.035C168.914 378.844 174.605 379.444 180.132 380.818C180.386 380.871 180.618 380.997 180.802 381.18C180.985 381.363 181.111 381.596 181.164 381.85ZM180.261 398.589C180.438 393.436 179.918 388.282 178.714 383.268C173.701 382.064 168.547 381.544 163.394 381.721C158.149 381.909 153.161 384.047 149.407 387.716C139.373 397.73 137.783 411.848 136.752 420.894C136.537 422.785 136.343 424.461 136.107 425.879C137.525 425.643 139.201 425.45 141.092 425.235C150.159 424.225 164.254 422.613 174.288 412.578C177.96 408.85 180.106 403.883 180.304 398.654L180.261 398.589Z" fill="white"/>
<path fill-rule="evenodd" clip-rule="evenodd" d="M183 382.387L163.642 401.754C159.836 408.356 166.017 421.715 166.039 421.759L164.236 422.552C164.236 422.552 159.528 412.428 160.65 404.747L154.49 410.887C152.291 416.499 157.658 424.334 157.68 424.356L156.052 425.457C153.612 421.883 152.218 417.698 152.027 413.374L145.999 419.382C145.912 421.783 146.474 424.163 147.627 426.271L145.911 427.217C144.952 425.384 144.327 423.394 144.063 421.341L136.408 429L135 427.613L142.655 419.955C140.601 419.689 138.612 419.055 136.782 418.084L137.75 416.389C139.854 417.525 142.223 418.08 144.613 417.996L150.641 411.988C146.318 411.783 142.137 410.381 138.564 407.938L139.642 406.309C139.642 406.309 147.495 411.745 153.104 409.501L181.702 381L183 382.387Z" fill="white"/>
<path fill-rule="evenodd" clip-rule="evenodd" d="M139.902 399C139.902 399 153.388 406.897 159.988 401.947L161 404.088C153.476 409.649 139.132 401.308 139 401.308L139.902 399Z" fill="white"/>
<path fill-rule="evenodd" clip-rule="evenodd" d="M244.38 416.419C248.281 420.516 251.608 425.132 254.268 430.139C257.011 435.378 257.719 441.46 256.254 447.198C252.367 461.844 240.557 470.631 232.975 476.296C231.131 477.604 229.383 479.044 227.743 480.604C227.49 480.857 227.149 481 226.792 481C226.436 481 226.094 480.857 225.842 480.604C225.659 480.426 225.527 480.203 225.457 479.957C224.8 477.797 223.986 475.687 223.023 473.647C219.264 464.924 213.391 451.354 217.278 436.708C218.847 430.997 222.482 426.087 227.465 422.945C232.245 419.952 237.413 417.64 242.821 416.075C243.08 415.983 243.362 415.976 243.626 416.053C243.89 416.13 244.123 416.288 244.294 416.505L244.38 416.419ZM251.855 431.345C249.456 426.78 246.445 422.569 242.906 418.831C238.022 420.285 233.353 422.393 229.024 425.099C224.59 427.871 221.35 432.222 219.947 437.29C216.295 451.031 221.933 464.084 225.543 472.462C226.312 474.207 226.974 475.757 227.465 477.093C228.576 476.188 229.921 475.176 231.437 474.056C238.72 468.628 250.082 460.164 253.734 446.422C254.966 441.328 254.273 435.953 251.791 431.345H251.855Z" fill="white"/>
<path fill-rule="evenodd" clip-rule="evenodd" d="M249.905 461.916C249.905 461.916 240.633 455.605 237.706 448.517L235.472 456.773C236.321 462.651 245.057 466.649 245.079 466.671L244.23 468.4C240.267 466.554 236.911 463.681 234.533 460.101L232.299 468.184C233.439 470.253 235.128 471.991 237.192 473.22L236.232 474.884C234.436 473.811 232.86 472.426 231.584 470.799L228.68 481L226.758 480.503L229.618 470.237C227.667 471.022 225.586 471.461 223.474 471.534V469.61C225.903 469.555 228.273 468.868 230.333 467.622L232.567 459.539C227.518 462.63 219.899 462.046 219.877 462.046L220.056 460.122C220.056 460.122 229.708 460.879 233.461 456.211L235.695 447.955C229.484 452.666 218.223 453.639 218.179 453.639L218 451.737C218 451.737 232.88 450.44 236.812 443.935L243.984 418L245.928 418.497L238.734 444.432C238.734 451.953 250.955 460.252 251 460.274L249.905 461.916Z" fill="white"/>
<path fill-rule="evenodd" clip-rule="evenodd" d="M319.082 416.062C324.526 417.644 329.728 419.978 334.539 422.995C339.516 426.13 343.149 431.031 344.723 436.733C348.608 451.375 342.737 464.941 338.98 473.662C338.02 475.703 337.207 477.812 336.546 479.971C336.455 480.32 336.232 480.62 335.925 480.805C335.617 480.99 335.25 481.046 334.902 480.961C334.646 480.893 334.416 480.751 334.24 480.552C332.601 479.034 330.861 477.631 329.031 476.353C321.452 470.712 309.645 461.905 305.76 447.263C304.274 441.535 304.983 435.454 307.745 430.23C310.407 425.19 313.755 420.551 317.694 416.449C317.864 416.256 318.085 416.117 318.331 416.048C318.578 415.98 318.838 415.984 319.082 416.062ZM333.045 425.235C328.697 422.509 324.009 420.38 319.103 418.904C315.573 422.646 312.563 426.854 310.158 431.414C307.726 436.039 307.079 441.41 308.343 446.487C311.994 460.204 323.288 468.666 330.632 474.092C332.148 475.233 333.493 476.246 334.582 477.15C335.094 475.793 335.756 474.243 336.503 472.499C340.133 464.123 345.769 451.074 342.118 437.357C340.662 432.311 337.397 427.99 332.959 425.235H333.045Z" fill="white"/>
<path fill-rule="evenodd" clip-rule="evenodd" d="M318.963 418L326.172 443.944C330.112 450.43 344.978 451.727 345 451.727L344.821 453.651C344.821 453.651 333.515 452.678 327.291 447.943L329.53 456.202C333.336 460.894 342.963 460.115 342.963 460.115L343.142 462.039C343.142 462.039 335.485 462.645 330.425 459.532L332.664 467.617C334.72 468.866 337.087 469.554 339.515 469.606V471.552C337.406 471.465 335.329 471.019 333.381 470.233L336.246 480.503L334.299 481L331.455 470.731C330.167 472.355 328.59 473.746 326.799 474.838L325.836 473.152C327.934 471.941 329.658 470.209 330.828 468.136L328.59 460.05C325.791 465.196 318.896 468.352 318.873 468.374L318.022 466.623C318.022 466.623 326.776 462.602 327.649 456.721L325.41 448.484C322.478 455.575 313.209 461.845 313.187 461.867L312 460.31C312 460.31 324.246 451.986 324.291 444.463L317.082 418.519L318.963 418Z" fill="white"/>
<path fill-rule="evenodd" clip-rule="evenodd" d="M280 157C304.327 157 328.108 164.214 348.335 177.729C368.562 191.245 384.328 210.455 393.637 232.93C402.947 255.405 405.383 280.136 400.637 303.996C395.891 327.856 384.176 349.772 366.974 366.974C349.772 384.176 327.856 395.891 303.996 400.637C280.136 405.383 255.405 402.947 232.93 393.637C210.455 384.328 191.245 368.562 177.729 348.335C164.214 328.108 157 304.327 157 280C157 247.378 169.959 216.093 193.026 193.026C216.093 169.959 247.378 157 280 157ZM184.816 255.074H210.372V264.658H220.043V229.148H210.372V247.707H187.424V229.148H177.754V248.424C177.711 249.383 177.907 250.338 178.324 251.203C178.741 252.068 179.367 252.815 180.144 253.379C181.444 254.463 183.08 255.063 184.773 255.074H184.816ZM269.569 228.996H259.811V242.839H234.168V228.714H224.389V243.535C224.365 244.506 224.58 245.468 225.016 246.336C225.452 247.204 226.095 247.951 226.888 248.511C228.168 249.569 229.77 250.159 231.43 250.184L259.811 250.467C259.811 256.798 253.343 259.964 240.405 259.964C237.971 259.964 235.364 259.964 232.56 259.681L232.126 265.896C236.107 266.601 240.143 266.957 244.187 266.961C250.175 267.228 256.14 266.042 261.572 263.506C264.04 262.362 266.114 260.514 267.533 258.194C268.953 255.873 269.653 253.185 269.547 250.467V228.975L269.569 228.996ZM286.085 255.987H309.62V236.276H286.128V256.095L286.085 255.987ZM303.47 228.822V225.454L294.777 226.345V228.909H284.216C282.555 228.915 280.951 229.516 279.696 230.604C278.908 231.164 278.27 231.908 277.838 232.772C277.406 233.636 277.193 234.593 277.218 235.559V255.9H275.176V270.547L285.194 269.743V264.592H311.554V270.547L321.768 269.743V255.9H319.334V228.888L303.47 228.822ZM365.687 258.03V228.822H349.801V224.737L341.109 225.628V228.822H325.288V258.03C325.264 259 325.479 259.963 325.915 260.83C326.351 261.698 326.994 262.446 327.787 263.006C329.059 264.064 330.654 264.654 332.308 264.679H358.668C360.328 264.654 361.93 264.064 363.21 263.006C363.996 262.441 364.633 261.692 365.065 260.825C365.496 259.957 365.71 258.998 365.687 258.03ZM355.93 258.203V235.364H334.763V258.269L355.93 258.203ZM195.682 316.335H230.452V329.374H243.491V281.13H230.452V306.338H199.246V281.13H186.098V307.208C186.036 308.517 186.301 309.82 186.871 311.001C187.44 312.181 188.295 313.2 189.358 313.966C191.112 315.44 193.326 316.255 195.617 316.27L195.682 316.335ZM307.273 331.417V301.492C307.428 298.304 306.8 295.125 305.444 292.235C304.088 289.345 302.045 286.83 299.493 284.911C294.321 281 287.084 279.044 277.762 279.044C269.468 279.194 261.231 280.451 253.27 282.782L257.138 291.713C263.99 290.507 270.918 289.781 277.87 289.54C288.591 289.54 293.944 293.524 293.93 301.492H250.011L249.88 322.116C249.864 323.429 250.161 324.727 250.747 325.902C251.332 327.078 252.19 328.096 253.249 328.874C254.974 330.323 257.145 331.136 259.399 331.177L307.208 331.417H307.273ZM294.125 321.159V310.294H263.049V321.159H294.125ZM329.591 270.612C329.371 273.845 330.362 277.045 332.373 279.587C333.277 280.602 334.395 281.406 335.646 281.939C336.897 282.472 338.25 282.723 339.609 282.673H347.085C348.471 282.711 349.85 282.456 351.131 281.924C352.412 281.392 353.566 280.596 354.517 279.587C356.637 277.096 357.698 273.875 357.473 270.612H349.323V273.98C349.323 274.458 349.323 274.719 349.193 274.719C348.408 274.932 347.592 275.012 346.781 274.958H340.022C339.211 275.012 338.395 274.932 337.61 274.719C337.61 274.719 337.501 274.458 337.501 273.98V270.612H329.591ZM312.206 329.287L311.619 336.523C314.158 337.051 316.741 337.335 319.334 337.371C326.104 337.177 332.559 334.465 337.436 329.765C343.941 324.071 351.779 313.858 360.95 299.124V328.809L373.988 330.026V288.214L379.552 287.497C380.457 287.151 381.221 286.511 381.721 285.68C382.221 284.849 382.429 283.875 382.312 282.912V280.739H359.32C350.596 296.725 340.248 311.771 328.439 325.636V280.739H316.617V329.83C315.957 330.035 315.266 330.123 314.575 330.091C313.293 329.678 312.445 329.439 312.032 329.352L312.206 329.287Z" fill="white"/>
<path fill-rule="evenodd" clip-rule="evenodd" d="M510.442 416.967C501.547 421.903 492.009 425.583 482.101 427.901C471.762 430.3 460.897 428.739 451.656 423.528H451.481C428.094 409.97 418.428 385.455 412.225 369.71C410.875 365.955 409.256 362.3 407.381 358.776C407.202 358.487 407.083 358.165 407.031 357.829C406.978 357.494 406.993 357.151 407.075 356.821C407.156 356.492 407.303 356.181 407.506 355.909C407.709 355.636 407.965 355.407 408.257 355.233C408.721 354.943 409.268 354.812 409.814 354.862C413.777 354.686 417.725 354.24 421.628 353.528C438.461 351.013 464.654 347.098 488.172 360.635C497.307 366.007 504.106 374.584 507.241 384.69C510.207 394.446 511.808 404.565 511.998 414.759C512.02 415.282 511.883 415.8 511.606 416.245C511.328 416.69 510.922 417.041 510.442 417.252V416.967ZM481.115 422.762C490.054 420.701 498.673 417.442 506.737 413.075C506.502 403.924 505.027 394.846 502.354 386.089C499.637 377.145 493.663 369.539 485.608 364.768C463.689 352.128 438.549 355.89 422.417 358.208C419.151 358.689 416.258 359.126 413.649 359.367C414.679 361.663 415.841 364.396 416.981 367.48C422.943 382.591 432.192 406.099 454.045 418.761H454.177C462.338 423.411 471.95 424.839 481.115 422.762Z" fill="white"/>
<path fill-rule="evenodd" clip-rule="evenodd" d="M508.935 414L467.748 390.593C454.534 387.084 434.647 403.43 434.582 403.43L433.343 401.954C433.343 401.954 449.904 388.325 463.554 388.154L448.34 379.595C437.472 378.162 426.453 390.956 426.41 390.978L424.91 389.78C424.91 389.78 434.408 378.782 444.949 377.67L430.191 369.282C424.28 369.967 418.737 375.209 418.716 375.23L417.412 373.818C420.364 371.137 423.86 369.102 427.67 367.849L410 357.793L410.956 356.145L428.626 366.201C427.82 362.321 427.864 358.317 428.757 354.455L430.648 354.883C430.648 354.883 428.8 362.243 431.148 367.72L445.905 376.108C441.558 366.544 446.514 353.043 446.536 353L448.383 353.621C448.383 353.621 442.623 369.475 449.296 378.012L464.51 386.699C457.837 374.974 461.532 354.113 461.554 354.048L463.467 354.348C463.467 354.348 458.989 379.574 468.705 389.074L510 412.481L508.935 414Z" fill="white"/>
<path fill-rule="evenodd" clip-rule="evenodd" d="M548.56 281.426C543.305 290.035 536.876 297.888 529.454 304.763C521.726 311.873 511.594 315.88 501.037 316C473.974 316 453.295 299.729 440.026 289.27C436.971 286.698 433.735 284.343 430.342 282.226C429.742 281.902 429.297 281.355 429.105 280.707C428.912 280.059 428.987 279.362 429.315 278.768C429.564 278.349 429.917 277.999 430.342 277.753C433.731 275.636 436.966 273.29 440.026 270.73C453.295 260.271 473.974 244 501.037 244C511.594 244.12 521.726 248.127 529.454 255.237C536.89 262.122 543.326 269.989 548.582 278.617C548.855 279.036 549 279.523 549 280.022C549 280.52 548.855 281.007 548.582 281.426H548.56ZM526.044 300.874C532.739 294.707 538.555 287.67 543.335 279.957C538.555 272.243 532.739 265.207 526.044 259.04C519.226 252.73 510.267 249.169 500.927 249.056C475.657 249.056 455.852 264.658 443.13 274.663C440.551 276.694 438.255 278.509 436.222 279.957C438.255 281.405 440.594 283.22 443.13 285.251C455.852 295.256 475.657 310.857 500.927 310.857C510.261 310.756 519.219 307.211 526.044 300.917V300.874Z" fill="white"/>
<path fill-rule="evenodd" clip-rule="evenodd" d="M546 283.562H498.123C484.804 287.147 475.836 311.911 475.815 312L473.999 311.292C473.999 311.292 481.436 290.666 493.246 283.562H475.53C465.338 287.811 462.276 304.896 462.254 304.94L460.351 304.564C460.351 304.564 462.976 289.914 471.593 283.562H454.446C449.635 287.192 447.513 294.628 447.513 294.628L445.632 294.074C446.827 290.165 448.833 286.559 451.515 283.496H431V281.504H451.515C448.833 278.441 446.827 274.835 445.632 270.926L447.513 270.372C447.513 270.372 449.7 277.897 454.446 281.438H471.593C462.976 275.086 460.351 260.48 460.351 260.436L462.254 260.06C462.254 260.06 465.338 277.189 475.53 281.438H493.246C481.436 274.334 474.021 253.775 473.999 253.708L475.815 253C475.815 253 484.804 277.853 498.123 281.438H546V283.562Z" fill="white"/>
<path fill-rule="evenodd" clip-rule="evenodd" d="M514.867 149.331C514.677 159.51 513.077 169.614 510.112 179.357C506.978 189.449 500.181 198.014 491.049 203.379C467.539 216.896 441.355 212.987 424.527 210.476C420.604 209.761 416.636 209.323 412.651 209.166C412.31 209.174 411.97 209.115 411.652 208.993C411.333 208.87 411.042 208.685 410.796 208.45C410.549 208.214 410.352 207.932 410.216 207.62C410.079 207.309 410.006 206.973 410 206.632C409.999 206.149 410.127 205.674 410.373 205.257C412.249 201.738 413.867 198.089 415.215 194.338C421.438 178.549 431.122 153.982 454.655 140.465C463.893 135.26 474.754 133.702 485.09 136.097C495.045 138.408 504.631 142.083 513.574 147.016C514.018 147.243 514.387 147.592 514.639 148.022C514.892 148.451 515.016 148.943 514.998 149.44L514.867 149.331ZM505.204 177.719C507.877 168.975 509.351 159.91 509.586 150.772C501.525 146.41 492.909 143.156 483.972 141.098C474.853 138.988 465.272 140.351 457.109 144.919C435.198 157.542 425.886 181.082 419.86 196.194C418.655 199.273 417.669 202.003 416.53 204.296C419.027 204.536 421.898 204.973 425.119 205.453C441.245 207.877 466.356 211.633 488.289 198.902C496.394 194.186 502.43 186.612 505.204 177.676V177.719Z" fill="white"/>
<path fill-rule="evenodd" clip-rule="evenodd" d="M510 149.519L468.687 172.926C458.967 182.426 463.425 207.588 463.446 207.652L461.533 207.952C461.533 207.952 457.815 187.026 464.49 175.301L449.269 183.988C442.594 192.546 448.334 208.337 448.356 208.38L446.508 209C446.508 209 441.594 195.456 445.877 185.892L431.157 194.28C428.808 199.671 430.657 207.01 430.657 207.117L428.787 207.545C427.865 203.687 427.814 199.678 428.635 195.799L410.957 205.855L410 204.207L427.678 194.151C423.866 192.898 420.368 190.863 417.415 188.182L418.719 186.77C418.719 186.77 424.286 192.054 430.2 192.718L444.964 184.33C434.418 183.218 424.982 172.284 424.938 172.242L426.417 171.001C426.417 171.001 437.484 183.838 448.356 182.405L463.577 173.846C449.922 173.675 433.418 160.089 433.353 160.046L434.592 158.57C434.592 158.57 454.553 175.002 467.795 171.407L509.108 148L510 149.519Z" fill="white"/>
<path fill-rule="evenodd" clip-rule="evenodd" d="M166.465 367.554C166.282 367.323 166.149 367.059 166.073 366.776C165.997 366.493 165.98 366.198 166.023 365.909C166.067 365.619 166.169 365.341 166.324 365.092C166.48 364.843 166.685 364.627 166.927 364.457C167.162 364.277 167.431 364.146 167.718 364.072C168.006 363.997 168.305 363.98 168.6 364.023C168.894 364.065 169.176 364.166 169.43 364.319C169.683 364.472 169.903 364.674 170.075 364.912C181.785 380.48 196.657 393.482 213.746 403.093C230.726 412.67 249.552 418.653 269.018 420.657C269.307 420.687 269.587 420.772 269.843 420.909C270.098 421.045 270.324 421.23 270.507 421.452C270.69 421.674 270.826 421.93 270.909 422.204C270.991 422.478 271.018 422.765 270.988 423.05C270.958 423.334 270.871 423.61 270.732 423.861C270.593 424.113 270.406 424.335 270.18 424.515C269.954 424.695 269.694 424.829 269.416 424.91C269.137 424.991 268.845 425.018 268.556 424.988C248.482 422.947 229.064 416.802 211.545 406.948C193.905 397.033 178.553 383.618 166.465 367.554Z" fill="white"/>
<path fill-rule="evenodd" clip-rule="evenodd" d="M296.397 422.85C296.115 422.881 295.83 422.856 295.557 422.777C295.285 422.698 295.031 422.567 294.809 422.39C294.588 422.213 294.403 421.994 294.267 421.746C294.13 421.499 294.044 421.226 294.013 420.945C293.982 420.664 294.007 420.38 294.086 420.108C294.165 419.837 294.297 419.583 294.475 419.363C294.653 419.142 294.872 418.958 295.121 418.822C295.369 418.686 295.643 418.6 295.925 418.569C314.943 416.456 333.312 410.416 349.857 400.834C366.403 391.251 380.763 378.337 392.021 362.915C392.187 362.678 392.4 362.477 392.647 362.324C392.893 362.171 393.168 362.069 393.455 362.025C393.743 361.981 394.036 361.995 394.317 362.067C394.598 362.14 394.862 362.268 395.092 362.444C395.327 362.61 395.527 362.821 395.678 363.065C395.83 363.309 395.931 363.581 395.975 363.864C396.019 364.148 396.005 364.437 395.935 364.716C395.864 364.994 395.738 365.255 395.565 365.484C383.954 381.413 369.139 394.755 352.064 404.658C334.989 414.561 316.03 420.808 296.397 423V422.85Z" fill="white"/>
<path fill-rule="evenodd" clip-rule="evenodd" d="M411.724 338.652C411.486 339.196 411.039 339.625 410.481 339.843C409.923 340.061 409.3 340.051 408.75 339.816C408.2 339.58 407.766 339.137 407.546 338.586C407.325 338.034 407.335 337.418 407.573 336.874C415.495 318.866 419.554 299.429 419.493 279.791C419.428 260.268 415.239 240.975 407.196 223.147C407.075 222.879 407.009 222.59 407.001 222.296C406.993 222.003 407.043 221.711 407.149 221.436C407.256 221.162 407.415 220.911 407.619 220.698C407.824 220.485 408.068 220.314 408.339 220.194C408.61 220.074 408.903 220.009 409.199 220.001C409.496 219.993 409.792 220.043 410.069 220.148C410.346 220.253 410.6 220.411 410.815 220.613C411.031 220.815 411.204 221.057 411.325 221.325C419.633 239.747 423.95 259.685 423.999 279.857C424.068 300.084 419.888 320.106 411.724 338.652Z" fill="white"/>
<path fill-rule="evenodd" clip-rule="evenodd" d="M398.535 194.446C398.718 194.677 398.851 194.941 398.927 195.224C399.003 195.507 399.02 195.802 398.977 196.091C398.933 196.381 398.831 196.659 398.676 196.908C398.52 197.157 398.315 197.373 398.072 197.543C397.838 197.722 397.569 197.854 397.281 197.928C396.993 198.003 396.693 198.02 396.399 197.977C396.104 197.935 395.822 197.834 395.568 197.681C395.314 197.528 395.095 197.326 394.923 197.088C383.273 181.549 368.459 168.567 351.424 158.969C334.39 149.372 315.508 143.369 295.983 141.343C295.694 141.313 295.414 141.228 295.158 141.091C294.902 140.955 294.677 140.77 294.494 140.548C294.311 140.326 294.174 140.07 294.091 139.796C294.009 139.522 293.982 139.235 294.012 138.95C294.042 138.666 294.13 138.39 294.268 138.139C294.407 137.887 294.595 137.665 294.821 137.485C295.047 137.305 295.307 137.171 295.585 137.09C295.864 137.009 296.157 136.982 296.446 137.012C316.552 139.067 335.998 145.234 353.536 155.117C371.141 165.025 386.464 178.417 398.535 194.446Z" fill="white"/>
<path fill-rule="evenodd" clip-rule="evenodd" d="M262.661 137.008C263.231 136.959 263.797 137.139 264.234 137.507C264.671 137.875 264.944 138.401 264.992 138.97C265.041 139.539 264.861 140.103 264.492 140.54C264.124 140.976 263.596 141.248 263.027 141.297C243.682 142.825 224.924 148.642 208.117 158.324C191.624 167.916 177.557 181.159 166.999 197.032C166.677 197.512 166.177 197.846 165.609 197.958C165.041 198.071 164.451 197.954 163.97 197.632C163.488 197.311 163.155 196.812 163.042 196.245C162.929 195.678 163.046 195.089 163.368 194.609C174.281 178.207 188.818 164.524 205.861 154.614C223.242 144.59 242.649 138.574 262.661 137.008Z" fill="white"/>
<path fill-rule="evenodd" clip-rule="evenodd" d="M242.904 145.938C237.465 144.366 232.269 142.04 227.466 139.026C222.483 135.885 218.849 130.976 217.28 125.266C213.394 110.624 219.245 97.0586 223.024 88.3379C223.987 86.2978 224.801 84.189 225.458 82.0288C225.544 81.681 225.763 81.3816 226.067 81.196C226.371 81.0104 226.736 80.9537 227.081 81.0383C227.344 81.1046 227.581 81.2468 227.765 81.4474C229.399 82.9711 231.141 84.3743 232.975 85.6463C240.555 91.2879 252.364 100.095 256.25 114.737C257.721 120.465 257.013 126.541 254.264 131.769C251.589 136.807 248.241 141.452 244.313 145.572C244.135 145.758 243.909 145.891 243.66 145.956C243.411 146.02 243.15 146.014 242.904 145.938ZM228.96 136.765C233.296 139.513 237.989 141.644 242.904 143.095C246.428 139.353 249.431 135.144 251.83 130.585C254.278 125.965 254.926 120.589 253.645 115.512C250.015 101.774 238.697 93.3119 231.373 87.8857C229.857 86.7444 228.491 85.7324 227.402 84.8281C226.91 86.1846 226.227 87.735 225.48 89.4791C221.871 97.8553 216.234 110.904 219.885 124.62C221.301 129.669 224.538 134.001 228.96 136.765Z" fill="white"/>
<path fill-rule="evenodd" clip-rule="evenodd" d="M244.055 144L236.841 118.065C232.921 111.581 218.045 110.263 218 110.263L218.179 108.34C218.179 108.34 229.515 109.312 235.743 114.045L233.503 105.789C229.694 101.099 220.061 101.878 220.061 101.878L219.882 99.954C219.882 99.954 227.544 99.3489 232.607 102.461L230.367 94.3781C228.3 93.1319 225.925 92.445 223.489 92.3897V90.4446C225.599 90.5316 227.678 90.9779 229.627 91.7629L226.782 81.497L228.709 81L231.554 91.2659C232.856 89.6529 234.431 88.2645 236.214 87.1595L237.2 88.8453C235.089 90.0525 233.361 91.794 232.204 93.8809L234.444 101.964C236.821 98.3785 240.189 95.5043 244.167 93.6648L245.018 95.3938C245.018 95.3938 236.236 99.4137 235.363 105.292L237.603 113.548C240.538 106.438 249.79 100.17 249.835 100.149L251 101.705C251 101.705 238.745 110.025 238.701 117.546L245.914 143.481L244.055 144Z" fill="white"/>
<path fill-rule="evenodd" clip-rule="evenodd" d="M381.85 380.815C387.38 379.451 393.071 378.85 398.765 379.031C404.671 379.242 410.283 381.657 414.497 385.8C425.243 396.543 426.855 411.175 427.93 420.607C428.119 422.847 428.456 425.073 428.94 427.268C428.992 427.437 429.011 427.615 428.994 427.792C428.977 427.968 428.925 428.14 428.841 428.296C428.757 428.452 428.642 428.589 428.504 428.701C428.366 428.812 428.207 428.895 428.037 428.944C427.792 429.019 427.53 429.019 427.285 428.944C425.083 428.452 422.85 428.114 420.601 427.934C411.166 426.86 396.486 425.205 385.783 414.505C381.647 410.289 379.24 404.679 379.035 398.777C378.844 393.085 379.444 387.395 380.818 381.868C380.87 381.611 380.995 381.375 381.178 381.189C381.361 381.002 381.595 380.872 381.85 380.815ZM398.593 381.739C393.438 381.562 388.284 382.082 383.269 383.286C382.066 388.292 381.545 393.438 381.721 398.584C381.901 403.834 384.031 408.829 387.696 412.593C397.733 422.627 411.853 424.217 420.902 425.248C422.793 425.463 424.469 425.657 425.888 425.893C425.651 424.475 425.458 422.799 425.243 420.908C424.211 411.841 422.621 397.746 412.584 387.712C408.832 384.041 403.84 381.909 398.593 381.739Z" fill="white"/>
<path fill-rule="evenodd" clip-rule="evenodd" d="M382.387 381L401.732 400.367C408.334 404.175 421.715 397.99 421.759 397.968L422.552 399.773C422.552 399.773 412.428 404.461 404.725 403.36L410.887 409.523C416.499 411.724 424.334 406.354 424.356 406.332L425.457 407.96C421.874 410.4 417.683 411.795 413.352 411.988L419.382 418.018C421.776 418.099 424.147 417.537 426.249 416.389L427.217 418.106C425.384 419.065 423.394 419.691 421.341 419.955L429 427.613L427.613 429L419.955 421.297C419.687 423.352 419.053 425.342 418.084 427.173L416.367 426.227C417.523 424.128 418.086 421.755 417.996 419.36L411.966 413.33C411.774 417.654 410.38 421.839 407.938 425.413L406.31 424.334C406.31 424.334 411.745 416.455 409.501 410.865L403.338 404.703C404.461 412.406 399.773 422.486 399.751 422.53L397.968 421.715C397.968 421.715 404.153 408.378 400.345 401.71L381 382.342L382.387 381Z" fill="white"/>
<path fill-rule="evenodd" clip-rule="evenodd" d="M416.421 315.641C420.511 311.725 425.128 308.39 430.141 305.732C435.38 302.989 441.462 302.281 447.199 303.746C461.824 307.632 470.633 319.442 476.298 327.023C477.606 328.874 479.045 330.63 480.605 332.277C480.731 332.4 480.83 332.546 480.897 332.708C480.965 332.869 481 333.042 481 333.217C481 333.391 480.965 333.564 480.897 333.725C480.83 333.887 480.731 334.033 480.605 334.156C480.428 334.339 480.205 334.471 479.959 334.541C477.799 335.198 475.689 336.012 473.649 336.975C464.926 340.755 451.356 346.607 436.71 342.72C430.999 341.151 426.088 337.516 422.947 332.533C419.95 327.748 417.638 322.573 416.076 317.157C415.983 316.901 415.975 316.622 416.053 316.361C416.13 316.1 416.289 315.87 416.507 315.705L416.421 315.641ZM431.347 308.166C426.783 310.56 422.573 313.563 418.833 317.093C420.287 321.977 422.395 326.646 425.101 330.974C427.888 335.404 432.243 338.641 437.313 340.05C451.055 343.702 464.107 338.064 472.485 334.455C474.23 333.708 475.781 333.024 477.116 332.533C476.212 331.423 475.199 330.077 474.079 328.561C468.63 321.279 460.187 309.917 446.446 306.287C441.353 305.02 435.966 305.69 431.347 308.166Z" fill="white"/>
<path fill-rule="evenodd" clip-rule="evenodd" d="M418.519 317.072L444.454 324.266C451.975 324.266 460.252 312.022 460.295 312L461.852 313.162C461.852 313.162 455.541 322.434 448.452 325.361L456.708 327.595C462.586 326.724 466.585 317.988 466.606 317.965L468.335 318.814C466.496 322.782 463.621 326.14 460.036 328.511L468.119 330.745C470.195 329.615 471.935 327.924 473.155 325.852L474.819 326.835C473.736 328.617 472.352 330.184 470.734 331.46L481 334.32L480.503 336.242L470.237 333.404C471.021 335.348 471.46 337.422 471.534 339.526H469.61C469.555 337.097 468.868 334.727 467.622 332.667L459.539 330.433C462.63 335.482 462.046 343.101 462.046 343.123L460.123 342.945C460.123 342.945 460.879 333.315 456.211 329.539L447.955 327.305C452.666 333.516 453.639 344.777 453.639 344.821L451.737 345C451.737 345 450.44 330.12 443.935 326.21L418 319.016L418.519 317.072Z" fill="white"/>
<path fill-rule="evenodd" clip-rule="evenodd" d="M416.169 242.912C417.749 237.467 420.078 232.265 423.09 227.453C426.224 222.483 431.116 218.858 436.804 217.289C451.421 213.382 464.963 219.253 473.668 223.011C475.711 223.967 477.815 224.787 479.966 225.467C480.205 225.522 480.425 225.641 480.6 225.811C480.775 225.982 480.899 226.197 480.959 226.433C481.019 226.669 481.013 226.917 480.94 227.15C480.867 227.383 480.731 227.591 480.547 227.752C478.994 229.387 477.558 231.128 476.248 232.962C470.616 240.542 461.825 252.349 447.208 256.257C441.487 257.721 435.421 257.005 430.205 254.25C425.172 251.59 420.542 248.241 416.448 244.3C416.256 244.13 416.117 243.909 416.048 243.663C415.98 243.416 415.984 243.155 416.062 242.912H416.169ZM425.326 228.969C422.588 233.308 420.462 237.999 419.006 242.912C422.748 246.429 426.948 249.431 431.495 251.837C436.112 254.27 441.473 254.916 446.542 253.652C460.234 250.001 468.682 238.705 474.098 231.36C475.238 229.844 476.248 228.499 477.151 227.41C475.796 226.898 474.249 226.236 472.508 225.488C464.146 221.858 451.013 216.221 437.428 219.873C432.397 221.308 428.084 224.55 425.326 228.969Z" fill="white"/>
<path fill-rule="evenodd" clip-rule="evenodd" d="M418 244.002L443.944 236.803C450.43 232.868 451.727 218.045 451.727 218L453.651 218.179C453.651 218.179 452.678 229.47 447.943 235.685L456.202 233.449C460.894 229.648 460.115 220.035 460.115 220.035L462.039 219.856C462.039 219.856 462.645 227.502 459.532 232.577L467.617 230.341C468.866 228.289 469.554 225.924 469.606 223.5H471.552C471.465 225.606 471.019 227.68 470.233 229.626L480.503 226.787L481 228.709L470.731 231.482C472.355 232.768 473.746 234.343 474.838 236.132L473.152 237.094C471.929 235.028 470.188 233.344 468.115 232.219L460.029 234.455C465.174 237.228 468.331 244.136 468.352 244.136L466.601 245.008C466.601 245.008 462.58 236.244 456.699 235.372L448.462 237.608C455.554 240.537 461.823 249.793 461.845 249.815L460.288 251C460.288 251 451.965 238.77 444.441 238.726L418.497 245.925L418 244.002Z" fill="white"/>
<path fill-rule="evenodd" clip-rule="evenodd" d="M380.815 180.15C379.452 174.619 378.852 168.929 379.031 163.235C379.242 157.33 381.657 151.717 385.8 147.503C396.545 136.757 411.18 135.124 420.613 134.07C422.854 133.879 425.079 133.542 427.275 133.06C427.445 133.008 427.623 132.989 427.799 133.006C427.976 133.023 428.147 133.075 428.303 133.159C428.459 133.243 428.597 133.358 428.708 133.496C428.82 133.634 428.902 133.793 428.952 133.963C429.016 134.21 429.016 134.469 428.952 134.715C428.458 136.917 428.12 139.15 427.941 141.399C426.867 150.813 425.212 165.514 414.51 176.217C410.294 180.353 404.682 182.76 398.78 182.965C393.087 183.156 387.395 182.556 381.867 181.182C381.611 181.13 381.375 181.005 381.188 180.822C381.001 180.639 380.872 180.405 380.815 180.15ZM381.739 163.407C381.562 168.562 382.082 173.716 383.286 178.731C388.293 179.934 393.44 180.455 398.587 180.279C403.837 180.099 408.833 177.969 412.598 174.304C422.633 164.267 424.224 150.147 425.255 141.098C425.47 139.207 425.663 137.531 425.9 136.112C424.482 136.349 422.805 136.542 420.914 136.757C411.846 137.789 397.748 139.379 387.713 149.416C384.056 153.152 381.925 158.118 381.739 163.343V163.407Z" fill="white"/>
<path fill-rule="evenodd" clip-rule="evenodd" d="M381 179.613L400.367 160.246C404.153 153.644 397.99 140.285 397.968 140.241L399.773 139.448C399.773 139.448 404.461 149.572 403.36 157.253L409.523 151.113C411.724 145.501 406.332 137.666 406.332 137.644L407.96 136.543C410.402 140.117 411.796 144.302 411.988 148.626L418.018 142.618C418.099 140.224 417.537 137.853 416.389 135.751L418.106 134.783C419.065 136.616 419.691 138.606 419.955 140.659L427.613 133L429 134.387L421.341 142.045C423.398 142.302 425.39 142.936 427.217 143.916L426.271 145.633C424.172 144.477 421.799 143.914 419.404 144.004L413.374 150.034C417.698 150.226 421.883 151.621 425.457 154.062L424.378 155.691C424.378 155.691 416.499 150.255 410.909 152.499L404.747 158.662C412.45 157.539 422.53 162.227 422.552 162.249L421.759 164.032C421.759 164.032 408.422 157.847 401.754 161.655L382.387 181L381 179.613Z" fill="white"/>
<path fill-rule="evenodd" clip-rule="evenodd" d="M315.639 142.488C311.732 138.402 308.406 133.792 305.754 128.787C302.993 123.562 302.277 117.485 303.747 111.754C307.654 97.1502 319.461 88.3537 327.04 82.6972C328.888 81.3979 330.637 79.96 332.271 78.3958C332.523 78.1423 332.865 78 333.221 78C333.577 78 333.919 78.1423 334.171 78.3958C334.36 78.5727 334.488 78.8067 334.534 79.0626C335.211 81.2094 336.031 83.3075 336.989 85.3427C340.747 94.0531 346.618 107.624 342.711 122.228C341.162 127.94 337.544 132.859 332.57 136.014C327.76 139.031 322.558 141.362 317.112 142.939C316.853 143.02 316.576 143.02 316.317 142.94C316.058 142.859 315.829 142.701 315.66 142.488H315.639ZM308.166 127.604C310.57 132.154 313.58 136.35 317.112 140.079C322.014 138.622 326.696 136.502 331.032 133.777C335.468 130.997 338.712 126.648 340.128 121.582C343.779 107.861 338.142 94.8274 334.513 86.461C333.765 84.7189 333.103 83.1704 332.591 81.837C331.502 82.7403 330.157 83.7511 328.641 84.8695C321.339 90.3108 310.002 98.7417 306.351 112.463C305.065 117.562 305.712 122.961 308.166 127.604Z" fill="white"/>
<path fill-rule="evenodd" clip-rule="evenodd" d="M317.058 143.417L324.233 117.509C324.233 109.996 312.045 101.727 312 101.683L313.181 100.15C313.181 100.15 322.428 106.433 325.347 113.515L327.575 105.267C326.706 99.3948 318.016 95.4006 317.972 95.379L318.818 93.6518C322.77 95.4981 326.116 98.3674 328.489 101.942L330.717 93.8678C329.573 91.8057 327.891 90.071 325.837 88.8372L326.795 87.1748C328.582 88.253 330.152 89.6354 331.43 91.2553L334.26 81L336.176 81.4966L333.413 91.8167C335.352 91.0355 337.42 90.5967 339.519 90.5212V92.4428C337.102 92.4956 334.746 93.182 332.7 94.4291L330.472 102.504C334.384 100.565 338.768 99.6992 343.151 99.9993L342.972 101.921C342.972 101.921 333.346 101.165 329.603 105.829L327.375 114.076C333.569 109.369 344.799 108.398 344.822 108.398L345 110.298C345 110.298 330.182 111.593 326.261 118.092L319.086 144L317.058 143.417Z" fill="white"/>
<defs>
<linearGradient id="paint0_linear_44_23047" x1="562" y1="0" x2="129.019" y2="648.183" gradientUnits="userSpaceOnUse">
<stop stop-color="#D7B46A"/>
<stop offset="1" stop-color="#E9D09D"/>
</linearGradient>
<linearGradient id="paint1_linear_44_23047" x1="562" y1="0" x2="129.019" y2="648.183" gradientUnits="userSpaceOnUse">
<stop stop-color="#D7B46A"/>
<stop offset="1" stop-color="#E9D09D"/>
</linearGradient>
</defs>
</svg>
