<svg width="40" height="40" viewBox="0 0 40 40" fill="none" xmlns="http://www.w3.org/2000/svg">
<g clip-path="url(#clip0_48_7482)">
<rect x="18" y="24" width="4" height="4" fill="#DEBF7D"/>
<rect x="24" y="24" width="4" height="4" fill="#DEBF7D"/>
<rect x="30" y="24" width="4" height="4" fill="#DEBF7D"/>
<rect x="24" y="18" width="4" height="4" fill="#DEBF7D"/>
<rect x="30" y="18" width="4" height="4" fill="#DEBF7D"/>
<rect x="30" y="12" width="4" height="4" fill="#DEBF7D"/>
<rect x="30" y="6" width="4" height="4" fill="#DEBF7D"/>
<rect x="30" width="4" height="4" fill="#DEBF7D"/>
<rect x="36" width="4" height="4" fill="#DEBF7D"/>
<rect x="36" y="6" width="4" height="4" fill="#DEBF7D"/>
<rect x="28" y="10" width="4" height="4" transform="rotate(-180 28 10)" fill="#DEBF7D"/>
<rect x="22" y="10" width="4" height="4" transform="rotate(-180 22 10)" fill="#DEBF7D"/>
<rect x="16" y="10" width="4" height="4" transform="rotate(-180 16 10)" fill="#DEBF7D"/>
<rect x="22" y="16" width="4" height="4" transform="rotate(-180 22 16)" fill="#DEBF7D"/>
<rect x="16" y="16" width="4" height="4" transform="rotate(-180 16 16)" fill="#DEBF7D"/>
<rect x="16" y="22" width="4" height="4" transform="rotate(-180 16 22)" fill="#DEBF7D"/>
<rect x="16" y="28" width="4" height="4" transform="rotate(-180 16 28)" fill="#DEBF7D"/>
<rect x="6" y="30" width="4" height="4" fill="#DEBF7D"/>
<rect y="36" width="4" height="4" fill="#DEBF7D"/>
</g>
<defs>
<clipPath id="clip0_48_7482">
<rect width="40" height="40" fill="white"/>
</clipPath>
</defs>
</svg>
