<svg width="112" height="122" viewBox="0 0 112 122" fill="none" xmlns="http://www.w3.org/2000/svg">
<path d="M0 0H112V66C112 96.9279 86.9279 122 56 122C25.0721 122 0 96.9279 0 66V0Z" fill="url(#paint0_linear_44_23213)"/>
<g clip-path="url(#clip0_44_23213)">
<path fill-rule="evenodd" clip-rule="evenodd" d="M56.0578 20.0754C57.5334 20.9754 58.8794 22.0763 60.058 23.3472C61.281 24.6755 61.968 26.4182 61.984 28.2326C61.984 32.8671 59.195 36.4086 57.4023 38.6809C56.9613 39.204 56.5578 39.7582 56.1948 40.3393C56.1392 40.442 56.0456 40.5182 55.9345 40.5512C55.8234 40.5842 55.7039 40.5713 55.6022 40.5152C55.5303 40.4726 55.4703 40.412 55.4281 40.3393C55.0653 39.759 54.6631 39.2048 54.2243 38.6809C52.4316 36.4086 49.6426 32.8671 49.6426 28.2326C49.6586 26.4182 50.3456 24.6755 51.5686 23.3472C52.7488 22.0739 54.0974 20.9716 55.5763 20.0716C55.648 20.0249 55.7316 20 55.817 20C55.9024 20 55.986 20.0249 56.0578 20.0716V20.0754ZM59.3913 23.9312C58.3342 22.7848 57.128 21.7887 55.8059 20.9701C54.483 21.7876 53.2768 22.7839 52.2205 23.9312C51.139 25.099 50.5287 26.6332 50.5093 28.2326C50.5093 32.5602 53.1835 35.9518 54.8984 38.1306C55.2466 38.5723 55.5577 38.9654 55.8059 39.3136C56.0541 38.9654 56.3652 38.5648 56.7134 38.1306C58.4283 35.9518 61.1025 32.5602 61.1025 28.2326C61.0852 26.6342 60.4775 25.1001 59.3987 23.9312H59.3913Z" fill="white"/>
<path fill-rule="evenodd" clip-rule="evenodd" d="M56.3693 20.7479V28.9998C56.9828 31.2956 61.2211 32.8412 61.2362 32.8449L61.115 33.1578C61.115 33.1578 57.585 31.8761 56.3693 29.8405V32.8939C57.0965 34.6506 60.0204 35.1784 60.028 35.1821L59.9636 35.5101C59.9636 35.5101 57.4563 35.0577 56.3693 33.5725V36.5279C56.9904 37.3573 58.263 37.7229 58.263 37.7229L58.1683 38.0471C57.4993 37.8411 56.882 37.4954 56.3579 37.0331V40.5691H56.017V37.0331C55.4929 37.4954 54.8756 37.8411 54.2066 38.0471L54.1119 37.7229C54.1119 37.7229 55.3996 37.346 56.0057 36.5279V33.5725C54.9186 35.0577 52.4189 35.5101 52.4113 35.5101L52.3469 35.1821C52.3469 35.1821 55.2784 34.6506 56.0057 32.8939V29.8405C54.7899 31.8761 51.2712 33.154 51.2599 33.1578L51.1387 32.8449C51.1387 32.8449 55.3921 31.2956 56.0057 28.9998V20.7479H56.3693Z" fill="white"/>
<path fill-rule="evenodd" clip-rule="evenodd" d="M33.4123 26.3806C35.1701 26.413 36.9149 26.6866 38.5973 27.1934C40.3407 27.7279 41.8202 28.8903 42.7453 30.4525C45.0796 34.472 44.4046 38.9484 43.9709 41.8254C43.8474 42.496 43.7718 43.1745 43.7446 43.8557C43.7461 43.9141 43.736 43.9722 43.7148 44.0266C43.6936 44.0811 43.6617 44.1308 43.621 44.1729C43.5803 44.2151 43.5317 44.2488 43.4778 44.2722C43.424 44.2955 43.366 44.308 43.3072 44.309C43.2237 44.3092 43.1417 44.2872 43.0696 44.2453C42.462 43.9246 41.8319 43.6479 41.1842 43.4175C38.4578 42.3536 34.2155 40.6978 31.8813 36.6746V36.6484C30.9914 35.0757 30.7225 33.2302 31.1271 31.4714C31.5262 29.7694 32.1607 28.1306 33.0126 26.6016C33.0519 26.5257 33.1121 26.4625 33.1862 26.4194C33.2603 26.3763 33.3453 26.355 33.4311 26.3581L33.4123 26.3806ZM38.3145 28.0325C36.8045 27.5756 35.2392 27.3236 33.6612 27.2833C32.908 28.6615 32.3461 30.1346 31.9906 31.6624C31.6305 33.2127 31.8602 34.8404 32.6355 36.2326V36.2551C34.8151 40.0011 38.8801 41.5931 41.4896 42.6233C42.0213 42.8293 42.4927 43.0166 42.8886 43.1927C42.9301 42.7656 43.0055 42.2749 43.0885 41.7205C43.5071 38.9634 44.1557 34.6705 41.9761 30.9207C41.1594 29.5371 39.8502 28.5078 38.3069 28.0363L38.3145 28.0325Z" fill="white"/>
<path fill-rule="evenodd" clip-rule="evenodd" d="M33.4982 26.7317L37.6439 33.8328C39.3265 35.5034 43.7829 34.7372 43.7943 34.7335L43.8473 35.0623C43.8473 35.0623 40.1412 35.7014 38.0646 34.5541L39.6031 37.1702C41.1189 38.3176 43.9156 37.331 43.9231 37.3272L44.033 37.6449C44.033 37.6449 41.6343 38.4895 39.9404 37.7533L41.4259 40.291C42.3808 40.6946 43.6806 40.3769 43.6996 40.3769L43.7753 40.6984C43.0854 40.8625 42.3672 40.874 41.6722 40.732L43.4532 43.7705L43.1614 43.9349L41.3804 40.8964C41.1584 41.5516 40.798 42.1528 40.3231 42.6605L40.073 42.4362C40.073 42.4362 41.009 41.4795 41.1265 40.4629L39.641 37.9252C39.444 39.7378 37.5075 41.3599 37.4999 41.3673L37.2802 41.1132C37.2802 41.1132 39.5538 39.2109 39.2999 37.3422L37.7652 34.726C37.7349 37.0731 35.3286 39.9098 35.321 39.921L35.0595 39.7079C35.0595 39.7079 37.9698 36.277 37.3332 34.0009L33.1875 26.8999L33.4982 26.7317Z" fill="white"/>
<path fill-rule="evenodd" clip-rule="evenodd" d="M16.6201 43.0169C18.1404 42.1654 19.7711 41.5311 21.4654 41.1322C23.233 40.7192 25.0904 40.9882 26.6703 41.8861C30.6911 44.2194 32.3474 48.46 33.4154 51.1815C33.6455 51.8291 33.9223 52.459 34.2436 53.0662C34.2741 53.116 34.2944 53.1715 34.3034 53.2293C34.3124 53.2872 34.3098 53.3463 34.2959 53.4031C34.2819 53.4599 34.2568 53.5134 34.2221 53.5604C34.1874 53.6074 34.1437 53.647 34.0937 53.6768C34.0144 53.7269 33.9209 53.7494 33.8276 53.7409C33.1499 53.7711 32.4751 53.848 31.8078 53.9708C28.9299 54.4043 24.4519 55.079 20.4311 52.7458H20.4049C18.8533 51.8146 17.7008 50.337 17.171 48.5994C16.6639 46.9177 16.3903 45.1736 16.3578 43.4165C16.354 43.3263 16.3774 43.2369 16.4248 43.1603C16.4723 43.0836 16.5417 43.0231 16.6239 42.9868L16.6201 43.0169ZM21.634 42.0181C20.1056 42.3733 18.632 42.9351 17.2534 43.6879C17.2936 45.2653 17.5457 46.8299 18.0029 48.3393C18.4649 49.8728 19.4773 51.1787 20.8433 52.0032H20.8658C24.6131 54.1819 28.9112 53.5336 31.6692 53.134C32.2275 53.0511 32.7222 52.9757 33.1681 52.9342C32.992 52.5385 32.7934 52.0673 32.5985 51.5358C31.5793 48.9274 29.9754 44.8639 26.2281 42.6852C24.8328 41.8952 23.1945 41.6573 21.634 42.0181Z" fill="white"/>
<path fill-rule="evenodd" clip-rule="evenodd" d="M16.9137 43.187L23.9991 47.2052C26.2762 47.8076 29.6937 45.0014 29.7049 45.0014L29.918 45.2549C29.918 45.2549 27.0689 47.5945 24.7208 47.6239L27.3381 49.0931C29.2076 49.3392 31.1033 47.1428 31.1108 47.1391L31.3688 47.3448C31.3688 47.3448 29.7348 49.2327 27.9214 49.4237L30.4602 50.8635C31.4772 50.7496 32.4306 49.8461 32.4344 49.8424L32.6587 50.0848C32.1508 50.5451 31.5493 50.8944 30.8939 51.1095L33.9337 52.8358L33.7692 53.1186L30.7294 51.3924C30.8681 52.0584 30.8605 52.7459 30.7069 53.4088L30.3816 53.3353C30.3816 53.3353 30.6995 52.0718 30.2956 51.1316L27.7569 49.6918C28.5047 51.3336 27.6522 53.6512 27.6484 53.6586L27.3306 53.552C27.3306 53.552 28.3215 50.8304 27.1736 49.3612L24.5563 47.8737C25.7041 49.8865 25.0685 53.4676 25.0648 53.4786L24.7357 53.4272C24.7357 53.4272 25.506 49.1004 23.8346 47.466L16.7305 43.4478L16.9137 43.187Z" fill="white"/>
<path fill-rule="evenodd" clip-rule="evenodd" d="M10.0754 65.5685C10.9762 64.093 12.0782 62.7469 13.3503 61.5683C14.675 60.3496 16.4118 59.6629 18.2214 59.6423C22.8601 59.6423 26.4048 62.4313 28.6792 64.224C29.2028 64.665 29.7575 65.0685 30.3391 65.4315C30.4419 65.4871 30.5182 65.5807 30.5512 65.6918C30.5842 65.8029 30.5713 65.9224 30.5152 66.0241C30.4725 66.0961 30.4118 66.156 30.3391 66.1982C29.7582 66.561 29.2036 66.9632 28.6792 67.402C26.4048 69.1947 22.8601 71.9837 18.2214 71.9837C16.4118 71.9631 14.675 71.2764 13.3503 70.0577C12.0758 68.8775 10.9725 67.5289 10.0717 66.0501C10.0249 65.9783 10 65.8947 10 65.8093C10 65.7239 10.0249 65.6403 10.0717 65.5685H10.0754ZM13.9348 62.235C12.7874 63.2921 11.7903 64.4983 10.9709 65.8204C11.7893 67.1433 12.7864 68.3496 13.9348 69.4058C15.1036 70.4873 16.6393 71.0977 18.2401 71.117C22.5716 71.117 25.9664 68.4428 28.1471 66.7279C28.5892 66.3797 28.9827 66.0686 29.3311 65.8204C28.9827 65.5722 28.5817 65.2611 28.1471 64.913C25.9664 63.198 22.5716 60.5238 18.2401 60.5238C16.6403 60.5412 15.1047 61.1488 13.9348 62.2276V62.235Z" fill="white"/>
<path fill-rule="evenodd" clip-rule="evenodd" d="M10.748 66.0052H19C21.2957 65.3916 22.8413 61.1534 22.845 61.1382L23.1579 61.2594C23.1579 61.2594 21.8762 64.7894 19.8406 66.0052H22.8941C24.6507 65.278 25.1785 62.354 25.1823 62.3465L25.5102 62.4109C25.5102 62.4109 25.0579 64.9182 23.5726 66.0052H26.5281C27.3574 65.3841 27.7231 64.1115 27.7231 64.1115L28.0473 64.2061C27.8412 64.8752 27.4955 65.4924 27.0332 66.0166H30.5692V66.3575H27.0332C27.4955 66.8816 27.8412 67.4988 28.0473 68.1679L27.7231 68.2626C27.7231 68.2626 27.3461 66.9748 26.5281 66.3688H23.5726C25.0579 67.4559 25.5102 69.9556 25.5102 69.9632L25.1823 70.0276C25.1823 70.0276 24.6507 67.096 22.8941 66.3688H19.8406C21.8762 67.5846 23.1542 71.1033 23.1579 71.1146L22.845 71.2358C22.845 71.2358 21.2957 66.9824 19 66.3688H10.748V66.0052Z" fill="white"/>
<path fill-rule="evenodd" clip-rule="evenodd" d="M16.3802 88.9431C16.4144 87.1917 16.6879 85.4533 17.1931 83.7769C17.7276 82.0335 18.8899 80.5541 20.4521 79.6289C24.4716 77.2947 28.9481 77.9697 31.825 78.4033C32.4957 78.5268 33.1741 78.6024 33.8554 78.6296C33.9137 78.6281 33.9718 78.6383 34.0263 78.6595C34.0807 78.6807 34.1304 78.7126 34.1726 78.7532C34.2147 78.7939 34.2484 78.8426 34.2718 78.8964C34.2951 78.9503 34.3077 79.0083 34.3086 79.067C34.3089 79.1505 34.2869 79.2326 34.245 79.3046C33.9242 79.9122 33.6475 80.5423 33.4171 81.1901C32.3532 83.9165 30.6975 88.1588 26.6742 90.493H26.648C25.0753 91.3829 23.2299 91.6517 21.471 91.2472C19.7691 90.848 18.1302 90.2135 16.6012 89.3617C16.5253 89.3224 16.4621 89.2621 16.419 89.188C16.3759 89.1139 16.3546 89.029 16.3577 88.9431H16.3802ZM18.0322 84.0409C17.5752 85.5509 17.3232 87.1162 17.283 88.6942C18.6611 89.4474 20.1342 90.0093 21.6621 90.3648C23.2123 90.7248 24.8401 90.4952 26.2322 89.7199H26.2547C30.0007 87.5403 31.5928 83.4753 32.6229 80.862C32.829 80.3341 33.0163 79.8627 33.1923 79.4668C32.7653 79.4253 32.2745 79.3499 31.7201 79.2669C28.9631 78.8483 24.6701 78.1997 20.9204 80.3982C19.5389 81.2096 18.5088 82.5116 18.0322 84.0484V84.0409Z" fill="white"/>
<path fill-rule="evenodd" clip-rule="evenodd" d="M32.4381 82.3084C32.4381 82.3084 31.4809 81.3707 30.4639 81.2531L27.9251 82.7411C29.7385 82.9385 31.3613 84.8784 31.3688 84.886L31.1145 85.1061C31.1145 85.1061 29.2113 82.8285 27.3418 83.0828L24.7245 84.6012C27.0726 84.6316 29.9105 87.0421 29.9217 87.0497L29.7086 87.3117C29.7086 87.3117 26.2762 84.3963 23.9991 85.034L16.895 89.187L16.7305 88.8947L23.8346 84.7417C25.506 83.0562 24.7395 78.592 24.7357 78.5806L25.0648 78.5274C25.0648 78.5274 25.7041 82.24 24.5563 84.3203L27.1736 82.7791C28.3215 81.2607 27.3343 78.4591 27.3306 78.4515L27.6484 78.3414C27.6484 78.3414 28.4934 80.7482 27.7531 82.4413L30.2956 80.9532C30.6995 79.9965 30.3816 78.6945 30.3816 78.6755L30.7032 78.5996C30.8616 79.284 30.8705 79.9953 30.7294 80.6836L33.7692 78.8995L33.9337 79.1918L30.8939 80.9759C31.5493 81.1983 32.1508 81.5593 32.6587 82.0351L32.4381 82.3084Z" fill="white"/>
<path fill-rule="evenodd" clip-rule="evenodd" d="M33.0172 105.38C32.1657 103.859 31.5314 102.229 31.1325 100.534C30.7194 98.7668 30.9884 96.9094 31.8864 95.3294C34.2196 91.3086 38.4602 89.6523 41.1817 88.5843C41.8291 88.3535 42.4589 88.0767 43.0664 87.7562C43.1163 87.7257 43.1717 87.7053 43.2296 87.6963C43.2874 87.6874 43.3465 87.6899 43.4033 87.7039C43.4602 87.7178 43.5137 87.7429 43.5607 87.7776C43.6077 87.8123 43.6472 87.856 43.6771 87.9061C43.7272 87.9854 43.7497 88.0789 43.7411 88.1721C43.7714 88.8498 43.8482 89.5246 43.9711 90.1919C44.4046 93.0698 45.0793 97.5478 42.746 101.569V101.595C41.8149 103.146 40.3372 104.299 38.5997 104.829C36.9179 105.336 35.1738 105.609 33.4167 105.642C33.3265 105.646 33.2372 105.622 33.1605 105.575C33.0839 105.527 33.0234 105.458 32.987 105.376L33.0172 105.38ZM32.0183 100.366C32.3695 101.891 32.9261 103.362 33.6731 104.739C35.2504 104.699 36.8151 104.446 38.3245 103.989C39.858 103.527 41.1639 102.515 41.9884 101.149V101.126C44.1671 97.3792 43.5187 93.0811 43.1003 90.3231C43.0174 89.7647 42.942 89.2701 42.9006 88.8242C42.5048 89.0003 42.0336 89.1989 41.5021 89.3937C38.8937 90.413 34.8303 92.0168 32.6516 95.7641C31.866 97.164 31.6348 98.8051 32.0032 100.366H32.0183Z" fill="white"/>
<path fill-rule="evenodd" clip-rule="evenodd" d="M33.1875 105.104L37.3405 98.0105C37.963 95.7347 35.0628 92.3097 35.0628 92.2985L35.3247 92.0851C35.3247 92.0851 37.7428 94.9374 37.7732 97.288L39.3106 94.6679C39.565 92.7963 37.2949 90.8986 37.2911 90.8911L37.5037 90.6328C37.5037 90.6328 39.4549 92.2686 39.6523 94.084L41.1404 91.5424C41.0189 90.5205 40.0888 89.5698 40.0851 89.566L40.3356 89.3415C40.8113 89.8499 41.1723 90.4521 41.3947 91.1082L43.1789 88.0651L43.4712 88.2298L41.687 91.2729C42.3754 91.134 43.0859 91.1416 43.7711 91.2953L43.6952 91.621C43.6952 91.621 42.3893 91.3028 41.4175 91.7071L39.9332 94.2486C41.6301 93.5 44.0254 94.3535 44.033 94.3572L43.9229 94.6754C43.9229 94.6754 41.11 93.6834 39.5954 94.8326L38.0541 97.4527C40.1344 96.3036 43.8356 96.9399 43.847 96.9437L43.7939 97.2731C43.7939 97.2731 39.3182 96.502 37.6328 98.1751L33.4798 105.268L33.1875 105.104Z" fill="white"/>
<path fill-rule="evenodd" clip-rule="evenodd" d="M55.5689 111.925C54.0933 111.025 52.7472 109.924 51.5686 108.653C50.3456 107.324 49.6586 105.582 49.6426 103.767C49.6426 99.1329 52.4316 95.5915 54.2243 93.3191C54.6653 92.796 55.0688 92.2418 55.4318 91.6607C55.4874 91.558 55.581 91.4818 55.6921 91.4488C55.8032 91.4158 55.9227 91.4288 56.0244 91.4848C56.0964 91.5275 56.1563 91.588 56.1985 91.6607C56.5613 92.241 56.9635 92.7952 57.4023 93.3191C59.195 95.5915 61.984 99.1329 61.984 103.767C61.968 105.582 61.281 107.324 60.058 108.653C58.8779 109.926 57.5292 111.028 56.0504 111.928C55.9786 111.975 55.895 112 55.8096 112C55.7242 112 55.6406 111.975 55.5689 111.928V111.925ZM52.2353 108.069C53.2925 109.215 54.4986 110.211 55.8207 111.03C57.1429 110.211 58.349 109.215 59.4061 108.069C60.4876 106.901 61.098 105.367 61.1173 103.767C61.1173 99.4399 58.4431 96.0482 56.7282 93.8694C56.38 93.4277 56.0689 93.0346 55.8207 92.6865C55.5726 93.0346 55.2614 93.4352 54.9133 93.8694C53.1983 96.0482 50.5241 99.4399 50.5241 103.767C50.5414 105.366 51.1491 106.9 52.2279 108.069H52.2353Z" fill="white"/>
<path fill-rule="evenodd" clip-rule="evenodd" d="M56.0057 111.626V103.374C55.3921 101.078 51.1538 99.5328 51.1387 99.5291L51.2599 99.2162C51.2599 99.2162 54.7899 100.498 56.0057 102.534V99.4801C55.2784 97.7234 52.3545 97.1956 52.3469 97.1919L52.4113 96.8639C52.4113 96.8639 54.9186 97.3162 56.0057 98.8015V95.8461C55.3845 95.0167 54.1119 94.6511 54.1119 94.6511L54.2066 94.3269C54.8756 94.5329 55.4929 94.8786 56.017 95.3409V91.8049H56.3579V95.3409C56.882 94.8786 57.4993 94.5329 58.1683 94.3269L58.263 94.6511C58.263 94.6511 56.9753 95.028 56.3693 95.8461V98.8015C57.4563 97.3162 59.956 96.8639 59.9636 96.8639L60.028 97.1919C60.028 97.1919 57.0965 97.7234 56.3693 99.4801V102.534C57.585 100.498 61.1037 99.22 61.115 99.2162L61.2362 99.5291C61.2362 99.5291 56.9828 101.078 56.3693 103.374V111.626H56.0057Z" fill="white"/>
<path fill-rule="evenodd" clip-rule="evenodd" d="M78.9613 105.994C77.2035 105.961 75.4587 105.687 73.7763 105.181C72.0329 104.646 70.5534 103.484 69.6282 101.922C67.294 97.9021 67.969 93.4256 68.4027 90.5487C68.5261 89.878 68.6018 89.1996 68.6289 88.5183C68.6274 88.46 68.6376 88.4019 68.6588 88.3474C68.68 88.293 68.7119 88.2433 68.7526 88.2011C68.7932 88.159 68.8419 88.1253 68.8957 88.1019C68.9496 88.0786 69.0076 88.066 69.0664 88.0651C69.1499 88.0648 69.2319 88.0868 69.3039 88.1288C69.9115 88.4495 70.5417 88.7262 71.1894 88.9566C73.9158 90.0205 78.1581 91.6762 80.4923 95.6995V95.7257C81.3822 97.2984 81.651 99.1438 81.2465 100.903C80.8474 102.605 80.2128 104.243 79.361 105.772C79.3217 105.848 79.2615 105.912 79.1873 105.955C79.1132 105.998 79.0283 106.019 78.9425 106.016L78.9613 105.994ZM74.0591 104.342C75.5691 104.798 77.1344 105.051 78.7124 105.091C79.4656 103.713 80.0275 102.24 80.383 100.712C80.7433 99.161 80.5122 97.5327 79.7343 96.1415V96.119C77.5547 92.373 73.4897 90.7809 70.8764 89.7508C70.3485 89.5447 69.8771 89.3574 69.4812 89.1814C69.4397 89.6084 69.3643 90.0992 69.2813 90.6498C68.8627 93.4069 68.2141 97.6998 70.3937 101.45C71.2106 102.835 72.5213 103.866 74.0666 104.338L74.0591 104.342Z" fill="white"/>
<path fill-rule="evenodd" clip-rule="evenodd" d="M78.895 105.268L74.7421 98.1752C73.0566 96.487 68.581 97.2693 68.581 97.2731L68.5278 96.9437C68.5278 96.9437 72.2404 96.3036 74.3207 97.4527L72.7795 94.8326C71.261 93.6834 68.4595 94.6716 68.4519 94.6754L68.3418 94.3572C68.3418 94.3572 70.7448 93.5113 72.4416 94.2486L70.9535 91.7071C69.9969 91.3028 68.6948 91.621 68.6759 91.621L68.5999 91.2991C69.2844 91.1405 69.9957 91.1316 70.684 91.2729L68.8998 88.2298L69.1921 88.0651L70.9763 91.1082C71.1987 90.4521 71.5597 89.8499 72.0354 89.3415L72.286 89.566C72.286 89.566 71.3483 90.5243 71.2307 91.5424L72.7187 94.084C72.9161 92.2686 74.8559 90.6441 74.8635 90.6366L75.0837 90.8911C75.0837 90.8911 72.806 92.7963 73.0604 94.6679L74.5978 97.288C74.6282 94.9374 77.0387 92.0964 77.0463 92.0851L77.3082 92.2985C77.3082 92.2985 74.3928 95.7347 75.0306 98.0142L79.1873 105.096L78.895 105.268Z" fill="white"/>
<path fill-rule="evenodd" clip-rule="evenodd" d="M79.3564 26.6205C80.2079 28.1407 80.8422 29.7715 81.2411 31.4657C81.6542 33.2334 81.3851 35.0907 80.4872 36.6707C78.1539 40.6915 73.9134 42.3478 71.1919 43.4158C70.5442 43.6459 69.9143 43.9227 69.3072 44.2439C69.2573 44.2744 69.2018 44.2948 69.144 44.3038C69.0861 44.3127 69.0271 44.3102 68.9702 44.2962C68.9134 44.2823 68.8599 44.2572 68.8129 44.2225C68.7659 44.1878 68.7264 44.1441 68.6965 44.094C68.6464 44.0147 68.6239 43.9212 68.6324 43.828C68.6022 43.1503 68.5254 42.4755 68.4025 41.8082C67.969 38.9303 67.2943 34.4523 69.6276 30.4315V30.4053C70.5587 28.8536 72.0364 27.7011 73.7739 27.1713C75.4556 26.6643 77.1998 26.3907 78.9568 26.3582C79.0471 26.3544 79.1364 26.3777 79.213 26.4252C79.2897 26.4727 79.3502 26.542 79.3865 26.6243L79.3564 26.6205ZM80.3553 31.6344C79.9993 30.1086 79.4376 28.6376 78.6854 27.2613C77.108 27.3015 75.5434 27.5536 74.034 28.0107C72.5005 28.4728 71.1946 29.4852 70.3701 30.8512V30.8737C68.1914 34.6209 68.8398 38.9191 69.2582 41.677C69.3411 42.2354 69.4165 42.73 69.4579 43.176C69.8349 42.9998 70.3249 42.8012 70.8564 42.6064C73.4648 41.5871 77.5282 39.9833 79.7069 36.236C80.4925 34.8361 80.7237 33.195 80.3553 31.6344Z" fill="white"/>
<path fill-rule="evenodd" clip-rule="evenodd" d="M79.1873 26.9149L75.0315 33.9966C74.4085 36.2699 77.3107 39.6912 77.3107 39.7024L77.0486 39.9155C77.0486 39.9155 74.6288 37.0664 74.5984 34.7182L73.0599 37.3356C72.8054 39.2051 75.077 41.1008 75.0808 41.1082L74.8681 41.3662C74.8681 41.3662 72.9155 39.7323 72.718 37.9189L71.2327 40.4614C71.3542 41.4784 72.2849 42.4319 72.2887 42.4356L72.038 42.6599C71.5619 42.152 71.2007 41.5505 70.9781 40.8951L69.1927 43.9349L68.9002 43.7704L70.6856 40.7306C69.9968 40.8693 69.2857 40.8617 68.6001 40.7082L68.6761 40.3829C68.6761 40.3829 69.9829 40.7007 70.9554 40.2969L72.4445 37.7581C70.7464 38.5059 68.3494 37.6534 68.3418 37.6496L68.452 37.3318C68.452 37.3318 71.2669 38.3227 72.7826 37.1748L74.3249 34.5575C72.2431 35.7054 68.5393 35.0697 68.5279 35.066L68.5811 34.7369C68.5811 34.7369 73.0599 35.5072 74.7465 33.8358L78.9024 26.7317L79.1873 26.9149Z" fill="white"/>
<path fill-rule="evenodd" clip-rule="evenodd" d="M33.4779 56.1335C33.4987 56.0872 33.5286 56.0454 33.5661 56.0104C33.6036 55.9754 33.6479 55.9478 33.6965 55.9293C33.745 55.9108 33.7969 55.9016 33.8491 55.9025C33.9013 55.9033 33.9528 55.914 34.0007 55.934C34.0486 55.954 34.0919 55.9829 34.1283 56.0191C34.1646 56.0553 34.1931 56.098 34.2123 56.1448C34.2315 56.1917 34.241 56.2417 34.2402 56.292C34.2393 56.3424 34.2282 56.3921 34.2075 56.4383C32.8151 59.5249 32.1018 62.8566 32.1124 66.2228C32.1239 69.5691 32.8601 72.8762 34.2738 75.9321C34.3167 76.0249 34.3197 76.1304 34.282 76.2253C34.2443 76.3202 34.1691 76.3968 34.0729 76.4382C33.9766 76.4797 33.8673 76.4825 33.7689 76.4462C33.6705 76.4098 33.5911 76.3373 33.5481 76.2444C32.0881 73.0905 31.328 69.6769 31.3166 66.2228C31.3041 62.7515 32.0402 59.3157 33.4779 56.1335Z" fill="white"/>
<path fill-rule="evenodd" clip-rule="evenodd" d="M61.8747 87.6831C61.8484 87.6906 61.8208 87.6928 61.7936 87.6896C61.7664 87.6864 61.7401 87.6778 61.7162 87.6643C61.6923 87.6509 61.6712 87.6328 61.6543 87.6112C61.6373 87.5895 61.6247 87.5647 61.6173 87.5381C61.6098 87.5116 61.6076 87.4838 61.6108 87.4564C61.614 87.429 61.6225 87.4025 61.6359 87.3784C61.6492 87.3543 61.6672 87.3332 61.6887 87.316C61.7102 87.2989 61.7348 87.2863 61.7611 87.2788C65.5375 86.2353 68.9736 84.2064 71.7225 81.3969C71.7417 81.3771 71.7645 81.3613 71.7897 81.3504C71.8149 81.3395 71.842 81.3337 71.8694 81.3333C71.8968 81.333 71.924 81.3381 71.9495 81.3483C71.975 81.3586 71.9982 81.3738 72.0178 81.393C72.0375 81.4123 72.0532 81.4353 72.064 81.4607C72.0748 81.4861 72.0806 81.5134 72.0809 81.541C72.0813 81.5686 72.0762 81.5961 72.066 81.6217C72.0559 81.6474 72.0408 81.6708 72.0216 81.6906C69.2201 84.5509 65.7205 86.6177 61.8747 87.6831Z" fill="white"/>
<path fill-rule="evenodd" clip-rule="evenodd" d="M77.7644 71.8263C77.7587 71.853 77.7482 71.8781 77.7333 71.9003C77.7184 71.9224 77.6995 71.941 77.6777 71.9551C77.656 71.9691 77.6319 71.9782 77.6068 71.9819C77.5817 71.9856 77.5562 71.9837 77.5318 71.9764C77.4831 71.9623 77.4415 71.928 77.4161 71.8809C77.3907 71.8338 77.3836 71.7777 77.3964 71.725C77.8467 69.8516 78.0685 67.9225 78.0561 65.987C78.0462 64.0577 77.7999 62.1383 77.3235 60.279C77.3166 60.2526 77.3147 60.225 77.3179 60.1979C77.321 60.1707 77.3291 60.1445 77.3417 60.1207C77.3543 60.097 77.3712 60.0762 77.3913 60.0595C77.4114 60.0429 77.4344 60.0307 77.4589 60.0238C77.483 60.0164 77.5083 60.0144 77.5332 60.0179C77.5581 60.0213 77.5821 60.0301 77.6038 60.0437C77.6255 60.0574 77.6445 60.0756 77.6595 60.0973C77.6746 60.119 77.6855 60.1438 77.6915 60.1701C78.662 63.9812 78.6871 68.0013 77.7644 71.8263Z" fill="white"/>
<path fill-rule="evenodd" clip-rule="evenodd" d="M71.6433 49.9444C71.6628 49.963 71.6784 49.9852 71.6891 50.0097C71.6999 50.0341 71.7056 50.0605 71.7059 50.0871C71.7063 50.1138 71.7012 50.1402 71.6911 50.165C71.6811 50.1897 71.6661 50.2123 71.6471 50.2314C71.6281 50.2504 71.6054 50.2657 71.5804 50.2762C71.5554 50.2867 71.5285 50.2923 71.5013 50.2926C71.4741 50.293 71.4471 50.2881 71.4218 50.2782C71.3965 50.2683 71.3735 50.2536 71.354 50.235C69.9737 48.9023 68.4213 47.752 66.7362 46.8136C65.0565 45.8846 63.2587 45.177 61.3896 44.7092C61.3362 44.6955 61.2907 44.6617 61.2628 44.6151C61.235 44.5685 61.2272 44.5131 61.2411 44.4609C61.2551 44.4087 61.2896 44.364 61.3372 44.3368C61.3848 44.3095 61.4414 44.3019 61.4948 44.3155C63.3983 44.8004 65.2287 45.5277 66.9391 46.4788C68.6541 47.4293 70.2354 48.5943 71.6433 49.9444Z" fill="white"/>
<path fill-rule="evenodd" clip-rule="evenodd" d="M50.1241 44.3168C50.1774 44.3017 50.2344 44.3084 50.2827 44.3356C50.331 44.3628 50.3666 44.4081 50.3816 44.4617C50.3967 44.5153 50.39 44.5728 50.363 44.6214C50.336 44.67 50.291 44.7059 50.2377 44.721C46.4596 45.7635 43.0223 47.7934 40.2744 50.6048C40.2551 50.6244 40.2321 50.6399 40.2067 50.6506C40.1814 50.6612 40.1542 50.6666 40.1268 50.6666C40.0993 50.6666 40.0721 50.6612 40.0468 50.6506C40.0214 50.6399 39.9984 50.6244 39.9791 50.6048C39.9597 50.5856 39.9443 50.5628 39.9339 50.5376C39.9234 50.5124 39.918 50.4853 39.918 50.458C39.918 50.4306 39.9234 50.4036 39.9339 50.3784C39.9443 50.3532 39.9597 50.3303 39.9791 50.3112C41.3702 48.8868 42.9429 47.6546 44.6559 46.6467C46.3696 45.6326 48.208 44.8493 50.1241 44.3168Z" fill="white"/>
<path fill-rule="evenodd" clip-rule="evenodd" d="M34.243 60.1929C34.2469 60.1643 34.2562 60.1369 34.2706 60.1124C34.2849 60.088 34.3038 60.067 34.3261 60.051C34.3484 60.0349 34.3736 60.0241 34.4 60.0192C34.4265 60.0143 34.4535 60.0155 34.4795 60.0226C34.5055 60.0297 34.5298 60.0427 34.5509 60.0606C34.5719 60.0786 34.5893 60.101 34.6017 60.1267C34.6142 60.1523 34.6215 60.1804 34.6232 60.2093C34.6249 60.2381 34.621 60.267 34.6117 60.2941C34.1609 62.167 33.9376 64.095 33.9474 66.0299C33.9581 67.9568 34.2037 69.8739 34.6777 71.7318C34.6887 71.7836 34.6806 71.838 34.6553 71.8836C34.6299 71.9291 34.5892 71.9624 34.5417 71.9764C34.4942 71.9904 34.4434 71.9841 34.4001 71.9588C34.3568 71.9335 34.3242 71.8911 34.3091 71.8406C33.3364 68.0323 33.3112 64.015 34.2361 60.1929H34.243Z" fill="white"/>
<path fill-rule="evenodd" clip-rule="evenodd" d="M40.3673 82.0631C40.3453 82.0453 40.3274 82.0232 40.3147 81.9983C40.3019 81.9734 40.2946 81.9462 40.2932 81.9183C40.2918 81.8905 40.2964 81.8627 40.3066 81.8367C40.3167 81.8107 40.3324 81.787 40.3524 81.7672C40.3725 81.7474 40.3965 81.7318 40.4231 81.7215C40.4496 81.7113 40.478 81.7065 40.5065 81.7075C40.5351 81.7085 40.5631 81.7152 40.5888 81.7274C40.6145 81.7395 40.6373 81.7567 40.6559 81.7778C43.4201 84.4384 46.8535 86.3419 50.6108 87.2969C50.6371 87.3033 50.6618 87.3147 50.6835 87.3306C50.7052 87.3464 50.7234 87.3664 50.737 87.3892C50.7507 87.4121 50.7595 87.4374 50.7629 87.4636C50.7663 87.4898 50.7643 87.5165 50.757 87.5419C50.7429 87.5933 50.7086 87.637 50.6616 87.6638C50.6145 87.6905 50.5585 87.698 50.5059 87.6846C46.6848 86.7154 43.1938 84.7787 40.386 82.0704L40.3673 82.0631Z" fill="white"/>
<path fill-rule="evenodd" clip-rule="evenodd" d="M56.007 20.0001C66.6501 20.0017 76.9634 23.6939 85.1893 30.4475C93.4152 37.2011 99.0446 46.5982 101.118 57.0374C103.192 67.4766 101.582 78.3118 96.5616 87.6967C91.5416 97.0816 83.4226 104.435 73.5882 108.505C63.7537 112.574 52.8124 113.107 42.6288 110.014C32.4453 106.92 23.6496 100.391 17.7406 91.5385C11.8317 82.6863 9.17524 72.059 10.2239 61.4677C11.2726 50.8763 15.9615 40.9763 23.4916 33.4547C27.7583 29.1813 32.8272 25.7928 38.4071 23.4839C43.9871 21.1749 49.9682 19.991 56.007 20.0001ZM87.7038 34.3068C80.3705 26.9736 70.7214 22.4099 60.4005 21.3935C50.0796 20.377 39.7256 22.9706 31.1026 28.7324C22.4796 34.4941 16.1212 43.0676 13.1107 52.9918C10.1003 62.9161 10.6241 73.5772 14.5929 83.1586C18.5617 92.74 25.7299 100.649 34.8762 105.538C44.0225 110.426 54.5809 111.992 64.7524 109.969C74.924 107.946 84.0793 102.458 90.6584 94.4414C97.2375 86.4246 100.833 76.3746 100.833 66.0038C100.841 60.1159 99.6857 54.2844 97.4325 48.8448C95.1792 43.4051 91.873 38.4644 87.7038 34.3068Z" fill="white"/>
<path fill-rule="evenodd" clip-rule="evenodd" d="M80.4418 31.3861C80.4088 31.3646 80.3805 31.3366 80.3585 31.3038C80.3366 31.271 80.3214 31.2341 80.3139 31.1952C80.3064 31.1563 80.3068 31.1163 80.3151 31.0776C80.3233 31.0389 80.3392 31.0023 80.3618 30.9699C80.3844 30.9375 80.4133 30.9101 80.4467 30.8893C80.48 30.8685 80.5173 30.8547 80.556 30.8488C80.5948 30.8428 80.6344 30.8449 80.6724 30.8548C80.7104 30.8647 80.746 30.8822 80.7771 30.9063C84.6175 33.6436 87.9797 37.0069 90.7261 40.8582C90.7482 40.8892 90.764 40.9243 90.7726 40.9615C90.7812 40.9986 90.7825 41.0371 90.7763 41.0748C90.7701 41.1125 90.7567 41.1485 90.7367 41.1809C90.7167 41.2133 90.6905 41.2414 90.6598 41.2636C90.5969 41.3078 90.5193 41.3256 90.4437 41.3131C90.368 41.3006 90.3001 41.2588 90.2545 41.1967C87.548 37.3988 84.2328 34.0831 80.4455 31.3861H80.4418Z" fill="white"/>
<path fill-rule="evenodd" clip-rule="evenodd" d="M94.1726 48.4652C94.1413 48.3947 94.138 48.3142 94.1635 48.2412C94.189 48.1682 94.2412 48.1088 94.3086 48.0761C94.3759 48.0433 94.453 48.0399 94.5228 48.0666C94.5926 48.0932 94.6494 48.1478 94.6807 48.2182C96.5949 52.5519 97.8042 57.1891 98.259 61.9389C98.2625 61.9772 98.2588 62.0159 98.248 62.0527C98.2373 62.0895 98.2197 62.1238 98.1963 62.1535C98.1728 62.1832 98.144 62.2078 98.1115 62.2258C98.079 62.2439 98.0434 62.2551 98.0067 62.2588C97.9701 62.2625 97.9331 62.2586 97.8979 62.2473C97.8627 62.2361 97.8299 62.2177 97.8015 62.1932C97.7731 62.1687 97.7496 62.1386 97.7323 62.1046C97.715 62.0706 97.7043 62.0333 97.7008 61.995C97.2486 57.312 96.0563 52.74 94.1726 48.4652Z" fill="white"/>
<path fill-rule="evenodd" clip-rule="evenodd" d="M98.0599 69.6315C98.0667 69.5545 98.1034 69.4833 98.1619 69.4337C98.2203 69.3841 98.2958 69.3601 98.3717 69.367C98.4476 69.3739 98.5177 69.4112 98.5665 69.4706C98.6154 69.53 98.639 69.6066 98.6322 69.6837C98.2089 74.4163 97.0099 79.0438 95.0846 83.3751C95.0718 83.4144 95.0511 83.4504 95.0237 83.481C94.9963 83.5116 94.9629 83.5359 94.9256 83.5525C94.8883 83.5691 94.848 83.5775 94.8073 83.5772C94.7666 83.5769 94.7265 83.568 94.6894 83.5509C94.6524 83.5338 94.6193 83.5089 94.5923 83.478C94.5654 83.447 94.5451 83.4106 94.5329 83.3712C94.5207 83.3318 94.5168 83.2902 94.5214 83.2492C94.5261 83.2081 94.5392 83.1685 94.56 83.133C96.4563 78.8609 97.6391 74.298 98.0599 69.6315Z" fill="white"/>
<path fill-rule="evenodd" clip-rule="evenodd" d="M90.2527 90.4228C90.299 90.3631 90.3668 90.3235 90.4418 90.3122C90.5169 90.3009 90.5935 90.3188 90.6555 90.3622C90.7176 90.4056 90.7603 90.4711 90.7748 90.545C90.7892 90.6189 90.7743 90.6955 90.7331 90.7587C87.9922 94.6063 84.6245 97.9748 80.768 100.726C80.737 100.748 80.7018 100.764 80.6646 100.773C80.6274 100.782 80.5888 100.783 80.5511 100.777C80.5134 100.77 80.4773 100.757 80.4449 100.737C80.4124 100.717 80.3843 100.691 80.3621 100.66C80.3178 100.597 80.3 100.519 80.3125 100.443C80.325 100.368 80.3668 100.3 80.4291 100.254C84.2323 97.5411 87.5524 94.2185 90.2527 90.4228Z" fill="white"/>
<path fill-rule="evenodd" clip-rule="evenodd" d="M73.5352 104.172C73.6056 104.141 73.6862 104.138 73.7592 104.163C73.8322 104.189 73.8916 104.241 73.9243 104.308C73.9571 104.376 73.9605 104.453 73.9338 104.523C73.9072 104.592 73.8526 104.649 73.7821 104.681C69.4485 106.595 64.8113 107.804 60.0615 108.259C60.0232 108.262 59.9845 108.259 59.9477 108.248C59.9108 108.237 59.8766 108.22 59.8469 108.196C59.8172 108.173 59.7926 108.144 59.7745 108.111C59.7565 108.079 59.7453 108.043 59.7416 108.007C59.7379 107.97 59.7418 107.933 59.7531 107.898C59.7643 107.863 59.7827 107.83 59.8072 107.801C59.8317 107.773 59.8618 107.749 59.8958 107.732C59.9298 107.715 59.967 107.704 60.0054 107.701C64.6883 107.248 69.2604 106.056 73.5352 104.172Z" fill="white"/>
<path fill-rule="evenodd" clip-rule="evenodd" d="M52.3665 108.057C52.4048 108.06 52.4421 108.071 52.4762 108.089C52.5102 108.106 52.5405 108.131 52.5651 108.16C52.5898 108.189 52.6084 108.222 52.6199 108.259C52.6314 108.295 52.6355 108.333 52.6321 108.371C52.6286 108.409 52.6177 108.445 52.5999 108.479C52.582 108.513 52.5576 108.543 52.5281 108.567C52.4986 108.591 52.4645 108.61 52.4278 108.621C52.3911 108.632 52.3524 108.636 52.3141 108.633C47.5622 108.207 42.9158 107 38.5668 105.063C38.5041 105.026 38.4574 104.968 38.4355 104.9C38.4136 104.831 38.4182 104.757 38.4484 104.691C38.4785 104.626 38.5321 104.574 38.5989 104.545C38.6656 104.516 38.7408 104.512 38.81 104.535C43.0995 106.443 47.6809 107.634 52.3665 108.057Z" fill="white"/>
<path fill-rule="evenodd" clip-rule="evenodd" d="M31.5764 100.253C31.6361 100.299 31.6757 100.367 31.687 100.442C31.6983 100.517 31.6804 100.594 31.6369 100.656C31.5935 100.718 31.528 100.761 31.4541 100.775C31.3802 100.79 31.3036 100.775 31.2403 100.733C29.3202 99.3639 27.5156 97.8369 25.8448 96.1679C24.1744 94.4995 22.6451 92.6934 21.2729 90.7683C21.2508 90.7372 21.235 90.7021 21.2263 90.6649C21.2177 90.6277 21.2164 90.5891 21.2226 90.5514C21.2288 90.5137 21.2423 90.4776 21.2623 90.4452C21.2823 90.4127 21.3085 90.3846 21.3394 90.3624C21.4024 90.3181 21.4801 90.3003 21.556 90.3128C21.6318 90.3253 21.6998 90.3671 21.7456 90.4294C24.4581 94.2323 27.7806 97.5524 31.5764 100.253Z" fill="white"/>
<path fill-rule="evenodd" clip-rule="evenodd" d="M17.4666 83.5917C17.4812 83.657 17.4739 83.7255 17.4459 83.7859C17.4179 83.8462 17.3709 83.8947 17.3127 83.9233C17.2546 83.9519 17.1888 83.9588 17.1264 83.9429C17.0639 83.927 17.0086 83.8892 16.9696 83.8358C15.0433 79.4855 13.8262 74.8304 13.3685 70.0624C13.3649 70.0239 13.3687 69.9851 13.3795 69.9481C13.3904 69.9111 13.4081 69.8768 13.4317 69.847C13.4552 69.8171 13.4842 69.7924 13.5169 69.7743C13.5496 69.7562 13.5855 69.7449 13.6224 69.7412C13.6592 69.7375 13.6965 69.7414 13.7319 69.7527C13.7674 69.764 13.8003 69.7825 13.8289 69.8071C13.8575 69.8317 13.8812 69.8619 13.8985 69.896C13.9159 69.9302 13.9267 69.9675 13.9303 70.006C14.3853 74.707 15.5852 79.2967 17.481 83.5879L17.4666 83.5917Z" fill="white"/>
<path fill-rule="evenodd" clip-rule="evenodd" d="M13.9406 61.9945C13.9373 62.0326 13.9265 62.0697 13.909 62.1037C13.8915 62.1376 13.8676 62.1677 13.8387 62.1923C13.8097 62.2169 13.7763 62.2354 13.7403 62.2468C13.7043 62.2583 13.6664 62.2624 13.6288 62.259C13.5912 62.2556 13.5547 62.2447 13.5213 62.2269C13.4878 62.2091 13.4582 62.1848 13.434 62.1554C13.4098 62.126 13.3916 62.0921 13.3803 62.0555C13.369 62.0189 13.365 61.9805 13.3683 61.9423C13.7916 57.2097 14.9907 52.5822 16.916 48.2509C16.9287 48.2116 16.9494 48.1756 16.9768 48.145C17.0042 48.1144 17.0376 48.0901 17.0749 48.0735C17.1122 48.0569 17.1525 48.0485 17.1932 48.0488C17.2339 48.0491 17.2741 48.058 17.3111 48.0751C17.3482 48.0922 17.3813 48.1171 17.4082 48.148C17.4352 48.179 17.4554 48.2153 17.4677 48.2548C17.4799 48.2942 17.4838 48.3358 17.4791 48.3768C17.4744 48.4179 17.4613 48.4575 17.4406 48.493C15.5443 52.7651 14.3615 57.328 13.9406 61.9945Z" fill="white"/>
<path fill-rule="evenodd" clip-rule="evenodd" d="M21.3731 41.5771C21.3268 41.6367 21.2591 41.6764 21.184 41.6877C21.1089 41.699 21.0324 41.681 20.9703 41.6376C20.9083 41.5942 20.8655 41.5287 20.8511 41.4548C20.8366 41.3809 20.8515 41.3044 20.8927 41.2411C23.6337 37.3936 27.0014 34.025 30.8579 31.2736C30.8889 31.2514 30.924 31.2356 30.9612 31.227C30.9985 31.2184 31.037 31.2171 31.0747 31.2233C31.1124 31.2294 31.1485 31.2429 31.181 31.263C31.2134 31.283 31.2416 31.3092 31.2638 31.34C31.3081 31.403 31.3259 31.4807 31.3133 31.5565C31.3008 31.6324 31.259 31.7003 31.1967 31.7461C27.3935 34.4588 24.0734 37.7813 21.3731 41.5771Z" fill="white"/>
<path fill-rule="evenodd" clip-rule="evenodd" d="M38.4653 27.4535C38.4304 27.469 38.3926 27.4778 38.3542 27.4794C38.3157 27.4809 38.2774 27.4752 38.2412 27.4626C38.2051 27.45 38.1719 27.4307 38.1436 27.4058C38.1153 27.3809 38.0923 27.3509 38.0761 27.3175C38.0599 27.2842 38.0507 27.2481 38.0491 27.2113C38.0475 27.1745 38.0534 27.1378 38.0666 27.1033C38.0798 27.0687 38.1 27.037 38.126 27.0099C38.1521 26.9828 38.1834 26.9609 38.2183 26.9454C42.552 25.0312 47.1891 23.8219 51.9389 23.3671C52.0164 23.36 52.0935 23.3825 52.1535 23.4298C52.2135 23.4772 52.2514 23.5453 52.2589 23.6193C52.2663 23.6934 52.2427 23.7672 52.1932 23.8246C52.1438 23.8819 52.0725 23.9182 51.9951 23.9253C47.3121 24.3775 42.7401 25.5697 38.4653 27.4535Z" fill="white"/>
<path fill-rule="evenodd" clip-rule="evenodd" d="M59.634 23.9428C59.5956 23.9394 59.5584 23.9286 59.5243 23.911C59.4902 23.8934 59.46 23.8693 59.4353 23.8402C59.4106 23.8111 59.392 23.7774 59.3805 23.7412C59.3691 23.7049 59.3649 23.6668 59.3684 23.629C59.3718 23.5912 59.3827 23.5544 59.4006 23.5208C59.4184 23.4871 59.4428 23.4573 59.4723 23.4329C59.5019 23.4086 59.536 23.3902 59.5727 23.3789C59.6094 23.3676 59.648 23.3635 59.6863 23.3669C64.4383 23.7929 69.0847 24.9995 73.4336 26.9369C73.4963 26.9736 73.5431 27.0318 73.565 27.1004C73.5868 27.169 73.5822 27.2431 73.5521 27.3086C73.5219 27.374 73.4683 27.4262 73.4016 27.455C73.3348 27.4839 73.2597 27.4874 73.1905 27.4649C68.901 25.5566 64.3195 24.3663 59.634 23.9428Z" fill="white"/>
<path fill-rule="evenodd" clip-rule="evenodd" d="M38.6817 48.8581C37.7307 49.0943 36.7517 49.1976 35.7724 49.165C34.7553 49.1296 33.7884 48.7141 33.0628 48.0005C31.2144 46.1522 30.9372 43.6347 30.7561 42.0119C30.7242 41.6261 30.665 41.2432 30.5786 40.8659C30.5625 40.8066 30.57 40.7434 30.5997 40.6895C30.6294 40.6357 30.6788 40.5956 30.7376 40.5776C30.78 40.5664 30.8245 40.5664 30.867 40.5776C31.2444 40.6623 31.6273 40.7203 32.0129 40.7513C33.6358 40.9361 36.1643 41.2245 38.0015 43.0617C38.7142 43.7865 39.1296 44.7519 39.1659 45.7677C39.199 46.747 39.0957 47.7261 38.8591 48.677C38.8502 48.7211 38.8287 48.7617 38.7972 48.7938C38.7657 48.826 38.7256 48.8483 38.6817 48.8581ZM35.802 48.6992C36.6873 48.7296 37.5727 48.6401 38.434 48.433C38.6421 47.5718 38.7328 46.6865 38.7038 45.801C38.6716 44.8973 38.3039 44.038 37.6725 43.3907C35.9499 41.6681 33.5212 41.3908 31.9649 41.2134C31.6396 41.1764 31.3512 41.1468 31.1072 41.1025C31.1479 41.3465 31.1812 41.6348 31.2181 41.9601C31.3919 43.5201 31.6691 45.9451 33.3918 47.6715C34.0403 48.3051 34.9032 48.6719 35.8094 48.6992H35.802Z" fill="white"/>
<path fill-rule="evenodd" clip-rule="evenodd" d="M38.5603 49.1708L35.2406 45.851C34.1088 45.2022 31.819 46.2585 31.8114 46.2622L31.6756 45.9567C31.6756 45.9567 33.4109 45.1494 34.7275 45.338L33.675 44.2855C32.713 43.9082 31.3701 44.8287 31.3663 44.8325L31.1777 44.5495C31.1777 44.5495 32.2377 43.8177 33.2487 43.8592L32.2151 42.8255C31.805 42.8129 31.3988 42.9092 31.0381 43.1047L30.8759 42.8105C31.1907 42.6472 31.5315 42.54 31.8831 42.4936L30.5703 41.1808L30.808 40.9431L32.1208 42.2559C32.1664 41.9042 32.2737 41.5632 32.4377 41.2487L32.7319 41.4109C32.5365 41.7715 32.4414 42.178 32.4565 42.5879L33.4864 43.6215C33.4449 42.6105 34.1767 41.5542 34.1767 41.5505L34.4597 41.7353C34.4597 41.7353 33.5279 43.0859 33.9127 44.0478L34.9652 45.1003C34.7766 43.78 35.5801 42.0522 35.5838 42.0484L35.8894 42.1842C35.8894 42.1842 34.8294 44.4703 35.4782 45.6134L38.798 48.9331L38.5603 49.1708Z" fill="white"/>
<path fill-rule="evenodd" clip-rule="evenodd" d="M32.3595 59.6967C31.6524 60.3737 30.8546 60.9501 29.989 61.4096C29.0873 61.8871 28.0389 62.0111 27.05 61.7574C24.5234 61.0803 23.0074 59.0344 22.0302 57.721C21.8046 57.4016 21.5562 57.0987 21.2871 56.8146C21.2433 56.7709 21.2187 56.7117 21.2188 56.65C21.2187 56.5883 21.2433 56.529 21.2871 56.4853C21.3169 56.4534 21.3558 56.4315 21.3986 56.4225C21.7707 56.3053 22.1345 56.1632 22.4873 55.997C23.9735 55.3459 26.3329 54.3284 28.8595 55.0018C29.8436 55.2759 30.6899 55.905 31.2337 56.7665C31.7538 57.6001 32.1552 58.5016 32.4264 59.4451C32.4413 59.4896 32.4422 59.5375 32.4289 59.5825C32.4156 59.6275 32.3888 59.6673 32.3521 59.6967H32.3595ZM29.7846 60.9916C30.5723 60.576 31.2987 60.0543 31.9434 59.4414C31.6912 58.5904 31.3237 57.7776 30.851 57.0255C30.3728 56.2573 29.6222 55.6961 28.748 55.4531C26.3775 54.8205 24.1258 55.7972 22.6805 56.4262C22.3795 56.5556 22.112 56.6703 21.8779 56.7591C22.0377 56.9478 22.2123 57.1809 22.4055 57.4436C23.3418 58.7089 24.8021 60.6734 27.1726 61.306C28.0522 61.529 28.9837 61.4169 29.7846 60.9916Z" fill="white"/>
<path fill-rule="evenodd" clip-rule="evenodd" d="M32.3722 59.9027L27.8983 58.6805C26.6008 58.6805 25.1692 60.7566 25.1654 60.7642L24.897 60.5631C24.897 60.5631 25.9856 58.9879 27.2085 58.4907L25.7843 58.1112C24.7702 58.2592 24.0805 59.7394 24.0768 59.7432L23.7785 59.599C24.0964 58.9264 24.5922 58.3573 25.2102 57.9556L23.8158 57.576C23.4589 57.7697 23.1591 58.0566 22.9471 58.4072L22.6563 58.244C22.8458 57.9411 23.0855 57.674 23.3647 57.4546L21.5938 56.9725L21.6795 56.6423L23.4504 57.1281C23.3155 56.7978 23.2398 56.4456 23.2267 56.0882H23.5362C23.5453 56.4998 23.6638 56.9011 23.8792 57.2496L25.2735 57.6291C24.9388 56.9628 24.7892 56.2161 24.8411 55.4695L25.1729 55.4999C25.1729 55.4999 25.0424 57.1395 25.8477 57.7772L27.2719 58.1567C26.4554 57.1016 26.2914 55.1886 26.2876 55.1848L26.6194 55.1545C26.6194 55.1545 26.8394 57.6785 27.9654 58.3465L32.4393 59.5687L32.3722 59.9027Z" fill="white"/>
<path fill-rule="evenodd" clip-rule="evenodd" d="M32.7843 72.557C32.5114 73.4995 32.1094 74.4 31.5894 75.2327C31.0492 76.0955 30.2046 76.7253 29.222 76.9981C26.6988 77.6717 24.3574 76.6539 22.8583 76.0026C22.5064 75.8362 22.1431 75.6952 21.7711 75.5806C21.7111 75.5658 21.6595 75.5278 21.6275 75.4751C21.5955 75.4224 21.5858 75.3592 21.6004 75.2994C21.6109 75.2535 21.6356 75.2121 21.6709 75.1809C21.9398 74.8982 22.1878 74.5964 22.413 74.2779C23.3852 72.9641 24.9028 70.9174 27.4261 70.2438C28.4132 69.9889 29.4603 70.1117 30.3612 70.588H30.3798C31.24 71.0492 32.0328 71.6257 32.736 72.3016C32.7692 72.3318 32.7931 72.3708 32.8049 72.4141C32.8167 72.4573 32.816 72.503 32.8028 72.5459L32.7843 72.557ZM31.2035 74.9737C31.674 74.2205 32.0409 73.4076 32.2945 72.557C31.6527 71.9516 30.9341 71.4327 30.1571 71.0136H30.1386C29.3416 70.592 28.4161 70.4799 27.5411 70.6991C25.1774 71.3319 23.7191 73.2897 22.7841 74.5629C22.5874 74.8256 22.413 75.0588 22.2571 75.2513C22.4909 75.3364 22.7581 75.4511 23.0586 75.5843C24.5021 76.2098 26.7507 77.1869 29.1144 76.554C29.9836 76.3047 30.7284 75.7412 31.2035 74.9737Z" fill="white"/>
<path fill-rule="evenodd" clip-rule="evenodd" d="M32.4393 72.4343L27.973 73.6518C26.8565 74.3194 26.6332 76.8379 26.6332 76.8455L26.3019 76.8151C26.3019 76.8151 26.4694 74.8959 27.2808 73.8415L25.8627 74.2208C25.0551 74.8618 25.1891 76.4965 25.1891 76.4965L24.8578 76.5269C24.8578 76.5269 24.7536 75.2297 25.2896 74.3725L23.8976 74.7518C23.683 75.1016 23.5647 75.5038 23.5552 75.9162H23.2202C23.2348 75.5576 23.3116 75.2044 23.4472 74.8731L21.6794 75.3586L21.5938 75.0325L23.3616 74.547C23.0823 74.3298 22.8429 74.064 22.6545 73.7618L22.9448 73.5949C23.1548 73.9467 23.4545 74.2337 23.812 74.4256L25.204 74.0463C24.3182 73.576 23.7748 72.4039 23.771 72.4002L24.0725 72.256C24.0725 72.256 24.7648 73.7428 25.7771 73.887L27.1952 73.5077C25.9744 73.0108 24.8951 71.4443 24.8913 71.4367L25.1593 71.2357C25.1593 71.2357 26.5922 73.3142 27.8874 73.318L32.3537 72.0967L32.4393 72.4343Z" fill="white"/>
<path fill-rule="evenodd" clip-rule="evenodd" d="M38.856 83.3194C39.0934 84.2702 39.1979 85.2493 39.1665 86.2288C39.1311 87.2459 38.7157 88.2128 38.0022 88.9385C36.154 90.7868 33.6368 91.0641 32.0141 91.2452C31.6272 91.2771 31.2431 91.3364 30.8646 91.4227C30.8058 91.4387 30.743 91.431 30.6898 91.4013C30.6366 91.3716 30.5972 91.3222 30.58 91.2637C30.5671 91.2215 30.5671 91.1765 30.58 91.1343C30.6649 90.7557 30.723 90.3715 30.7537 89.9846C30.9385 88.3618 31.2231 85.8369 33.0639 83.9959C33.7891 83.2846 34.7544 82.8705 35.7696 82.8352C36.7488 82.8023 37.7278 82.9056 38.6786 83.142C38.7222 83.1511 38.7622 83.1728 38.7937 83.2043C38.8252 83.2358 38.8469 83.2758 38.856 83.3194ZM38.7008 86.1992C38.7312 85.3126 38.6417 84.426 38.4346 83.5634C37.5721 83.3564 36.6856 83.2668 35.7992 83.2973C34.8967 83.3297 34.0387 83.6975 33.3928 84.3287C31.6667 86.0513 31.3931 88.4801 31.2157 90.0364C31.1788 90.3617 31.1455 90.65 31.1048 90.894C31.3488 90.8534 31.6371 90.8201 31.9624 90.7831C33.5222 90.6094 35.947 90.3321 37.6732 88.6057C38.3049 87.9644 38.6741 87.1099 38.7082 86.2103L38.7008 86.1992Z" fill="white"/>
<path fill-rule="evenodd" clip-rule="evenodd" d="M39.171 83.4409L35.8528 86.7606C35.2005 87.8923 36.26 90.1822 36.2638 90.1897L35.9546 90.3255C35.9546 90.3255 35.1477 88.5902 35.34 87.2736L34.2842 88.3261C33.9071 89.2881 34.8272 90.6311 34.8309 90.6348L34.5519 90.8235C34.1336 90.2109 33.8946 89.4936 33.8619 88.7524L32.8287 89.7823C32.8137 90.1938 32.9101 90.6018 33.1077 90.9631L32.8136 91.1253C32.6493 90.8109 32.542 90.4699 32.4969 90.118L31.1847 91.4308L30.9434 91.1932L32.2556 89.8804C31.9034 89.8348 31.5624 89.7262 31.2488 89.5597L31.4147 89.2692C31.7754 89.4639 32.1815 89.559 32.5912 89.5446L33.6243 88.5147C32.8833 88.4797 32.1667 88.2394 31.5542 87.8206L31.739 87.5415C31.739 87.5415 33.0851 88.4732 34.0466 88.0885L38.9485 83.2032L39.171 83.4409Z" fill="white"/>
<path fill-rule="evenodd" clip-rule="evenodd" d="M31.8447 86.1951C31.8447 86.1951 34.1373 87.4607 35.2592 86.6675L35.4312 87.0106C34.1522 87.9019 31.7138 86.565 31.6914 86.565L31.8447 86.1951Z" fill="white"/>
<path fill-rule="evenodd" clip-rule="evenodd" d="M49.6997 89.2594C50.3759 89.9666 50.9525 90.7633 51.4135 91.6275C51.8888 92.5319 52.0115 93.5816 51.7577 94.572C51.0841 97.1 49.0372 98.6168 47.7232 99.5946C47.4037 99.8204 47.1006 100.069 46.8164 100.338C46.7726 100.382 46.7134 100.407 46.6517 100.407C46.5899 100.407 46.5307 100.382 46.4869 100.338C46.4553 100.308 46.4323 100.269 46.4203 100.227C46.3064 99.8536 46.1653 99.4895 45.9984 99.1373C45.3469 97.6316 44.329 95.2895 45.0027 92.7614C45.2747 91.7757 45.9046 90.928 46.7682 90.3858C47.5967 89.8692 48.4923 89.4701 49.4295 89.1999C49.4745 89.1841 49.5233 89.1828 49.5691 89.1961C49.6148 89.2095 49.6553 89.2368 49.6849 89.2742L49.6997 89.2594ZM50.9952 91.8357C50.5794 91.0476 50.0576 90.3208 49.4443 89.6757C48.5978 89.9267 47.7886 90.2905 47.0384 90.7576C46.2699 91.2361 45.7084 91.9871 45.4653 92.8618C44.8324 95.2337 45.8096 97.4866 46.4351 98.9328C46.5684 99.2339 46.6831 99.5016 46.7682 99.7321C46.9607 99.576 47.1939 99.4012 47.4567 99.2079C48.7189 98.2711 50.688 96.81 51.321 94.4381C51.5344 93.5587 51.4143 92.6311 50.9841 91.8357H50.9952Z" fill="white"/>
<path fill-rule="evenodd" clip-rule="evenodd" d="M50.5779 97.1212C50.5779 97.1212 49.0017 96.0348 48.5042 94.8145L48.1244 96.2357C48.2687 97.2477 49.7538 97.936 49.7576 97.9397L49.6132 98.2374C48.9395 97.9196 48.369 97.425 47.9649 96.8087L47.5851 98.2002C47.7788 98.5564 48.0659 98.8556 48.4168 99.0671L48.2535 99.3536C47.9482 99.1688 47.6804 98.9304 47.4635 98.6504L46.9698 100.407L46.6431 100.321L47.1293 98.5536C46.7976 98.6888 46.4438 98.7644 46.0848 98.7769V98.4458C46.4978 98.4362 46.9006 98.318 47.2508 98.1035L47.6306 96.712C46.7723 97.244 45.4771 97.1435 45.4733 97.1435L45.5037 96.8124C45.5037 96.8124 47.1445 96.9426 47.7826 96.139L48.1624 94.7177C47.1065 95.5288 45.1923 95.6962 45.1847 95.6962L45.1543 95.3688C45.1543 95.3688 47.6838 95.1456 48.3523 94.0257L49.5715 89.561L49.9019 89.6465L48.6789 94.1113C48.6789 95.406 50.7565 96.8347 50.7641 96.8385L50.5779 97.1212Z" fill="white"/>
<path fill-rule="evenodd" clip-rule="evenodd" d="M62.5538 89.1976C63.4973 89.4709 64.3988 89.8736 65.2327 90.3944C66.0953 90.9356 66.7249 91.7815 66.9976 92.7657C67.671 95.2931 66.6535 97.6346 66.0023 99.1399C65.836 99.4923 65.6951 99.8562 65.5805 100.229C65.5648 100.289 65.5261 100.341 65.4728 100.373C65.4196 100.405 65.3559 100.415 65.2956 100.4C65.2513 100.388 65.2114 100.364 65.1809 100.329C64.8968 100.067 64.5952 99.825 64.2781 99.6044C62.9645 98.6307 60.9184 97.1105 60.245 94.5832C59.9875 93.5946 60.1104 92.5449 60.5891 91.6432C61.0503 90.7733 61.6307 89.9726 62.3133 89.2646C62.3427 89.2313 62.381 89.2072 62.4237 89.1954C62.4664 89.1835 62.5116 89.1843 62.5538 89.1976ZM64.9737 90.781C64.2202 90.3106 63.4076 89.9431 62.5575 89.6882C61.9457 90.3341 61.4241 91.0606 61.0072 91.8477C60.5856 92.646 60.4736 93.5729 60.6927 94.4494C61.3254 96.8169 63.2827 98.2776 64.5556 99.2142C64.8183 99.4112 65.0514 99.5859 65.2401 99.742C65.3289 99.5078 65.4436 99.2402 65.5731 98.9392C66.2021 97.4934 67.1789 95.241 66.5462 92.8735C66.2938 92.0023 65.7281 91.2565 64.9589 90.781H64.9737Z" fill="white"/>
<path fill-rule="evenodd" clip-rule="evenodd" d="M62.418 89.561L63.6435 94.0272C64.3133 95.1438 66.8403 95.3671 66.8441 95.3671L66.8137 95.6983C66.8137 95.6983 64.8918 95.5309 63.8337 94.7158L64.2143 96.1375C64.8613 96.9452 66.4978 96.8112 66.4978 96.8112L66.5283 97.1424C66.5283 97.1424 65.2267 97.2466 64.3666 96.7107L64.7471 98.1027C65.0965 98.3176 65.499 98.436 65.9117 98.4451V98.78C65.5532 98.7651 65.2001 98.6882 64.8689 98.553L65.3561 100.321L65.025 100.407L64.5416 98.6386C64.3226 98.9183 64.0546 99.1577 63.75 99.3458L63.5864 99.0555C63.9431 98.847 64.2361 98.5488 64.4351 98.192L64.0545 96.8C63.5788 97.6858 62.4066 98.2292 62.4028 98.2329L62.2581 97.9315C62.2581 97.9315 63.7462 97.2392 63.8946 96.2268L63.5141 94.8088C63.0155 96.0296 61.4399 97.1089 61.4361 97.1126L61.2344 96.8447C61.2344 96.8447 63.3161 95.4117 63.3238 94.1165L62.0983 89.6503L62.418 89.561Z" fill="white"/>
<path fill-rule="evenodd" clip-rule="evenodd" d="M55.8137 44.6829C59.9928 44.6829 64.0781 45.9221 67.5529 48.2439C71.0277 50.5657 73.736 53.8658 75.3353 57.7268C76.9346 61.5878 77.3531 65.8364 76.5377 69.9352C75.7224 74.034 73.71 77.7991 70.7549 80.7542C67.7998 83.7093 64.0348 85.7217 59.9359 86.537C55.8371 87.3523 51.5886 86.9339 47.7275 85.3346C43.8665 83.7353 40.5665 81.027 38.2447 77.5522C35.9229 74.0774 34.6836 69.9921 34.6836 65.8129C34.6836 60.2089 36.9098 54.8344 40.8725 50.8717C44.8351 46.9091 50.2096 44.6829 55.8137 44.6829ZM39.4621 61.5309H43.8524V63.1773H45.5137V57.0772H43.8524V60.2654H39.9101V57.0772H38.2488V60.3886C38.2415 60.5533 38.2752 60.7174 38.3469 60.8659C38.4185 61.0145 38.526 61.1429 38.6595 61.2397C38.8828 61.426 39.1639 61.529 39.4547 61.5309H39.4621ZM54.0217 57.0511H52.3455V59.4291H47.9403V57.0025H46.2603V59.5486C46.2561 59.7154 46.2931 59.8806 46.368 60.0298C46.4429 60.1789 46.5534 60.3072 46.6897 60.4035C46.9095 60.5852 47.1847 60.6866 47.4699 60.6909L52.3455 60.7395C52.3455 61.8271 51.2342 62.3709 49.0117 62.3709C48.5936 62.3709 48.1456 62.3709 47.664 62.3224L47.5894 63.3901C48.2734 63.5112 48.9667 63.5724 49.6613 63.573C50.6901 63.6188 51.7148 63.4151 52.6479 62.9794C53.0719 62.783 53.4282 62.4655 53.672 62.0669C53.9158 61.6682 54.0362 61.2064 54.018 60.7395V57.0473L54.0217 57.0511ZM56.859 61.6877H60.9021V58.3017H56.8664V61.7064L56.859 61.6877ZM59.8456 57.0212V56.4425L58.3523 56.5956V57.0361H56.5379C56.2525 57.037 55.977 57.1403 55.7614 57.3273C55.6261 57.4234 55.5165 57.5513 55.4423 57.6997C55.3681 57.8482 55.3315 58.0126 55.3358 58.1785V61.6728H54.9849V64.189L56.7059 64.0509V63.1661H61.2343V64.189L62.9889 64.0509V61.6728H62.5708V57.0324L59.8456 57.0212ZM70.5338 62.0386V57.0212H67.8048V56.3193L66.3115 56.4724V57.0212H63.5937V62.0386C63.5895 62.2055 63.6265 62.3707 63.7014 62.5198C63.7763 62.6689 63.8868 62.7973 64.023 62.8936C64.2414 63.0753 64.5155 63.1767 64.7996 63.181H69.328C69.6132 63.1767 69.8884 63.0753 70.1082 62.8936C70.2433 62.7964 70.3527 62.6678 70.4269 62.5188C70.5011 62.3698 70.5378 62.205 70.5338 62.0386ZM68.8576 62.0685V58.1449H65.2214V62.0797L68.8576 62.0685ZM41.3287 72.0549H47.3019V74.2948H49.5418V66.0071H47.3019V70.3376H41.941V66.0071H39.6824V70.4869C39.6716 70.7118 39.7172 70.9358 39.815 71.1385C39.9128 71.3413 40.0597 71.5164 40.2424 71.648C40.5436 71.9012 40.924 72.0412 41.3175 72.0437L41.3287 72.0549ZM60.4989 74.6458V69.5051C60.5255 68.9573 60.4176 68.4113 60.1847 67.9148C59.9517 67.4182 59.6007 66.9863 59.1624 66.6567C58.2739 65.9847 57.0307 65.6487 55.4291 65.6487C54.0044 65.6745 52.5894 65.8905 51.2218 66.2908L51.8863 67.8252C53.0633 67.618 54.2534 67.4932 55.4478 67.4518C57.2895 67.4518 58.2092 68.1363 58.2067 69.5051H50.6618L50.6394 73.0479C50.6366 73.2735 50.6876 73.4965 50.7883 73.6985C50.8889 73.9004 51.0362 74.0754 51.2181 74.209C51.5146 74.4579 51.8875 74.5976 52.2746 74.6047L60.4877 74.6458H60.4989ZM58.2403 72.8837V71.0171H52.9018V72.8837H58.2403ZM64.3329 64.2002C64.295 64.7556 64.4654 65.3053 64.8108 65.742C64.9662 65.9164 65.1582 66.0544 65.3731 66.146C65.588 66.2377 65.8205 66.2807 66.0539 66.2721H67.3382C67.5763 66.2787 67.8132 66.2348 68.0332 66.1435C68.2532 66.0521 68.4514 65.9153 68.6149 65.742C68.9791 65.3141 69.1613 64.7607 69.1226 64.2002H67.7227V64.7788C67.7227 64.861 67.7227 64.9058 67.7003 64.9058C67.5654 64.9422 67.4253 64.9561 67.2859 64.9468H66.1249C65.9854 64.9561 65.8454 64.9422 65.7105 64.9058C65.7105 64.9058 65.6918 64.861 65.6918 64.7788V64.2002H64.3329ZM61.3463 74.2799L61.2455 75.5231C61.6816 75.6137 62.1254 75.6625 62.5708 75.6687C63.7339 75.6354 64.8428 75.1695 65.6806 74.362C66.7981 73.3839 68.1445 71.6293 69.7199 69.0982V74.1978L71.9599 74.4068V67.2241L72.9156 67.1009C73.0712 67.0413 73.2024 66.9314 73.2883 66.7887C73.3742 66.6459 73.4099 66.4786 73.3897 66.3132V65.9399H69.44C67.9413 68.6862 66.1636 71.2708 64.135 73.6527V65.9399H62.1042V74.3732C61.9907 74.4084 61.8719 74.4236 61.7532 74.418C61.533 74.3471 61.3874 74.306 61.3165 74.2911L61.3463 74.2799Z" fill="white"/>
<path fill-rule="evenodd" clip-rule="evenodd" d="M95.3762 89.354C93.8556 90.2058 92.2249 90.841 90.531 91.2413C88.7633 91.6553 86.9058 91.3859 85.326 90.4863H85.296C81.2977 88.1461 79.6451 83.9147 78.5846 81.197C78.3538 80.5487 78.077 79.918 77.7565 79.3097C77.726 79.2598 77.7056 79.2042 77.6967 79.1463C77.6877 79.0884 77.6902 79.0292 77.7042 78.9723C77.7182 78.9154 77.7432 78.8618 77.7779 78.8148C77.8126 78.7677 77.8563 78.7281 77.9064 78.6982C77.9857 78.648 78.0792 78.6255 78.1724 78.634C78.8501 78.6037 79.5249 78.5268 80.1922 78.4038C83.0701 77.9697 87.5481 77.294 91.5689 79.6305C93.1307 80.5577 94.2931 82.0382 94.8291 83.7826C95.3361 85.4667 95.6097 87.2132 95.6422 88.9727C95.646 89.0631 95.6227 89.1525 95.5752 89.2293C95.5278 89.3061 95.4584 89.3666 95.3762 89.403V89.354ZM90.3623 90.3542C91.8907 89.9984 93.3643 89.436 94.7429 88.6821C94.7027 87.1025 94.4506 85.5357 93.9934 84.0242C93.5289 82.4803 92.5076 81.1675 91.1305 80.3439C87.3832 78.1622 83.0851 78.8114 80.3271 79.2115C79.7688 79.2946 79.2741 79.3701 78.8282 79.4116C79.0043 79.8079 79.2029 80.2798 79.3978 80.812C80.417 83.4202 81.9984 87.478 85.7344 89.6635H85.7569C87.1521 90.4662 88.7955 90.7127 90.3623 90.3542Z" fill="white"/>
<path fill-rule="evenodd" clip-rule="evenodd" d="M95.0864 88.813L88.001 84.7948C85.7277 84.1924 82.3065 86.9985 82.2952 86.9985L82.0821 86.7451C82.0821 86.7451 84.9313 84.4054 87.2794 84.3761L84.662 82.9069C82.7925 82.6608 80.8969 84.8572 80.8894 84.8609L80.6314 84.6552C80.6314 84.6552 82.2653 82.7673 84.0788 82.5763L81.54 81.1365C80.523 81.2541 79.5695 82.1539 79.5658 82.1576L79.3414 81.9152C79.8493 81.4549 80.4508 81.1056 81.1062 80.8904L78.0664 79.1642L78.2309 78.8814L81.2708 80.6076C81.132 79.9416 81.1397 79.2541 81.2932 78.5912L81.6185 78.6647C81.6185 78.6647 81.3007 79.9281 81.7045 80.8684L84.2433 82.3082C83.4955 80.6664 84.348 78.3488 84.3517 78.3414L84.6695 78.4479C84.6695 78.4479 83.6787 81.1696 84.8266 82.6351L87.4439 84.1263C86.296 82.1135 86.9316 78.5324 86.9354 78.5214L87.2644 78.5728C87.2644 78.5728 86.4942 82.9032 88.1655 84.534L95.2697 88.5522L95.0864 88.813Z" fill="white"/>
<path fill-rule="evenodd" clip-rule="evenodd" d="M101.925 66.0575C101.024 67.5331 99.9225 68.8791 98.6505 70.0577C97.3257 71.2764 95.5889 71.9631 93.7794 71.9837C89.1406 71.9837 85.596 69.1947 83.3216 67.402C82.798 66.961 82.2433 66.5575 81.6617 66.1945C81.5589 66.1389 81.4826 66.0453 81.4496 65.9342C81.4165 65.8231 81.4295 65.7036 81.4856 65.6019C81.5283 65.53 81.5889 65.47 81.6617 65.4278C82.2425 65.065 82.7972 64.6628 83.3216 64.224C85.596 62.4313 89.1406 59.6423 93.7794 59.6423C95.5889 59.6629 97.3257 60.3496 98.6505 61.5683C99.9249 62.7485 101.028 64.0971 101.929 65.5759C101.976 65.6477 102.001 65.7313 102.001 65.8167C102.001 65.9021 101.976 65.9857 101.929 66.0575H101.925ZM98.0659 69.391C99.2134 68.3339 100.21 67.1277 101.03 65.8056C100.21 64.4835 99.2134 63.2773 98.0659 62.2202C96.8971 61.1387 95.3615 60.5283 93.7607 60.509C89.4292 60.509 86.0344 63.1832 83.8537 64.8981C83.4115 65.2463 83.0181 65.5574 82.6696 65.8056C83.0181 66.0538 83.419 66.3649 83.8537 66.7131C86.0344 68.428 89.4292 71.1022 93.7607 71.1022C95.3605 71.0849 96.896 70.4772 98.0659 69.3984V69.391Z" fill="white"/>
<path fill-rule="evenodd" clip-rule="evenodd" d="M101.626 66.3688H93.3739C91.0782 66.9824 89.5326 71.2207 89.5288 71.2358L89.2159 71.1146C89.2159 71.1146 90.4976 67.5846 92.5333 66.3688H89.4798C87.7231 67.096 87.1954 70.02 87.1916 70.0276L86.8636 69.9632C86.8636 69.9632 87.316 67.4559 88.8013 66.3688H85.8458C85.0165 66.99 84.6508 68.2626 84.6508 68.2626L84.3266 68.1679C84.5326 67.4988 84.8784 66.8816 85.3407 66.3575H81.8047V66.0166H85.3407C84.8784 65.4924 84.5326 64.8752 84.3266 64.2061L84.6508 64.1115C84.6508 64.1115 85.0278 65.3992 85.8458 66.0052H88.8013C87.316 64.9182 86.8636 62.4184 86.8636 62.4109L87.1916 62.3465C87.1916 62.3465 87.7231 65.278 89.4798 66.0052H92.5333C90.4976 64.7894 89.2197 61.2708 89.2159 61.2594L89.5288 61.1382C89.5288 61.1382 91.0782 65.3916 93.3739 66.0052H101.626V66.3688Z" fill="white"/>
<path fill-rule="evenodd" clip-rule="evenodd" d="M95.9948 43.4167C95.9624 45.1737 95.6888 46.9178 95.182 48.5995C94.6462 50.3415 93.4841 51.8199 91.9229 52.7458C87.9034 55.079 83.427 54.4043 80.55 53.9708C79.8794 53.8474 79.2009 53.7719 78.5197 53.7447C78.4613 53.7462 78.4032 53.736 78.3488 53.7148C78.2944 53.6936 78.2446 53.6618 78.2025 53.6211C78.1603 53.5805 78.1266 53.5318 78.1033 53.478C78.0799 53.4241 78.0674 53.3662 78.0664 53.3074C78.0662 53.224 78.0882 53.142 78.1301 53.07C78.4508 52.4626 78.7275 51.8328 78.958 51.1853C80.0218 48.4601 81.6776 44.2196 85.7008 41.8863C87.2801 40.9881 89.137 40.719 90.904 41.1325C92.606 41.5314 94.2448 42.1657 95.7738 43.0171C95.8497 43.0564 95.9129 43.1167 95.956 43.1907C95.9991 43.2648 96.0204 43.3497 96.0173 43.4355L95.9948 43.4167ZM94.3429 48.3168C94.7998 46.8074 95.0518 45.2428 95.0921 43.6655C93.7139 42.9126 92.2408 42.3509 90.713 41.9957C89.1539 41.6315 87.5159 41.8668 86.1203 42.6553C82.3743 44.834 80.7823 48.8973 79.7521 51.5057C79.5461 52.0372 79.3775 52.5083 79.1827 52.9041C79.6098 52.9456 80.1005 53.021 80.6512 53.1039C83.4082 53.5223 87.7012 54.1706 91.4509 51.9731C92.8367 51.1591 93.8686 49.8518 94.3429 48.3093V48.3168Z" fill="white"/>
<path fill-rule="evenodd" clip-rule="evenodd" d="M95.2697 43.4478L88.1624 47.466C86.4903 49.0968 87.2572 53.4161 87.2609 53.4272L86.9317 53.4786C86.9317 53.4786 86.2921 49.8864 87.4405 47.8737L84.822 49.3649C83.6736 50.8341 84.6612 53.5447 84.6649 53.552L84.347 53.6586C84.347 53.6586 83.5016 51.3336 84.2385 49.6918L81.7061 51.1316C81.3021 52.0572 81.62 53.317 81.62 53.3353L81.2983 53.4088C81.1398 52.7466 81.1309 52.0583 81.2721 51.3924L78.231 53.1186L78.0664 52.8358L81.1076 51.1095C80.4519 50.8944 79.8501 50.5451 79.342 50.0848L79.5664 49.8424C79.5664 49.8424 80.524 50.7496 81.5415 50.8635L84.0814 49.4237C82.2671 49.2327 80.6437 47.3558 80.6362 47.3484L80.8906 47.1354C80.8906 47.1354 82.7946 49.3392 84.6649 49.0931L87.2834 47.6239C84.9342 47.5945 82.0951 45.2622 82.0839 45.2549L82.2971 45.0014C82.2971 45.0014 85.731 47.8223 88.009 47.2052L95.1163 43.187L95.2697 43.4478Z" fill="white"/>
<path fill-rule="evenodd" clip-rule="evenodd" d="M36.2591 80.8216C36.2279 80.7819 36.2051 80.7365 36.1921 80.6879C36.1792 80.6394 36.1763 80.5887 36.1837 80.5391C36.1911 80.4894 36.2086 80.4417 36.2351 80.3989C36.2617 80.3561 36.2967 80.319 36.3382 80.2899C36.3783 80.2591 36.4243 80.2365 36.4734 80.2237C36.5226 80.2109 36.5738 80.2081 36.6241 80.2154C36.6744 80.2227 36.7227 80.24 36.766 80.2662C36.8094 80.2924 36.8469 80.327 36.8763 80.368C38.8783 83.0404 41.4209 85.2724 44.3426 86.9223C47.2455 88.5664 50.4641 89.5933 53.792 89.9374C53.8414 89.9425 53.8894 89.9572 53.933 89.9806C53.9767 90.004 54.0153 90.0357 54.0466 90.0739C54.0778 90.112 54.1012 90.1559 54.1153 90.203C54.1294 90.25 54.134 90.2994 54.1288 90.3482C54.1237 90.397 54.1088 90.4443 54.0851 90.4875C54.0614 90.5306 54.0293 90.5687 53.9907 90.5996C53.9521 90.6305 53.9077 90.6536 53.86 90.6676C53.8124 90.6815 53.7624 90.6861 53.713 90.6809C50.2812 90.3305 46.9614 89.2757 43.9662 87.5841C40.9505 85.8821 38.3259 83.5791 36.2591 80.8216Z" fill="white"/>
<path fill-rule="evenodd" clip-rule="evenodd" d="M58.6572 90.2833C58.6086 90.2886 58.5594 90.2844 58.5125 90.2708C58.4655 90.2572 58.4217 90.2346 58.3836 90.2042C58.3454 90.1739 58.3137 90.1364 58.2901 90.0938C58.2666 90.0513 58.2517 90.0045 58.2464 89.9563C58.241 89.908 58.2453 89.8592 58.259 89.8126C58.2726 89.766 58.2954 89.7225 58.326 89.6846C58.3566 89.6467 58.3944 89.6152 58.4373 89.5918C58.4801 89.5684 58.5272 89.5537 58.5758 89.5484C61.8532 89.1857 65.0186 88.1488 67.8698 86.5038C70.721 84.8589 73.1956 82.642 75.1357 79.9946C75.1643 79.9538 75.201 79.9193 75.2435 79.893C75.286 79.8667 75.3334 79.8493 75.3829 79.8417C75.4324 79.8342 75.4829 79.8367 75.5313 79.849C75.5798 79.8614 75.6253 79.8834 75.6649 79.9138C75.7055 79.9422 75.7398 79.9784 75.7659 80.0203C75.792 80.0622 75.8094 80.1088 75.817 80.1575C75.8246 80.2062 75.8223 80.2559 75.8101 80.3036C75.798 80.3514 75.7763 80.3963 75.7464 80.4355C73.7455 83.17 71.1925 85.4604 68.25 87.1604C65.3076 88.8604 62.0405 89.9328 58.6572 90.309V90.2833Z" fill="white"/>
<path fill-rule="evenodd" clip-rule="evenodd" d="M78.5228 75.8665C78.4809 75.9598 78.4022 76.0333 78.304 76.0707C78.2058 76.1081 78.0963 76.1064 77.9994 76.066C77.9025 76.0255 77.8263 75.9497 77.7874 75.8551C77.7486 75.7606 77.7504 75.655 77.7923 75.5617C79.1865 72.475 79.9008 69.1433 79.8901 65.7771C79.8786 62.4308 79.1415 59.1237 77.7259 56.0679C77.7046 56.0219 77.693 55.9724 77.6916 55.922C77.6901 55.8717 77.699 55.8216 77.7177 55.7746C77.7364 55.7276 77.7645 55.6847 77.8004 55.6481C77.8363 55.6116 77.8794 55.5822 77.9271 55.5617C77.9748 55.5412 78.0263 55.5299 78.0785 55.5286C78.1307 55.5272 78.1827 55.5358 78.2315 55.5538C78.2803 55.5718 78.3249 55.5989 78.3629 55.6335C78.4008 55.6681 78.4312 55.7095 78.4525 55.7555C79.9147 58.9132 80.6745 62.3308 80.6831 65.7884C80.6952 69.2556 79.9595 72.6875 78.5228 75.8665Z" fill="white"/>
<path fill-rule="evenodd" clip-rule="evenodd" d="M76.1159 51.1786C76.1471 51.2182 76.1699 51.2636 76.1829 51.3122C76.1959 51.3607 76.1988 51.4114 76.1914 51.4611C76.184 51.5107 76.1665 51.5584 76.1399 51.6012C76.1133 51.6441 76.0782 51.6811 76.0368 51.7102C75.9967 51.741 75.9506 51.7636 75.9014 51.7764C75.8523 51.7892 75.801 51.792 75.7506 51.7847C75.7003 51.7774 75.652 51.7602 75.6086 51.7339C75.5653 51.7077 75.5277 51.6731 75.4983 51.6321C73.5067 48.9647 70.9739 46.7361 68.0616 45.0885C65.1493 43.4409 61.9213 42.4104 58.5832 42.0627C58.5338 42.0576 58.4858 42.0429 58.4421 42.0195C58.3984 41.9961 58.3598 41.9644 58.3285 41.9262C58.2973 41.8881 58.2739 41.8442 58.2597 41.7972C58.2456 41.7501 58.241 41.7007 58.2462 41.6519C58.2514 41.6031 58.2663 41.5558 58.29 41.5126C58.3137 41.4695 58.3458 41.4314 58.3845 41.4005C58.4231 41.3696 58.4675 41.3465 58.5152 41.3325C58.5629 41.3186 58.6129 41.3141 58.6623 41.3192C62.0997 41.672 65.4243 42.7307 68.4227 44.4272C71.4325 46.128 74.0521 48.4269 76.1159 51.1786Z" fill="white"/>
<path fill-rule="evenodd" clip-rule="evenodd" d="M52.9789 41.3185C53.0771 41.3102 53.1746 41.341 53.2499 41.4042C53.3252 41.4673 53.3722 41.5577 53.3806 41.6553C53.3889 41.7529 53.3579 41.8499 53.2944 41.9248C53.2309 41.9997 53.14 42.0464 53.0418 42.0547C49.7084 42.3171 46.4757 43.3156 43.5795 44.9777C40.7374 46.6243 38.3133 48.8976 36.4938 51.6225C36.4383 51.705 36.3522 51.7622 36.2543 51.7815C36.1564 51.8008 36.0548 51.7807 35.9718 51.7256C35.8889 51.6704 35.8313 51.5847 35.8119 51.4874C35.7925 51.39 35.8127 51.289 35.8682 51.2065C37.7486 48.391 40.2538 46.0421 43.1908 44.3408C46.186 42.62 49.5304 41.5873 52.9789 41.3185Z" fill="white"/>
<path fill-rule="evenodd" clip-rule="evenodd" d="M49.444 42.8024C48.5014 42.5311 47.6009 42.1296 46.7683 41.6093C45.9049 41.0672 45.275 40.2199 45.0031 39.2343C44.3296 36.707 45.3436 34.3655 45.9986 32.8602C46.1656 32.5081 46.3066 32.1441 46.4205 31.7712C46.4354 31.7112 46.4733 31.6595 46.526 31.6275C46.5787 31.5954 46.6419 31.5856 46.7017 31.6002C46.7472 31.6117 46.7884 31.6362 46.8202 31.6709C47.1035 31.9338 47.4053 32.1761 47.7231 32.3956C49.0369 33.3694 51.0834 34.8895 51.7569 37.4169C52.0119 38.4056 51.8891 39.4544 51.4128 40.3568C50.9492 41.2264 50.3689 42.028 49.6882 42.7392C49.6573 42.7714 49.6181 42.7943 49.575 42.8055C49.5319 42.8167 49.4865 42.8156 49.444 42.8024ZM47.0274 41.2191C47.7789 41.6935 48.5921 42.0612 49.444 42.3118C50.0548 41.6658 50.5752 40.9393 50.9909 40.1524C51.4152 39.3549 51.5275 38.4269 51.3054 37.5507C50.6763 35.1794 48.7149 33.7188 47.4456 32.7821C47.1828 32.5852 46.946 32.4105 46.7572 32.2544C46.6721 32.4885 46.5537 32.7561 46.4242 33.0572C45.7988 34.503 44.8218 36.7553 45.4546 39.1228C45.6999 39.9942 46.261 40.742 47.0274 41.2191Z" fill="white"/>
<path fill-rule="evenodd" clip-rule="evenodd" d="M49.5835 42.4391L48.3572 37.9744C47.6907 36.8582 45.1619 36.6312 45.1543 36.6312L45.1848 36.3001C45.1848 36.3001 47.1118 36.4675 48.1705 37.2823L47.7897 35.8611C47.1423 35.0537 45.5047 35.1877 45.5047 35.1877L45.4742 34.8565C45.4742 34.8565 46.7767 34.7523 47.6374 35.2881L47.2565 33.8966C46.9053 33.6821 46.5015 33.5638 46.0873 33.5543V33.2195C46.4462 33.2344 46.7994 33.3113 47.1309 33.4464L46.6472 31.6791L46.9747 31.5936L47.4584 33.3608C47.6796 33.0832 47.9475 32.8442 48.2505 32.6539L48.4181 32.9441C48.0593 33.152 47.7656 33.4518 47.5688 33.811L47.9497 35.2025C48.3538 34.5853 48.9262 34.0905 49.6025 33.7738L49.7472 34.0715C49.7472 34.0715 48.2543 34.7635 48.1058 35.7755L48.4866 37.1968C48.9855 35.9727 50.5584 34.8937 50.566 34.89L50.7641 35.1579C50.7641 35.1579 48.6809 36.5903 48.6732 37.8851L49.8996 42.3498L49.5835 42.4391Z" fill="white"/>
<path fill-rule="evenodd" clip-rule="evenodd" d="M73.3204 83.1414C74.2717 82.9067 75.2508 82.8035 76.2302 82.8346C77.2462 82.8709 78.2118 83.2863 78.9367 83.999C80.7854 85.8471 81.0627 88.3643 81.2476 89.987C81.2801 90.3724 81.3381 90.7552 81.4213 91.1329C81.4304 91.162 81.4336 91.1926 81.4306 91.223C81.4277 91.2534 81.4188 91.2828 81.4043 91.3097C81.3898 91.3365 81.3701 91.3602 81.3464 91.3794C81.3227 91.3985 81.2954 91.4127 81.266 91.4212C81.2239 91.4341 81.1788 91.4341 81.1366 91.4212C80.7579 91.3366 80.3736 91.2785 79.9867 91.2475C78.3636 91.0627 75.8383 90.778 73.997 88.9373C73.2855 88.212 72.8713 87.2468 72.836 86.2316C72.8032 85.2524 72.9065 84.2734 73.1429 83.3226C73.1518 83.2785 73.1733 83.2379 73.2048 83.2057C73.2363 83.1736 73.2765 83.1513 73.3204 83.1414ZM76.2006 83.3004C75.3139 83.2699 74.4271 83.3595 73.5644 83.5665C73.3575 84.4278 73.268 85.3131 73.2982 86.1983C73.3291 87.1015 73.6956 87.9607 74.3261 88.6083C76.0527 90.3345 78.4819 90.608 80.0385 90.7854C80.3639 90.8224 80.6523 90.8557 80.8963 90.8963C80.8556 90.6524 80.8224 90.364 80.7854 90.0388C80.6079 88.4789 80.3343 86.0541 78.6076 84.328C77.9622 83.6964 77.1033 83.3297 76.2006 83.3004Z" fill="white"/>
<path fill-rule="evenodd" clip-rule="evenodd" d="M73.4408 83.2032L76.7567 86.5229C77.8885 87.1755 80.1821 86.1155 80.1896 86.1117L80.3255 86.4211C80.3255 86.4211 78.5901 87.2246 77.2698 87.036L78.3261 88.0922C79.288 88.4695 80.631 87.549 80.6348 87.5452L80.8234 87.8244C80.2093 88.2426 79.4908 88.4817 78.7486 88.5147L79.7822 89.5484C80.1925 89.5623 80.5989 89.4659 80.9592 89.2692L81.1252 89.5635C80.8109 89.7279 80.4698 89.8352 80.118 89.8804L81.4308 91.1932L81.1931 91.4308L79.8803 90.1105C79.8344 90.4627 79.7258 90.8038 79.5596 91.1177L79.2654 90.9555C79.4635 90.5958 79.56 90.1889 79.5446 89.7785L78.5109 88.7449C78.4781 89.486 78.239 90.2033 77.8206 90.8159L77.5414 90.6311C77.5414 90.6311 78.4732 89.2806 78.0884 88.3224L77.0321 87.2661C77.2245 88.5864 76.421 90.3142 76.4172 90.3217L76.1117 90.1822C76.1117 90.1822 77.1717 87.8961 76.5191 86.753L73.2031 83.4333L73.4408 83.2032Z" fill="white"/>
<path fill-rule="evenodd" clip-rule="evenodd" d="M79.2602 71.9306C79.966 71.2519 80.763 70.674 81.6284 70.2133C82.5327 69.738 83.5825 69.6153 84.5728 69.8691C87.0971 70.5427 88.6176 72.5894 89.5954 73.9033C89.8211 74.2241 90.0696 74.5284 90.3389 74.8138C90.3605 74.8352 90.3776 74.8605 90.3893 74.8885C90.401 74.9164 90.407 74.9464 90.407 74.9767C90.407 75.007 90.401 75.0369 90.3893 75.0649C90.3776 75.0928 90.3605 75.1182 90.3389 75.1395C90.3083 75.1712 90.2698 75.1942 90.2274 75.2062C89.8544 75.3201 89.4903 75.4611 89.1381 75.6281C87.6324 76.2832 85.2903 77.2973 82.7623 76.6237C81.7765 76.3517 80.9288 75.7218 80.3866 74.8582C79.8693 74.0289 79.4702 73.1321 79.2007 72.1934C79.1846 72.149 79.1832 72.1007 79.1966 72.0555C79.2099 72.0102 79.2374 71.9704 79.2751 71.9417L79.2602 71.9306ZM81.8366 70.6352C81.0488 71.05 80.322 71.5706 79.6766 72.1823C79.9275 73.0288 80.2914 73.8379 80.7584 74.5881C81.2394 75.3558 81.9912 75.9168 82.8664 76.161C85.2383 76.7939 87.4912 75.8168 88.9373 75.1913C89.2385 75.0618 89.5062 74.9434 89.7367 74.8582C89.5805 74.6658 89.4058 74.4326 89.2124 74.1698C88.2719 72.9077 86.8145 70.9387 84.4427 70.3095C83.5636 70.0899 82.6338 70.2061 81.8366 70.6352Z" fill="white"/>
<path fill-rule="evenodd" clip-rule="evenodd" d="M79.6499 72.0979L84.1146 73.3209C85.4093 73.3209 86.8343 71.2395 86.8417 71.2357L87.1096 71.4332C87.1096 71.4332 86.0232 73.0094 84.8029 73.507L86.2241 73.8868C87.2361 73.7386 87.9245 72.2536 87.9282 72.2498L88.2258 72.3941C87.9091 73.0686 87.4143 73.6395 86.7971 74.0425L88.1886 74.4223C88.5459 74.2302 88.8456 73.9427 89.0555 73.5905L89.342 73.7576C89.1556 74.0605 88.9174 74.3268 88.6388 74.5438L90.4061 75.03L90.3205 75.3566L88.5532 74.8743C88.6882 75.2047 88.7638 75.5572 88.7765 75.915H88.4453C88.4358 75.502 88.3176 75.0992 88.103 74.7489L86.7115 74.3691C87.2436 75.2275 87.1431 76.5226 87.1431 76.5264L86.812 76.4961C86.812 76.4961 86.9422 74.8591 86.1386 74.2172L84.7173 73.8374C85.5284 74.8933 85.6958 76.8075 85.6958 76.8151L85.3684 76.8455C85.3684 76.8455 85.1452 74.316 84.0253 73.6513L79.5605 72.4283L79.6499 72.0979Z" fill="white"/>
<path fill-rule="evenodd" clip-rule="evenodd" d="M79.2167 59.4445C79.4894 58.5009 79.8914 57.5993 80.4114 56.7653C80.9523 55.904 81.7966 55.2757 82.7785 55.0039C85.3014 54.3267 87.6389 55.3443 89.1415 55.9956C89.4941 56.1612 89.8572 56.3034 90.2286 56.4212C90.2699 56.4307 90.3077 56.4513 90.3379 56.4808C90.3682 56.5104 90.3897 56.5477 90.4 56.5886C90.4104 56.6296 90.4092 56.6725 90.3966 56.7129C90.3841 56.7532 90.3606 56.7893 90.3288 56.8171C90.0608 57.1006 89.8128 57.4023 89.5868 57.7201C88.6147 59.0338 87.0972 61.0802 84.5742 61.7574C83.5868 62.0112 82.5398 61.8871 81.6394 61.4095C80.7707 60.9486 79.9714 60.3681 79.2649 59.685C79.2317 59.6557 79.2077 59.6173 79.1958 59.5746C79.184 59.532 79.1848 59.4868 79.1981 59.4445H79.2167ZM80.7972 57.0281C80.3247 57.7801 79.9576 58.5931 79.7064 59.4445C80.3522 60.0541 81.0773 60.5744 81.8621 60.9913C82.659 61.4129 83.5843 61.525 84.4592 61.3059C86.8226 60.6731 88.2808 58.7155 89.2157 57.4425C89.4124 57.1798 89.5867 56.9466 89.7426 56.7579C89.5088 56.6691 89.2417 56.5544 88.9412 56.4249C87.4979 55.7958 85.231 54.8188 82.8861 55.4516C82.0178 55.7003 81.2732 56.2622 80.7972 57.0281Z" fill="white"/>
<path fill-rule="evenodd" clip-rule="evenodd" d="M79.5605 59.5746L84.0268 58.3508C85.1433 57.6819 85.3667 55.1621 85.3667 55.1545L85.6979 55.1849C85.6979 55.1849 85.5304 57.1042 84.7153 58.1608L86.1371 57.7807C86.9447 57.1346 86.8108 55.5003 86.8108 55.5003L87.142 55.4699C87.142 55.4699 87.2462 56.7698 86.7103 57.6325L88.1022 57.2524C88.3172 56.9035 88.4355 56.5016 88.4446 56.0894H88.7796C88.7646 56.4475 88.6878 56.8001 88.5526 57.1308L90.3205 56.6481L90.4061 56.975L88.6382 57.4463C88.9178 57.665 89.1573 57.9326 89.3454 58.2368L89.055 58.4002C88.8445 58.0492 88.5448 57.7629 88.1878 57.5717L86.7959 57.9517C87.6817 58.423 88.2251 59.5974 88.2288 59.5974L87.9273 59.7457C87.9273 59.7457 87.235 58.2558 86.2227 58.1076L84.8047 58.4876C86.0254 58.9855 87.1048 60.559 87.1085 60.5628L86.8405 60.7642C86.8405 60.7642 85.4076 58.6853 84.1124 58.6777L79.6462 59.9015L79.5605 59.5746Z" fill="white"/>
<path fill-rule="evenodd" clip-rule="evenodd" d="M73.1422 48.6805C72.9079 47.7291 72.8046 46.7501 72.8354 45.7707C72.8717 44.7547 73.2872 43.7891 73.9999 43.0642C75.8484 41.2155 78.366 40.9345 79.989 40.7534C80.3743 40.7205 80.7572 40.6624 81.135 40.5796C81.1641 40.5705 81.1948 40.5673 81.2251 40.5703C81.2555 40.5732 81.2849 40.5822 81.3118 40.5966C81.3387 40.6111 81.3624 40.6308 81.3815 40.6545C81.4007 40.6782 81.4149 40.7056 81.4234 40.7349C81.4345 40.7773 81.4345 40.8219 81.4234 40.8643C81.3384 41.243 81.2803 41.6272 81.2496 42.0142C81.0647 43.6336 80.7801 46.1626 78.939 48.0039C78.2136 48.7154 77.2483 49.1296 76.2329 49.1649C75.2535 49.1977 74.2743 49.0945 73.3234 48.858C73.2793 48.8491 73.2387 48.8276 73.2065 48.7961C73.1744 48.7646 73.1521 48.7245 73.1422 48.6805ZM73.3012 45.8003C73.2708 46.687 73.3603 47.5738 73.5674 48.4365C74.4288 48.6434 75.3142 48.733 76.1996 48.7027C77.1029 48.6718 77.9623 48.3053 78.61 47.6748C80.3364 45.9482 80.61 43.519 80.7875 41.9624C80.8244 41.637 80.8577 41.3486 80.8984 41.1046C80.6544 41.1453 80.366 41.1786 80.0407 41.2155C78.4806 41.393 76.0554 41.6666 74.3289 43.3933C73.6998 44.0359 73.3333 44.8904 73.3012 45.7892V45.8003Z" fill="white"/>
<path fill-rule="evenodd" clip-rule="evenodd" d="M73.2031 48.5591L76.5228 45.2394C77.1717 44.1077 76.1154 41.8178 76.1117 41.8103L76.421 41.6745C76.421 41.6745 77.2245 43.4098 77.0359 44.7264L78.0922 43.6739C78.4694 42.7119 77.5452 41.3689 77.5452 41.3651L77.8243 41.1765C78.2428 41.7891 78.4819 42.5064 78.5147 43.2476L79.5483 42.2177C79.5623 41.8075 79.4659 41.401 79.2692 41.0407L79.5634 40.8747C79.7279 41.189 79.8352 41.5301 79.8803 41.882L81.1931 40.5692L81.4308 40.8068L80.118 42.1196C80.4706 42.1636 80.8121 42.2723 81.1252 42.4403L80.963 42.7345C80.6033 42.5364 80.1964 42.4399 79.786 42.4554L78.7524 43.489C79.4935 43.5218 80.2108 43.7609 80.8234 44.1794L80.6386 44.4585C80.6386 44.4585 79.288 43.5267 78.3299 43.9115L77.2736 44.9678C78.5939 44.7754 80.3217 45.5789 80.3255 45.5827L80.1896 45.8883C80.1896 45.8883 77.9036 44.8282 76.7605 45.4808L73.4408 48.7968L73.2031 48.5591Z" fill="white"/>
<path fill-rule="evenodd" clip-rule="evenodd" d="M61.9307 42.3505C61.2536 41.6454 60.6771 40.8496 60.2175 39.9858C59.739 39.0839 59.6149 38.0348 59.8697 37.0456C60.5468 34.525 62.593 33.0066 63.9066 32.0303C64.2269 31.806 64.53 31.5578 64.8131 31.2878C64.8568 31.244 64.9161 31.2195 64.9778 31.2195C65.0395 31.2195 65.0988 31.244 65.1425 31.2878C65.1753 31.3183 65.1973 31.3587 65.2054 31.4029C65.3226 31.7734 65.4648 32.1356 65.6309 32.4869C66.2821 33.9904 67.2997 36.3329 66.6225 38.8535C66.3541 39.8394 65.727 40.6885 64.8649 41.2331C64.0314 41.754 63.1298 42.1563 62.186 42.4285C62.1411 42.4425 62.0931 42.4425 62.0482 42.4286C62.0033 42.4147 61.9636 42.3875 61.9344 42.3505H61.9307ZM60.6356 39.7816C61.0523 40.5668 61.5739 41.2912 62.186 41.9348C63.0355 41.6833 63.847 41.3173 64.5985 40.847C65.3672 40.3672 65.9294 39.6165 66.1748 38.7422C66.8076 36.3737 65.8307 34.124 65.2017 32.6799C65.0722 32.3792 64.9575 32.1119 64.8686 31.8818C64.6799 32.0377 64.4468 32.2122 64.1841 32.4052C62.9186 33.3444 60.9538 34.7997 60.3211 37.1681C60.0982 38.0482 60.2103 38.9801 60.6356 39.7816Z" fill="white"/>
<path fill-rule="evenodd" clip-rule="evenodd" d="M62.0942 42.3388L63.3139 37.8787C63.3139 36.5852 61.242 35.1617 61.2344 35.1543L61.4351 34.8904C61.4351 34.8904 63.0071 35.972 63.5033 37.1911L63.8821 35.7713C63.7343 34.7603 62.2571 34.0727 62.2495 34.069L62.3935 33.7717C63.0651 34.0895 63.6341 34.5835 64.0374 35.1989L64.4161 33.8088C64.2217 33.4539 63.9356 33.1552 63.5866 32.9428L63.7495 32.6566C64.0531 32.8422 64.3201 33.0802 64.5373 33.3591L65.0184 31.5936L65.3442 31.6791L64.8745 33.4557C65.2041 33.3212 65.5556 33.2457 65.9123 33.2327V33.5635C65.5016 33.5726 65.101 33.6908 64.7533 33.9055L64.3745 35.2955C65.0394 34.9618 65.7847 34.8127 66.5297 34.8644L66.4994 35.1952C66.4994 35.1952 64.8631 35.0651 64.2268 35.8679L63.848 37.2877C64.901 36.4775 66.81 36.3102 66.8138 36.3102L66.8441 36.6373C66.8441 36.6373 64.3252 36.8603 63.6586 37.979L62.4389 42.4392L62.0942 42.3388Z" fill="white"/>
</g>
<defs>
<linearGradient id="paint0_linear_44_23213" x1="112" y1="0" x2="15.1876" y2="133.051" gradientUnits="userSpaceOnUse">
<stop stop-color="#D7B46A"/>
<stop offset="1" stop-color="#E9D09D"/>
</linearGradient>
<clipPath id="clip0_44_23213">
<rect width="92" height="92" fill="white" transform="translate(10 20)"/>
</clipPath>
</defs>
</svg>
