<svg width="20" height="24" viewBox="0 0 20 24" fill="none" xmlns="http://www.w3.org/2000/svg">
<path d="M2.01174 10.2233L1.23319 10.135L2.01174 10.2233ZM0.793202 21.4234L1.57175 21.5117L0.793202 21.4234ZM19.2068 21.4234L18.4284 21.5117L19.2068 21.4234ZM17.9883 10.2233L18.7669 10.135L17.9883 10.2233ZM1.23319 10.135L0.0146526 21.335L1.57175 21.5117L2.79029 10.3116L1.23319 10.135ZM2.3503 24H17.6497V22.4H2.3503V24ZM19.9853 21.335L18.7669 10.135L17.2098 10.3116L18.4284 21.5117L19.9853 21.335ZM16.4311 8H3.56884V9.6H16.4311V8ZM18.7669 10.135C18.6347 8.91952 17.6287 8 16.4311 8V9.6C16.8303 9.6 17.1656 9.90651 17.2098 10.3116L18.7669 10.135ZM17.6497 24C19.0503 24 20.1401 22.7566 19.9853 21.335L18.4284 21.5117C18.4799 21.9856 18.1166 22.4 17.6497 22.4V24ZM0.0146526 21.335C-0.140026 22.7566 0.949667 24 2.3503 24V22.4C1.88343 22.4 1.52019 21.9856 1.57175 21.5117L0.0146526 21.335ZM2.79029 10.3116C2.83437 9.90651 3.16969 9.6 3.56884 9.6V8C2.37139 8 1.36542 8.91952 1.23319 10.135L2.79029 10.3116ZM6.08331 6.4V5.6H4.51662V6.4H6.08331ZM13.9167 5.6V6.4H15.4835V5.6H13.9167ZM10 1.6C12.1632 1.6 13.9167 3.39086 13.9167 5.6H15.4835C15.4835 2.5072 13.0284 0 10 0V1.6ZM6.08331 5.6C6.08331 3.39086 7.83688 1.6 10 1.6V0C6.97162 0 4.51662 2.5072 4.51662 5.6H6.08331Z" fill="#4F4F4F"/>
</svg>
