<svg width="40" height="40" viewBox="0 0 40 40" fill="none" xmlns="http://www.w3.org/2000/svg">
<rect x="18" width="4" height="4" fill="#DEBF7D"/>
<rect x="18" y="6" width="4" height="4" fill="#DEBF7D"/>
<rect x="12" y="6" width="4" height="4" fill="#DEBF7D"/>
<rect x="12" y="12" width="4" height="4" fill="#DEBF7D"/>
<rect x="12" y="24" width="4" height="4" fill="#DEBF7D"/>
<rect x="6" y="12" width="4" height="4" fill="#DEBF7D"/>
<rect x="6" y="24" width="4" height="4" fill="#DEBF7D"/>
<rect x="6" y="18" width="4" height="4" fill="#DEBF7D"/>
<rect y="18" width="4" height="4" fill="#DEBF7D"/>
<rect x="24" y="6" width="4" height="4" fill="#DEBF7D"/>
<rect x="24" y="12" width="4" height="4" fill="#DEBF7D"/>
<rect x="24" y="24" width="4" height="4" fill="#DEBF7D"/>
<rect x="30" y="12" width="4" height="4" fill="#DEBF7D"/>
<rect x="30" y="24" width="4" height="4" fill="#DEBF7D"/>
<rect x="30" y="18" width="4" height="4" fill="#DEBF7D"/>
<rect x="36" y="18" width="4" height="4" fill="#DEBF7D"/>
<rect x="22" y="40" width="4" height="4" transform="rotate(-180 22 40)" fill="#DEBF7D"/>
<rect x="22" y="34" width="4" height="4" transform="rotate(-180 22 34)" fill="#DEBF7D"/>
<rect x="28" y="34" width="4" height="4" transform="rotate(-180 28 34)" fill="#DEBF7D"/>
<rect x="16" y="34" width="4" height="4" transform="rotate(-180 16 34)" fill="#DEBF7D"/>
</svg>
