<svg width="60" height="32" viewBox="0 0 60 32" fill="none" xmlns="http://www.w3.org/2000/svg">
<rect x="29" width="3" height="3" fill="#DEBF7D"/>
<rect x="29" y="4" width="3" height="3" fill="#DEBF7D"/>
<rect x="25" y="4" width="3" height="3" fill="#DEBF7D"/>
<rect x="25" y="8" width="3" height="3" fill="#DEBF7D"/>
<rect x="25" y="16" width="3" height="3" fill="#DEBF7D"/>
<rect x="29" y="12" width="3" height="3" fill="#DEBF7D"/>
<rect x="21" y="8" width="3" height="3" fill="#DEBF7D"/>
<rect x="21" y="16" width="3" height="3" fill="#DEBF7D"/>
<rect x="21" y="12" width="3" height="3" fill="#DEBF7D"/>
<rect x="17" y="12" width="3" height="3" fill="#DEBF7D"/>
<rect x="33" y="4" width="3" height="3" fill="#DEBF7D"/>
<rect x="33" y="8" width="3" height="3" fill="#DEBF7D"/>
<rect x="33" y="16" width="3" height="3" fill="#DEBF7D"/>
<rect x="37" y="8" width="3" height="3" fill="#DEBF7D"/>
<rect x="37" y="16" width="3" height="3" fill="#DEBF7D"/>
<rect x="37" y="12" width="3" height="3" fill="#DEBF7D"/>
<rect x="41" y="12" width="3" height="3" fill="#DEBF7D"/>
<rect x="32" y="27" width="3" height="3" transform="rotate(-180 32 27)" fill="#DEBF7D"/>
<rect x="32" y="23" width="3" height="3" transform="rotate(-180 32 23)" fill="#DEBF7D"/>
<rect x="36" y="23" width="3" height="3" transform="rotate(-180 36 23)" fill="#DEBF7D"/>
<rect x="28" y="23" width="3" height="3" transform="rotate(-180 28 23)" fill="#DEBF7D"/>
<rect x="49" y="20" width="3" height="3" fill="#DEBF7D"/>
<rect x="49" y="24" width="3" height="3" fill="#DEBF7D"/>
<rect x="45" y="24" width="3" height="3" fill="#DEBF7D"/>
<rect x="45" y="28" width="3" height="3" fill="#DEBF7D"/>
<rect x="41" y="28" width="3" height="3" fill="#DEBF7D"/>
<rect x="53" y="24" width="3" height="3" fill="#DEBF7D"/>
<rect x="53" y="28" width="3" height="3" fill="#DEBF7D"/>
<rect x="57" y="28" width="3" height="3" fill="#DEBF7D"/>
<rect x="9" y="20" width="3" height="3" fill="#DEBF7D"/>
<rect x="9" y="24" width="3" height="3" fill="#DEBF7D"/>
<rect x="5" y="24" width="3" height="3" fill="#DEBF7D"/>
<rect x="5" y="28" width="3" height="3" fill="#DEBF7D"/>
<rect x="1" y="28" width="3" height="3" fill="#DEBF7D"/>
<rect x="13" y="24" width="3" height="3" fill="#DEBF7D"/>
<rect x="13" y="28" width="3" height="3" fill="#DEBF7D"/>
<rect x="17" y="28" width="3" height="3" fill="#DEBF7D"/>
</svg>
