<svg width="120" height="130" viewBox="0 0 120 130" fill="none" xmlns="http://www.w3.org/2000/svg">
<path d="M0 0H120V70C120 103.137 93.1371 130 60 130C26.8629 130 0 103.137 0 70V0Z" fill="url(#paint0_linear_47_3982)"/>
<g clip-path="url(#clip0_47_3982)">
<path fill-rule="evenodd" clip-rule="evenodd" d="M60.0629 20.0819C61.6668 21.0602 63.1299 22.2569 64.411 23.6383C65.7403 25.0821 66.4871 26.9763 66.5045 28.9485C66.5045 33.986 63.4729 37.8354 61.5243 40.3053C61.045 40.8739 60.6064 41.4763 60.2118 42.1079C60.1514 42.2196 60.0497 42.3024 59.9289 42.3383C59.8081 42.3741 59.6782 42.3601 59.5677 42.2992C59.4895 42.2528 59.4244 42.1869 59.3785 42.1079C58.9842 41.4771 58.547 40.8748 58.07 40.3053C56.1214 37.8354 53.0898 33.986 53.0898 28.9485C53.1072 26.9763 53.854 25.0821 55.1834 23.6383C56.4661 22.2543 57.9321 21.0561 59.5395 20.0778C59.6175 20.027 59.7084 20 59.8012 20C59.894 20 59.9849 20.027 60.0629 20.0778V20.0819ZM63.6863 24.2731C62.5372 23.027 61.2262 21.9442 59.7891 21.0544C58.3512 21.9431 57.04 23.026 55.8919 24.2731C54.7164 25.5424 54.053 27.21 54.0319 28.9485C54.0319 33.6523 56.9387 37.339 58.8027 39.7072C59.1812 40.1873 59.5194 40.6146 59.7891 40.993C60.0588 40.6146 60.397 40.1792 60.7755 39.7072C62.6395 37.339 65.5463 33.6523 65.5463 28.9485C65.5274 27.2111 64.8669 25.5436 63.6943 24.2731H63.6863Z" fill="white"/>
<path fill-rule="evenodd" clip-rule="evenodd" d="M60.4022 20.813V29.7824C61.0691 32.2778 65.6759 33.9578 65.6924 33.9619L65.5607 34.302C65.5607 34.302 61.7237 32.9088 60.4022 30.6962V34.0152C61.1927 35.9246 64.3709 36.4983 64.3791 36.5024L64.3091 36.8589C64.3091 36.8589 61.5838 36.3671 60.4022 34.7527V37.9652C61.0774 38.8666 62.4607 39.2641 62.4607 39.2641L62.3577 39.6165C61.6305 39.3925 60.9596 39.0168 60.3899 38.5142V42.3577H60.0193V38.5142C59.4496 39.0168 58.7787 39.3925 58.0515 39.6165L57.9486 39.2641C57.9486 39.2641 59.3483 38.8543 60.007 37.9652V34.7527C58.8254 36.3671 56.1083 36.8589 56.1001 36.8589L56.0301 36.5024C56.0301 36.5024 59.2166 35.9246 60.007 34.0152V30.6962C58.6855 32.9088 54.8609 34.2979 54.8485 34.302L54.7168 33.9619C54.7168 33.9619 59.3401 32.2778 60.007 29.7824V20.813H60.4022Z" fill="white"/>
<path fill-rule="evenodd" clip-rule="evenodd" d="M35.4473 26.9354C37.3579 26.9707 39.2545 27.268 41.0832 27.819C42.9782 28.3999 44.5863 29.6634 45.5919 31.3614C48.1291 35.7304 47.3954 40.5961 46.924 43.7233C46.7898 44.4522 46.7076 45.1897 46.6781 45.9302C46.6797 45.9936 46.6687 46.0567 46.6456 46.1159C46.6226 46.1751 46.5879 46.2291 46.5437 46.2749C46.4995 46.3207 46.4466 46.3574 46.3881 46.3828C46.3295 46.4082 46.2665 46.4218 46.2026 46.4228C46.1119 46.4231 46.0227 46.3992 45.9444 46.3536C45.284 46.005 44.5991 45.7043 43.895 45.4538C40.9315 44.2974 36.3203 42.4977 33.7831 38.1246V38.0961C32.8159 36.3866 32.5236 34.3807 32.9634 32.4689C33.3972 30.619 34.0869 28.8376 35.0128 27.1756C35.0555 27.0932 35.121 27.0245 35.2016 26.9776C35.2821 26.9308 35.3745 26.9076 35.4678 26.911L35.4473 26.9354ZM40.7758 28.731C39.1344 28.2343 37.433 27.9604 35.7178 27.9167C34.8992 29.4147 34.2883 31.0158 33.902 32.6766C33.5106 34.3616 33.7603 36.1309 34.6029 37.6441V37.6686C36.972 41.7403 41.3906 43.4708 44.227 44.5905C44.8049 44.8145 45.3173 45.0181 45.7477 45.2094C45.7928 44.7453 45.8747 44.2119 45.9649 43.6092C46.4199 40.6124 47.1249 35.9462 44.7557 31.8704C43.8681 30.3664 42.445 29.2477 40.7676 28.7351L40.7758 28.731Z" fill="white"/>
<path fill-rule="evenodd" clip-rule="evenodd" d="M35.5409 27.3169L40.0471 35.0354C41.8759 36.8513 46.7199 36.0185 46.7322 36.0145L46.7899 36.372C46.7899 36.372 42.7615 37.0666 40.5043 35.8195L42.1766 38.6632C43.8242 39.9103 46.864 38.8378 46.8723 38.8338L46.9917 39.1791C46.9917 39.1791 44.3844 40.0972 42.5432 39.2969L44.1579 42.0552C45.1959 42.494 46.6087 42.1487 46.6293 42.1487L46.7116 42.498C45.9617 42.6765 45.181 42.689 44.4256 42.5346L46.3615 45.8373L46.0444 46.0161L44.1084 42.7134C43.8671 43.4255 43.4754 44.079 42.9592 44.6308L42.6874 44.3871C42.6874 44.3871 43.7048 43.3471 43.8325 42.2421L42.2178 39.4837C42.0036 41.454 39.8988 43.2171 39.8906 43.2252L39.6517 42.949C39.6517 42.949 42.1231 40.8812 41.8471 38.85L40.1789 36.0063C40.1459 38.5575 37.5304 41.6409 37.5221 41.6531L37.2379 41.4215C37.2379 41.4215 40.4013 37.6922 39.7093 35.2182L35.2031 27.4997L35.5409 27.3169Z" fill="white"/>
<path fill-rule="evenodd" clip-rule="evenodd" d="M17.1957 45.0183C18.8481 44.0928 20.6207 43.4033 22.4623 42.9697C24.3836 42.5207 26.4025 42.8131 28.1198 43.7892C32.4903 46.3253 34.2906 50.9346 35.4515 53.8928C35.7016 54.5968 36.0024 55.2815 36.3516 55.9414C36.3848 55.9956 36.4069 56.0559 36.4166 56.1188C36.4264 56.1816 36.4236 56.2458 36.4085 56.3076C36.3933 56.3694 36.3661 56.4275 36.3283 56.4786C36.2906 56.5297 36.2431 56.5727 36.1887 56.6051C36.1025 56.6596 36.0009 56.6841 35.8995 56.6748C35.1629 56.7077 34.4294 56.7912 33.7041 56.9247C30.5759 57.3959 25.7085 58.1293 21.3381 55.5931H21.3096C19.623 54.581 18.3703 52.9749 17.7945 51.0862C17.2433 49.2583 16.9459 47.3625 16.9106 45.4526C16.9064 45.3545 16.9318 45.2575 16.9834 45.1741C17.035 45.0908 17.1104 45.025 17.1998 44.9855L17.1957 45.0183ZM22.6455 43.9326C20.9843 44.3188 19.3826 44.9293 17.8841 45.7476C17.9278 47.4622 18.2018 49.1629 18.6987 50.8035C19.2009 52.4704 20.3014 53.8898 21.7861 54.786H21.8106C25.8837 57.1542 30.5556 56.4494 33.5534 56.0151C34.1603 55.925 34.6979 55.8431 35.1826 55.798C34.9912 55.3678 34.7753 54.8556 34.5635 54.2779C33.4556 51.4427 31.7123 47.0259 27.6392 44.6578C26.1225 43.7991 24.3418 43.5405 22.6455 43.9326Z" fill="white"/>
<path fill-rule="evenodd" clip-rule="evenodd" d="M17.5156 45.2031L25.2171 49.5707C27.6922 50.2255 31.4068 47.1753 31.419 47.1753L31.6507 47.4508C31.6507 47.4508 28.5538 49.9939 26.0015 50.0259L28.8464 51.6228C30.8785 51.8903 32.939 49.5029 32.9472 49.4989L33.2276 49.7224C33.2276 49.7224 31.4515 51.7745 29.4804 51.9821L32.24 53.5471C33.3454 53.4233 34.3818 52.4412 34.3859 52.4372L34.6297 52.7007C34.0776 53.2011 33.4238 53.5807 32.7114 53.8146L36.0156 55.691L35.8368 55.9984L32.5326 54.122C32.6834 54.846 32.6751 55.5932 32.5082 56.3138L32.1546 56.2339C32.1546 56.2339 32.5001 54.8606 32.0612 53.8385L29.3016 52.2735C30.1144 54.0581 29.1878 56.5773 29.1837 56.5852L28.8383 56.4695C28.8383 56.4695 29.9153 53.5112 28.6676 51.9142L25.8227 50.2973C27.0704 52.4851 26.3795 56.3776 26.3754 56.3896L26.0178 56.3337C26.0178 56.3337 26.855 51.6308 25.0383 49.8542L17.3164 45.4866L17.5156 45.2031Z" fill="white"/>
<path fill-rule="evenodd" clip-rule="evenodd" d="M10.082 69.531C11.0611 67.9271 12.2589 66.464 13.6416 65.1829C15.0815 63.8582 16.9694 63.1117 18.9363 63.0894C23.9784 63.0894 27.8313 66.1209 30.3035 68.0695C30.8726 68.5488 31.4755 68.9874 32.1077 69.382C32.2194 69.4424 32.3023 69.5441 32.3382 69.6649C32.3741 69.7857 32.3601 69.9156 32.2991 70.0262C32.2527 70.1043 32.1868 70.1695 32.1077 70.2154C31.4763 70.6097 30.8735 71.0469 30.3035 71.5238C27.8313 73.4724 23.9784 76.504 18.9363 76.504C16.9694 76.4816 15.0815 75.7351 13.6416 74.4105C12.2563 73.1277 11.0571 71.6618 10.0779 70.0543C10.027 69.9763 10 69.8855 10 69.7926C10 69.6998 10.027 69.609 10.0779 69.531H10.082ZM14.277 65.9076C13.0297 67.0566 11.946 68.3676 11.0554 69.8047C11.9448 71.2426 13.0287 72.5538 14.277 73.7019C15.5474 74.8774 17.2166 75.5409 18.9566 75.5619C23.6648 75.5619 27.3547 72.6551 29.7251 70.7911C30.2057 70.4127 30.6333 70.0745 31.0121 69.8047C30.6333 69.535 30.1976 69.1968 29.7251 68.8184C27.3547 66.9543 23.6648 64.0475 18.9566 64.0475C17.2177 64.0664 15.5486 64.7269 14.277 65.8995V65.9076Z" fill="white"/>
<path fill-rule="evenodd" clip-rule="evenodd" d="M10.8125 70.0055H19.782C22.2773 69.3386 23.9573 64.7318 23.9614 64.7153L24.3015 64.8471C24.3015 64.8471 22.9084 68.684 20.6957 70.0055H24.0147C25.9241 69.2151 26.4978 66.0369 26.5019 66.0286L26.8584 66.0986C26.8584 66.0986 26.3667 68.824 24.7522 70.0055H27.9647C28.8661 69.3304 29.2636 67.9471 29.2636 67.9471L29.616 68.05C29.3921 68.7773 29.0163 69.4481 28.5138 70.0179H32.3572V70.3884H28.5138C29.0163 70.9581 29.3921 71.629 29.616 72.3563L29.2636 72.4592C29.2636 72.4592 28.8539 71.0595 27.9647 70.4008H24.7522C26.3667 71.5823 26.8584 74.2994 26.8584 74.3077L26.5019 74.3777C26.5019 74.3777 25.9241 71.1912 24.0147 70.4008H20.6957C22.9084 71.7223 24.2974 75.5469 24.3015 75.5592L23.9614 75.6909C23.9614 75.6909 22.2773 71.0677 19.782 70.4008H10.8125V70.0055Z" fill="white"/>
<path fill-rule="evenodd" clip-rule="evenodd" d="M16.9349 94.9384C16.9721 93.0346 17.2694 91.1451 17.8185 89.3229C18.3994 87.4279 19.6629 85.8198 21.3609 84.8142C25.7299 82.277 30.5957 83.0107 33.7228 83.4821C34.4517 83.6163 35.1892 83.6985 35.9297 83.728C35.9931 83.7264 36.0562 83.7374 36.1154 83.7605C36.1746 83.7835 36.2286 83.8182 36.2745 83.8624C36.3203 83.9066 36.3569 83.9595 36.3823 84.018C36.4077 84.0766 36.4213 84.1396 36.4223 84.2035C36.4226 84.2942 36.3987 84.3834 36.3531 84.4617C36.0045 85.1221 35.7038 85.8071 35.4533 86.5111C34.2969 89.4746 32.4972 94.0858 28.1241 96.623H28.0956C26.3861 97.5903 24.3802 97.8825 22.4684 97.4427C20.6185 97.0089 18.8371 96.3192 17.1751 95.3933C17.0927 95.3506 17.024 95.2851 16.9771 95.2046C16.9303 95.124 16.9071 95.0317 16.9105 94.9384H16.9349ZM18.7305 89.6099C18.2338 91.2512 17.9599 92.9526 17.9162 94.6678C19.4142 95.4865 21.0154 96.0973 22.6761 96.4836C24.3611 96.875 26.1304 96.6254 27.6436 95.7827H27.6681C31.7398 93.4136 33.4703 88.995 34.5901 86.1545C34.814 85.5807 35.0176 85.0683 35.209 84.638C34.7448 84.5929 34.2114 84.5109 33.6088 84.4207C30.6119 83.9657 25.9457 83.2607 21.8699 85.6504C20.3683 86.5323 19.2486 87.9475 18.7305 89.6181V89.6099Z" fill="white"/>
<path fill-rule="evenodd" clip-rule="evenodd" d="M34.3899 87.7265C34.3899 87.7265 33.3495 86.7073 32.2441 86.5794L29.4845 88.1969C31.4556 88.4114 33.2195 90.5199 33.2276 90.5282L32.9512 90.7675C32.9512 90.7675 30.8826 88.2918 28.8505 88.5682L26.0056 90.2187C28.5579 90.2517 31.6426 92.8719 31.6547 92.8801L31.4231 93.1648C31.4231 93.1648 27.6922 89.9959 25.2171 90.6891L17.4952 95.2032L17.3164 94.8855L25.0383 90.3714C26.855 88.5393 26.0218 83.6869 26.0178 83.6745L26.3754 83.6167C26.3754 83.6167 27.0704 87.6522 25.8227 89.9133L28.6676 88.2381C29.9153 86.5876 28.8424 83.5425 28.8383 83.5342L29.1837 83.4146C29.1837 83.4146 30.1022 86.0306 29.2975 87.8709L32.0612 86.2534C32.5001 85.2136 32.1546 83.7983 32.1546 83.7777L32.5042 83.6951C32.6764 84.4391 32.6861 85.2123 32.5326 85.9604L35.8368 84.0211L36.0156 84.3388L32.7114 86.2781C33.4238 86.5199 34.0776 86.9122 34.6297 87.4294L34.3899 87.7265Z" fill="white"/>
<path fill-rule="evenodd" clip-rule="evenodd" d="M35.0178 112.804C34.0923 111.151 33.4028 109.379 32.9692 107.537C32.5202 105.616 32.8127 103.597 33.7887 101.88C36.3248 97.5092 40.9342 95.7089 43.8923 94.5481C44.596 94.2972 45.2806 93.9963 45.9409 93.6479C45.9951 93.6147 46.0554 93.5926 46.1183 93.5829C46.1811 93.5731 46.2453 93.5759 46.3071 93.591C46.3689 93.6062 46.427 93.6334 46.4781 93.6712C46.5292 93.7089 46.5722 93.7564 46.6047 93.8108C46.6591 93.897 46.6836 93.9986 46.6743 94.1C46.7072 94.8366 46.7907 95.5701 46.9242 96.2954C47.3954 99.4236 48.1288 104.291 45.5926 108.661V108.69C44.5805 110.376 42.9744 111.629 41.0858 112.205C39.2578 112.756 37.362 113.054 35.4521 113.089C35.354 113.093 35.257 113.068 35.1736 113.016C35.0903 112.964 35.0246 112.889 34.9851 112.8L35.0178 112.804ZM33.9321 107.354C34.3138 109.012 34.9188 110.61 35.7307 112.107C37.4453 112.064 39.146 111.79 40.7867 111.293C42.4535 110.79 43.873 109.69 44.7691 108.205V108.181C47.1373 104.108 46.4326 99.4358 45.9778 96.438C45.8876 95.8311 45.8057 95.2934 45.7606 94.8087C45.3304 95.0002 44.8183 95.216 44.2406 95.4278C41.4053 96.5357 36.9886 98.279 34.6204 102.352C33.7666 103.874 33.5153 105.658 33.9157 107.354H33.9321Z" fill="white"/>
<path fill-rule="evenodd" clip-rule="evenodd" d="M35.2031 112.504L39.7172 104.794C40.3939 102.32 37.2415 98.5977 37.2415 98.5854L37.5262 98.3535C37.5262 98.3535 40.1546 101.454 40.1876 104.009L41.8587 101.161C42.1352 99.1266 39.6677 97.0638 39.6636 97.0557L39.8946 96.7749C39.8946 96.7749 42.0155 98.5529 42.2301 100.526L43.8476 97.7636C43.7155 96.6529 42.7046 95.6194 42.7005 95.6154L42.9728 95.3713C43.4899 95.9239 43.8823 96.5784 44.124 97.2916L46.0633 93.9839L46.3811 94.1629L44.4417 97.4706C45.19 97.3197 45.9623 97.328 46.707 97.4951L46.6245 97.849C46.6245 97.849 45.2051 97.5032 44.1488 97.9426L42.5354 100.705C44.3798 99.8915 46.9835 100.819 46.9917 100.823L46.8721 101.169C46.8721 101.169 43.8146 100.091 42.1682 101.34L40.4929 104.188C42.7541 102.939 46.7772 103.63 46.7895 103.635L46.7318 103.993C46.7318 103.993 41.867 103.154 40.0349 104.973L35.5208 112.683L35.2031 112.504Z" fill="white"/>
<path fill-rule="evenodd" clip-rule="evenodd" d="M59.5314 119.918C57.9275 118.94 56.4645 117.743 55.1834 116.362C53.854 114.918 53.1072 113.023 53.0898 111.051C53.0898 106.014 56.1214 102.164 58.07 99.6945C58.5493 99.1259 58.9879 98.5235 59.3825 97.8919C59.4429 97.7803 59.5446 97.6974 59.6654 97.6616C59.7862 97.6257 59.9161 97.6398 60.0266 97.7006C60.1048 97.747 60.17 97.8129 60.2159 97.8919C60.6102 98.5227 61.0474 99.125 61.5243 99.6945C63.4729 102.164 66.5045 106.014 66.5045 111.051C66.4871 113.023 65.7403 114.918 64.411 116.362C63.1282 117.746 61.6623 118.944 60.0548 119.922C59.9768 119.973 59.886 120 59.7931 120C59.7003 120 59.6095 119.973 59.5314 119.922V119.918ZM55.908 115.727C57.0571 116.973 58.3681 118.056 59.8052 118.945C61.2423 118.056 62.5533 116.973 63.7024 115.727C64.8779 114.457 65.5414 112.79 65.5624 111.051C65.5624 106.347 62.6556 102.661 60.7916 100.293C60.4131 99.8125 60.075 99.3852 59.8052 99.0068C59.5355 99.3852 59.1973 99.8206 58.8188 100.293C56.9548 102.661 54.048 106.347 54.048 111.051C54.0669 112.789 54.7274 114.456 55.9 115.727H55.908Z" fill="white"/>
<path fill-rule="evenodd" clip-rule="evenodd" d="M60.007 119.594V110.624C59.3401 108.129 54.7333 106.449 54.7168 106.445L54.8485 106.105C54.8485 106.105 58.6855 107.498 60.007 109.71V106.391C59.2166 104.482 56.0383 103.908 56.0301 103.904L56.1001 103.548C56.1001 103.548 58.8254 104.039 60.007 105.654V102.441C59.3318 101.54 57.9486 101.142 57.9486 101.142L58.0515 100.79C58.7787 101.014 59.4496 101.39 60.0193 101.892V98.0488H60.3899V101.892C60.9596 101.39 61.6305 101.014 62.3577 100.79L62.4607 101.142C62.4607 101.142 61.0609 101.552 60.4022 102.441V105.654C61.5838 104.039 64.3009 103.548 64.3091 103.548L64.3791 103.904C64.3791 103.904 61.1927 104.482 60.4022 106.391V109.71C61.7237 107.498 65.5483 106.109 65.5607 106.105L65.6924 106.445C65.6924 106.445 61.0691 108.129 60.4022 110.624V119.594H60.007Z" fill="white"/>
<path fill-rule="evenodd" clip-rule="evenodd" d="M84.9584 113.471C83.0477 113.436 81.1512 113.139 79.3224 112.588C77.4274 112.007 75.8194 110.743 74.8137 109.045C72.2765 104.676 73.0102 99.8106 73.4816 96.6835C73.6158 95.9545 73.698 95.217 73.7275 94.4766C73.7259 94.4131 73.7369 94.35 73.76 94.2908C73.783 94.2316 73.8177 94.1776 73.8619 94.1318C73.9061 94.086 73.959 94.0493 74.0175 94.0239C74.0761 93.9986 74.1391 93.9849 74.203 93.9839C74.2937 93.9836 74.3829 94.0076 74.4612 94.0531C75.1216 94.4017 75.8066 94.7025 76.5106 94.953C79.4741 96.1093 84.0853 97.9091 86.6225 102.282V102.311C87.5898 104.02 87.882 106.026 87.4423 107.938C87.0084 109.788 86.3187 111.569 85.3928 113.231C85.3501 113.314 85.2846 113.382 85.2041 113.429C85.1235 113.476 85.0312 113.499 84.9379 113.496L84.9584 113.471ZM79.6299 111.676C81.2712 112.172 82.9726 112.446 84.6878 112.49C85.5065 110.992 86.1173 109.391 86.5036 107.73C86.8954 106.045 86.6442 104.275 85.7986 102.763V102.738C83.4295 98.6664 79.0109 96.9359 76.1704 95.8162C75.5966 95.5922 75.0842 95.3887 74.6539 95.1973C74.6088 95.6615 74.5268 96.1949 74.4366 96.7934C73.9816 99.7902 73.2767 104.456 75.6458 108.532C76.5337 110.039 77.9584 111.159 79.6381 111.672L79.6299 111.676Z" fill="white"/>
<path fill-rule="evenodd" clip-rule="evenodd" d="M84.885 112.683L80.3709 104.973C78.5388 103.138 73.674 103.989 73.674 103.993L73.6162 103.635C73.6162 103.635 77.6517 102.939 79.9129 104.188L78.2376 101.34C76.5871 100.091 73.542 101.165 73.5337 101.169L73.4141 100.823C73.4141 100.823 76.026 99.9037 77.8704 100.705L76.2529 97.9426C75.2131 97.5032 73.7978 97.849 73.7772 97.849L73.6946 97.4991C74.4386 97.3268 75.2118 97.317 75.9599 97.4707L74.0206 94.1629L74.3383 93.9839L76.2777 97.2916C76.5194 96.5785 76.9118 95.9239 77.4289 95.3713L77.7012 95.6154C77.7012 95.6154 76.682 96.6569 76.5541 97.7636L78.1716 100.526C78.3862 98.5529 80.4947 96.7871 80.5029 96.779L80.7422 97.0557C80.7422 97.0557 78.2665 99.1266 78.543 101.161L80.2141 104.009C80.2471 101.454 82.8672 98.3657 82.8755 98.3535L83.1602 98.5854C83.1602 98.5854 79.9913 102.32 80.6845 104.798L85.2027 112.496L84.885 112.683Z" fill="white"/>
<path fill-rule="evenodd" clip-rule="evenodd" d="M85.3878 27.1962C86.3133 28.8486 87.0028 30.6212 87.4364 32.4628C87.8854 34.3841 87.593 36.403 86.617 38.1203C84.0808 42.4908 79.4715 44.2911 76.5133 45.4519C75.8093 45.7021 75.1247 46.0029 74.4647 46.3521C74.4105 46.3853 74.3502 46.4074 74.2874 46.4171C74.2245 46.4269 74.1603 46.4241 74.0985 46.4089C74.0367 46.3938 73.9786 46.3665 73.9275 46.3288C73.8764 46.2911 73.8334 46.2436 73.801 46.1892C73.7465 46.103 73.722 46.0014 73.7313 45.9C73.6984 45.1634 73.6149 44.4299 73.4814 43.7046C73.0102 40.5764 72.2768 35.709 74.813 31.3386V31.3101C75.8251 29.6235 77.4312 28.3708 79.3199 27.795C81.1478 27.2438 83.0436 26.9464 84.9535 26.9111C85.0516 26.9069 85.1486 26.9323 85.232 26.9839C85.3153 27.0355 85.381 27.1109 85.4206 27.2003L85.3878 27.1962ZM86.4735 32.646C86.0866 30.9876 85.4761 29.3886 84.6585 27.8927C82.944 27.9364 81.2432 28.2105 79.6026 28.7073C77.9357 29.2096 76.5163 30.31 75.6201 31.7948V31.8192C73.252 35.8923 73.9567 40.5642 74.4115 43.562C74.5016 44.1689 74.5835 44.7066 74.6286 45.1913C75.0383 44.9998 75.571 44.784 76.1487 44.5721C78.9839 43.4643 83.4007 41.721 85.7688 37.6478C86.6227 36.1262 86.874 34.3424 86.4735 32.646Z" fill="white"/>
<path fill-rule="evenodd" clip-rule="evenodd" d="M85.2027 27.516L80.6854 35.2136C80.0083 37.6846 83.1629 41.4033 83.1629 41.4155L82.878 41.6471C82.878 41.6471 80.2477 38.5502 80.2147 35.9979L78.5424 38.8428C78.2658 40.8749 80.735 42.9354 80.7391 42.9436L80.5079 43.224C80.5079 43.224 78.3855 41.448 78.1708 39.4769L76.5563 42.2405C76.6884 43.3459 77.7001 44.3823 77.7042 44.3864L77.4317 44.6302C76.9142 44.0781 76.5215 43.4243 76.2797 42.7119L74.339 46.0161L74.021 45.8373L75.9617 42.5331C75.2129 42.6839 74.4401 42.6756 73.6948 42.5087L73.7774 42.1551C73.7774 42.1551 75.1978 42.5006 76.2549 42.0617L77.8735 39.3021C76.0278 40.1149 73.4223 39.1883 73.4141 39.1842L73.5338 38.8388C73.5338 38.8388 76.5935 39.9158 78.241 38.6681L79.9174 35.8232C77.6547 37.0709 73.6288 36.38 73.6164 36.3759L73.6742 36.0183C73.6742 36.0183 78.5424 36.8555 80.3757 35.0388L84.893 27.3169L85.2027 27.516Z" fill="white"/>
<path fill-rule="evenodd" clip-rule="evenodd" d="M35.5194 59.2756C35.5419 59.2253 35.5745 59.1799 35.6153 59.1418C35.6561 59.1037 35.7042 59.0738 35.757 59.0536C35.8097 59.0335 35.8661 59.0236 35.9228 59.0245C35.9796 59.0253 36.0356 59.037 36.0876 59.0588C36.1397 59.0805 36.1868 59.1119 36.2263 59.1513C36.2658 59.1906 36.2968 59.237 36.3177 59.2879C36.3386 59.3388 36.3488 59.3932 36.3479 59.4479C36.347 59.5026 36.3349 59.5567 36.3124 59.6069C34.799 62.9619 34.0236 66.5834 34.0352 70.2423C34.0477 73.8796 34.8479 77.4742 36.3845 80.7958C36.4311 80.8967 36.4344 81.0113 36.3934 81.1145C36.3524 81.2177 36.2707 81.301 36.1661 81.346C36.0615 81.391 35.9426 81.3941 35.8357 81.3546C35.7287 81.3151 35.6424 81.2362 35.5957 81.1353C34.0088 77.7071 33.1825 73.9967 33.1701 70.2423C33.1566 66.4691 33.9566 62.7345 35.5194 59.2756Z" fill="white"/>
<path fill-rule="evenodd" clip-rule="evenodd" d="M66.3861 93.5684C66.3574 93.5766 66.3275 93.579 66.2979 93.5755C66.2683 93.572 66.2398 93.5627 66.2138 93.5481C66.1878 93.5334 66.1649 93.5138 66.1465 93.4902C66.128 93.4667 66.1143 93.4397 66.1062 93.4109C66.0981 93.382 66.0957 93.3518 66.0992 93.3221C66.1027 93.2923 66.1119 93.2635 66.1265 93.2373C66.141 93.2111 66.1605 93.1881 66.1838 93.1695C66.2072 93.1509 66.234 93.1371 66.2626 93.129C70.3673 91.9948 74.1023 89.7894 77.0902 86.7356C77.111 86.7141 77.1358 86.6969 77.1632 86.6851C77.1906 86.6732 77.22 86.6669 77.2499 86.6665C77.2797 86.6661 77.3093 86.6717 77.3369 86.6828C77.3646 86.6939 77.3899 86.7105 77.4112 86.7314C77.4326 86.7524 77.4496 86.7774 77.4614 86.805C77.4731 86.8326 77.4794 86.8622 77.4798 86.8923C77.4801 86.9223 77.4746 86.9521 77.4636 86.98C77.4525 87.0079 77.4361 87.0333 77.4153 87.0548C74.3702 90.1639 70.5663 92.4104 66.3861 93.5684Z" fill="white"/>
<path fill-rule="evenodd" clip-rule="evenodd" d="M83.6569 76.3331C83.6507 76.3621 83.6392 76.3895 83.623 76.4135C83.6068 76.4376 83.5863 76.4578 83.5627 76.4731C83.5391 76.4883 83.5128 76.4982 83.4856 76.5022C83.4583 76.5062 83.4305 76.5042 83.404 76.4963C83.3511 76.481 83.3059 76.4436 83.2783 76.3924C83.2507 76.3412 83.243 76.2803 83.2568 76.223C83.7464 74.1867 83.9874 72.0899 83.9739 69.986C83.9632 67.8889 83.6954 65.8027 83.1776 63.7817C83.1702 63.753 83.1681 63.723 83.1715 63.6935C83.1749 63.664 83.1837 63.6355 83.1974 63.6097C83.2111 63.5838 83.2294 63.5612 83.2513 63.5431C83.2732 63.525 83.2981 63.5118 83.3248 63.5043C83.351 63.4963 83.3785 63.4941 83.4056 63.4979C83.4327 63.5016 83.4588 63.5112 83.4823 63.526C83.5059 63.5408 83.5265 63.5606 83.5429 63.5842C83.5592 63.6078 83.5711 63.6347 83.5776 63.6634C84.6325 67.8059 84.6598 72.1756 83.6569 76.3331Z" fill="white"/>
<path fill-rule="evenodd" clip-rule="evenodd" d="M77.0035 52.5484C77.0247 52.5686 77.0416 52.5927 77.0533 52.6193C77.065 52.6459 77.0712 52.6745 77.0715 52.7035C77.0719 52.7325 77.0665 52.7612 77.0555 52.7881C77.0445 52.815 77.0283 52.8396 77.0076 52.8603C76.987 52.881 76.9624 52.8976 76.9352 52.909C76.908 52.9205 76.8788 52.9265 76.8492 52.9269C76.8196 52.9273 76.7902 52.9219 76.7628 52.9112C76.7353 52.9005 76.7103 52.8845 76.6891 52.8643C75.1887 51.4156 73.5013 50.1654 71.6698 49.1453C69.8439 48.1356 67.8898 47.3664 65.8581 46.8579C65.8002 46.8431 65.7506 46.8063 65.7204 46.7557C65.6901 46.7051 65.6816 46.6448 65.6968 46.588C65.712 46.5313 65.7495 46.4828 65.8012 46.4531C65.8529 46.4235 65.9145 46.4152 65.9725 46.4301C68.0416 46.9571 70.0312 47.7477 71.8903 48.7814C73.7543 49.8146 75.4732 51.0809 77.0035 52.5484Z" fill="white"/>
<path fill-rule="evenodd" clip-rule="evenodd" d="M53.6132 46.4315C53.671 46.415 53.733 46.4223 53.7855 46.4519C53.838 46.4814 53.8767 46.5307 53.8931 46.589C53.9095 46.6472 53.9022 46.7097 53.8728 46.7625C53.8435 46.8154 53.7945 46.8543 53.7367 46.8708C49.63 48.004 45.8938 50.2103 42.907 53.2662C42.886 53.2875 42.861 53.3044 42.8334 53.316C42.8059 53.3275 42.7763 53.3334 42.7465 53.3334C42.7166 53.3334 42.6871 53.3275 42.6595 53.316C42.632 53.3044 42.607 53.2875 42.5859 53.2662C42.5649 53.2454 42.5482 53.2205 42.5368 53.1931C42.5254 53.1657 42.5195 53.1363 42.5195 53.1066C42.5195 53.0769 42.5254 53.0475 42.5368 53.0201C42.5482 52.9927 42.5649 52.9679 42.5859 52.947C44.0981 51.3988 45.8075 50.0595 47.6694 48.9639C49.5321 47.8616 51.5304 47.0102 53.6132 46.4315Z" fill="white"/>
<path fill-rule="evenodd" clip-rule="evenodd" d="M36.3512 63.6881C36.3554 63.657 36.3656 63.6272 36.3811 63.6006C36.3967 63.5741 36.4172 63.5513 36.4415 63.5338C36.4657 63.5164 36.4931 63.5046 36.5218 63.4993C36.5506 63.494 36.58 63.4953 36.6083 63.503C36.6365 63.5108 36.663 63.5249 36.6858 63.5443C36.7087 63.5638 36.7275 63.5883 36.7411 63.6161C36.7546 63.6439 36.7626 63.6745 36.7645 63.7059C36.7663 63.7373 36.762 63.7687 36.7519 63.7982C36.2619 65.8339 36.0192 67.9296 36.0299 70.0326C36.0415 72.1271 36.3084 74.2109 36.8237 76.2304C36.8356 76.2868 36.8268 76.3458 36.7993 76.3954C36.7717 76.4449 36.7275 76.481 36.6758 76.4963C36.6242 76.5115 36.569 76.5047 36.5219 76.4772C36.4748 76.4497 36.4394 76.4036 36.423 76.3486C35.3658 72.2092 35.3384 67.8426 36.3436 63.6881H36.3512Z" fill="white"/>
<path fill-rule="evenodd" clip-rule="evenodd" d="M43.0085 87.46C42.9846 87.4406 42.9652 87.4166 42.9513 87.3895C42.9374 87.3624 42.9295 87.3328 42.928 87.3026C42.9265 87.2723 42.9314 87.2421 42.9425 87.2138C42.9536 87.1856 42.9705 87.1598 42.9923 87.1383C43.0141 87.1167 43.0403 87.0998 43.0691 87.0887C43.098 87.0775 43.1289 87.0723 43.1599 87.0734C43.1909 87.0745 43.2213 87.0818 43.2493 87.095C43.2772 87.1082 43.302 87.1269 43.3222 87.1499C46.3268 90.0418 50.0588 92.1108 54.1428 93.1488C54.1714 93.1558 54.1983 93.1682 54.2218 93.1854C54.2454 93.2027 54.2652 93.2244 54.28 93.2492C54.2948 93.2741 54.3044 93.3015 54.3081 93.3301C54.3118 93.3586 54.3096 93.3875 54.3017 93.4152C54.2864 93.471 54.2491 93.5186 54.1979 93.5476C54.1468 93.5767 54.086 93.5848 54.0287 93.5702C49.8754 92.5168 46.0808 90.4117 43.0288 87.4679L43.0085 87.46Z" fill="white"/>
<path fill-rule="evenodd" clip-rule="evenodd" d="M60.0076 20.0001C71.5762 20.0018 82.7863 24.0151 91.7275 31.356C100.669 38.6969 106.788 48.9111 109.042 60.258C111.296 71.605 109.545 83.3824 104.089 93.5834C98.6322 103.784 89.8072 111.778 79.1176 116.201C68.4279 120.624 56.5352 121.204 45.4661 117.841C34.397 114.478 24.8365 107.381 18.4137 97.7593C11.991 88.1373 9.10352 76.5859 10.2434 65.0736C11.3832 53.5612 16.4799 42.8003 24.6648 34.6247C29.3025 29.9797 34.8122 26.2965 40.8773 23.7868C46.9425 21.2771 53.4437 19.9902 60.0076 20.0001ZM94.4607 35.5509C86.4897 27.58 76.0015 22.6195 64.7831 21.5146C53.5648 20.4098 42.3104 23.2289 32.9376 29.4917C23.5648 35.7545 16.6534 45.0734 13.3812 55.8607C10.109 66.648 10.6784 78.2361 14.9923 88.6507C19.3062 99.0652 27.0977 107.662 37.0393 112.976C46.9809 118.289 58.4575 119.992 69.5135 117.792C80.5695 115.593 90.5209 109.629 97.6722 100.915C104.823 92.2007 108.732 81.2767 108.732 70.0041C108.741 63.6042 107.484 57.2657 105.035 51.353C102.586 45.4403 98.9924 40.07 94.4607 35.5509Z" fill="white"/>
<path fill-rule="evenodd" clip-rule="evenodd" d="M86.5667 32.3762C86.5308 32.3529 86.5 32.3224 86.4762 32.2868C86.4523 32.2511 86.4358 32.211 86.4277 32.1687C86.4195 32.1265 86.42 32.083 86.4289 32.0409C86.4379 31.9988 86.4551 31.959 86.4797 31.9238C86.5043 31.8887 86.5357 31.8589 86.572 31.8362C86.6082 31.8136 86.6487 31.7986 86.6908 31.7922C86.733 31.7857 86.776 31.7879 86.8173 31.7987C86.8586 31.8094 86.8973 31.8285 86.9311 31.8547C91.1055 34.8301 94.7601 38.4858 97.7452 42.672C97.7692 42.7057 97.7864 42.7438 97.7958 42.7842C97.8051 42.8246 97.8065 42.8665 97.7998 42.9074C97.7931 42.9484 97.7785 42.9876 97.7568 43.0228C97.735 43.058 97.7066 43.0885 97.6732 43.1126C97.6048 43.1607 97.5205 43.18 97.4383 43.1664C97.356 43.1529 97.2822 43.1075 97.2326 43.0399C94.2908 38.9118 90.6873 35.3078 86.5707 32.3762H86.5667Z" fill="white"/>
<path fill-rule="evenodd" clip-rule="evenodd" d="M101.491 50.9404C101.457 50.8638 101.454 50.7763 101.481 50.6969C101.509 50.6176 101.566 50.5531 101.639 50.5175C101.712 50.4819 101.796 50.4781 101.872 50.5071C101.948 50.5361 102.01 50.5954 102.044 50.672C104.124 55.3825 105.439 60.4229 105.933 65.5858C105.937 65.6274 105.933 65.6694 105.921 65.7095C105.909 65.7495 105.89 65.7867 105.865 65.819C105.839 65.8513 105.808 65.878 105.773 65.8977C105.737 65.9173 105.699 65.9295 105.659 65.9335C105.619 65.9375 105.579 65.9332 105.541 65.921C105.502 65.9088 105.467 65.8888 105.436 65.8621C105.405 65.8355 105.379 65.8028 105.361 65.7658C105.342 65.7289 105.33 65.6884 105.326 65.6468C104.835 60.5566 103.539 55.587 101.491 50.9404Z" fill="white"/>
<path fill-rule="evenodd" clip-rule="evenodd" d="M105.717 73.9475C105.725 73.8637 105.765 73.7863 105.828 73.7324C105.892 73.6785 105.974 73.6524 106.056 73.66C106.139 73.6675 106.215 73.708 106.268 73.7725C106.321 73.8371 106.347 73.9204 106.339 74.0042C105.879 79.1483 104.576 84.1782 102.483 88.8862C102.469 88.9288 102.447 88.968 102.417 89.0013C102.387 89.0345 102.351 89.061 102.311 89.079C102.27 89.097 102.226 89.1061 102.182 89.1058C102.138 89.1055 102.094 89.0958 102.054 89.0772C102.014 89.0586 101.978 89.0316 101.948 88.998C101.919 88.9643 101.897 88.9248 101.884 88.8819C101.87 88.8391 101.866 88.7939 101.871 88.7493C101.876 88.7046 101.891 88.6616 101.913 88.6229C103.974 83.9794 105.26 79.0198 105.717 73.9475Z" fill="white"/>
<path fill-rule="evenodd" clip-rule="evenodd" d="M97.2307 96.5467C97.281 96.4818 97.3547 96.4387 97.4363 96.4264C97.5179 96.4142 97.6011 96.4337 97.6686 96.4808C97.736 96.528 97.7824 96.5992 97.7981 96.6795C97.8139 96.7598 97.7976 96.8431 97.7529 96.9118C94.7736 101.094 91.113 104.755 86.9212 107.746C86.8875 107.77 86.8493 107.787 86.8088 107.797C86.7684 107.806 86.7265 107.807 86.6855 107.801C86.6445 107.794 86.6052 107.779 86.57 107.758C86.5347 107.736 86.5042 107.707 86.48 107.674C86.4319 107.605 86.4125 107.521 86.4261 107.439C86.4397 107.356 86.4852 107.282 86.5529 107.232C90.6868 104.284 94.2956 100.672 97.2307 96.5467Z" fill="white"/>
<path fill-rule="evenodd" clip-rule="evenodd" d="M79.0609 111.492C79.1375 111.458 79.2251 111.454 79.3044 111.482C79.3837 111.51 79.4483 111.566 79.4839 111.64C79.5195 111.713 79.5232 111.797 79.4942 111.872C79.4652 111.948 79.4059 112.01 79.3293 112.044C74.6188 114.125 69.5784 115.439 64.4156 115.934C64.3739 115.937 64.3319 115.933 64.2919 115.922C64.2519 115.91 64.2146 115.891 64.1824 115.865C64.1501 115.84 64.1233 115.809 64.1037 115.773C64.084 115.738 64.0719 115.699 64.0679 115.659C64.0639 115.619 64.0681 115.579 64.0803 115.541C64.0926 115.503 64.1126 115.467 64.1392 115.436C64.1658 115.405 64.1986 115.38 64.2355 115.361C64.2725 115.342 64.3129 115.331 64.3546 115.327C69.4448 114.835 74.4144 113.539 79.0609 111.492Z" fill="white"/>
<path fill-rule="evenodd" clip-rule="evenodd" d="M56.0498 115.714C56.0914 115.718 56.1319 115.73 56.169 115.749C56.206 115.768 56.2389 115.794 56.2657 115.826C56.2925 115.858 56.3127 115.894 56.3252 115.934C56.3377 115.973 56.3422 116.014 56.3385 116.055C56.3347 116.097 56.3228 116.137 56.3034 116.173C56.284 116.21 56.2575 116.242 56.2254 116.269C56.1933 116.295 56.1563 116.315 56.1164 116.327C56.0765 116.34 56.0345 116.344 55.9929 116.34C50.8277 115.877 45.7773 114.566 41.0501 112.46C40.982 112.42 40.9311 112.357 40.9074 112.282C40.8836 112.208 40.8886 112.127 40.9214 112.056C40.9541 111.985 41.0124 111.928 41.0849 111.897C41.1575 111.865 41.2392 111.862 41.3144 111.886C45.9769 113.96 50.9568 115.254 56.0498 115.714Z" fill="white"/>
<path fill-rule="evenodd" clip-rule="evenodd" d="M33.4516 107.232C33.5165 107.282 33.5596 107.356 33.5719 107.437C33.5842 107.519 33.5647 107.602 33.5175 107.67C33.4703 107.737 33.3991 107.783 33.3187 107.799C33.2384 107.815 33.1551 107.799 33.0863 107.754C30.9993 106.265 29.0378 104.605 27.2217 102.791C25.406 100.978 23.7438 99.0147 22.2522 96.9222C22.2282 96.8884 22.211 96.8503 22.2016 96.8098C22.1922 96.7694 22.1908 96.7274 22.1975 96.6865C22.2043 96.6455 22.2189 96.6062 22.2407 96.571C22.2625 96.5357 22.291 96.5051 22.3245 96.481C22.393 96.4328 22.4775 96.4135 22.5599 96.4271C22.6424 96.4407 22.7163 96.4862 22.766 96.5538C25.7144 100.687 29.3258 104.296 33.4516 107.232Z" fill="white"/>
<path fill-rule="evenodd" clip-rule="evenodd" d="M18.116 89.1213C18.1319 89.1923 18.124 89.2668 18.0935 89.3324C18.0631 89.398 18.012 89.4507 17.9488 89.4817C17.8856 89.5128 17.8141 89.5203 17.7462 89.503C17.6783 89.4857 17.6182 89.4446 17.5759 89.3867C15.482 84.658 14.1591 79.5982 13.6616 74.4155C13.6577 74.3737 13.6618 74.3315 13.6736 74.2913C13.6854 74.2511 13.7046 74.2137 13.7302 74.1813C13.7559 74.1489 13.7873 74.1221 13.8229 74.1024C13.8585 74.0826 13.8974 74.0704 13.9375 74.0664C13.9776 74.0624 14.0181 74.0666 14.0566 74.0789C14.0951 74.0912 14.1309 74.1113 14.162 74.138C14.1931 74.1648 14.2188 74.1976 14.2377 74.2347C14.2566 74.2718 14.2683 74.3124 14.2722 74.3542C14.7669 79.464 16.0711 84.4528 18.1317 89.1172L18.116 89.1213Z" fill="white"/>
<path fill-rule="evenodd" clip-rule="evenodd" d="M14.2835 65.6462C14.2798 65.6876 14.2681 65.728 14.2491 65.7649C14.2301 65.8018 14.2041 65.8345 14.1726 65.8612C14.1412 65.8879 14.1048 65.908 14.0657 65.9205C14.0265 65.9329 13.9854 65.9374 13.9445 65.9337C13.9037 65.93 13.864 65.9181 13.8276 65.8988C13.7913 65.8795 13.7591 65.8531 13.7328 65.8211C13.7065 65.7892 13.6866 65.7523 13.6744 65.7125C13.6622 65.6728 13.6577 65.6309 13.6614 65.5895C14.1215 60.4453 15.4248 55.4154 17.5175 50.7075C17.5314 50.6648 17.5539 50.6256 17.5837 50.5924C17.6135 50.5592 17.6498 50.5327 17.6903 50.5147C17.7308 50.4966 17.7746 50.4875 17.8189 50.4878C17.8631 50.4881 17.9068 50.4979 17.947 50.5165C17.9873 50.535 18.0233 50.562 18.0526 50.5957C18.0819 50.6293 18.1039 50.6689 18.1172 50.7117C18.1305 50.7546 18.1347 50.7998 18.1296 50.8444C18.1245 50.889 18.1103 50.932 18.0877 50.9707C16.0266 55.6143 14.7409 60.5739 14.2835 65.6462Z" fill="white"/>
<path fill-rule="evenodd" clip-rule="evenodd" d="M22.3623 43.4531C22.312 43.518 22.2384 43.5611 22.1568 43.5734C22.0752 43.5856 21.9919 43.5661 21.9245 43.519C21.8571 43.4718 21.8106 43.4006 21.7949 43.3203C21.7792 43.24 21.7954 43.1567 21.8402 43.088C24.8195 38.9059 28.48 35.2444 32.6718 32.2537C32.7056 32.2296 32.7438 32.2124 32.7842 32.203C32.8247 32.1937 32.8666 32.1923 32.9076 32.199C32.9486 32.2057 32.9878 32.2204 33.0231 32.2422C33.0583 32.2639 33.0889 32.2924 33.113 32.3259C33.1612 32.3944 33.1805 32.4788 33.1669 32.5613C33.1533 32.6437 33.1079 32.7176 33.0402 32.7673C28.9063 35.7158 25.2975 39.3273 22.3623 43.4531Z" fill="white"/>
<path fill-rule="evenodd" clip-rule="evenodd" d="M40.9409 28.1014C40.903 28.1182 40.862 28.1278 40.8202 28.1295C40.7784 28.1312 40.7367 28.125 40.6974 28.1112C40.6581 28.0975 40.6221 28.0765 40.5913 28.0495C40.5605 28.0224 40.5356 27.9898 40.5179 27.9536C40.5003 27.9173 40.4903 27.8781 40.4886 27.8381C40.4868 27.7982 40.4933 27.7583 40.5076 27.7207C40.522 27.6831 40.5439 27.6487 40.5722 27.6192C40.6005 27.5898 40.6346 27.5659 40.6725 27.5491C45.383 25.4685 50.4234 24.1539 55.5862 23.6596C55.6704 23.6519 55.7543 23.6764 55.8195 23.7278C55.8847 23.7793 55.9259 23.8534 55.934 23.9338C55.9421 24.0143 55.9164 24.0945 55.8626 24.1569C55.8089 24.2192 55.7314 24.2586 55.6472 24.2664C50.557 24.7579 45.5874 26.0538 40.9409 28.1014Z" fill="white"/>
<path fill-rule="evenodd" clip-rule="evenodd" d="M63.9501 24.2855C63.9085 24.2818 63.868 24.27 63.8309 24.2509C63.7939 24.2318 63.761 24.2056 63.7342 24.1739C63.7074 24.1423 63.6872 24.1057 63.6747 24.0663C63.6622 24.0269 63.6577 23.9855 63.6614 23.9444C63.6652 23.9033 63.6771 23.8633 63.6965 23.8267C63.7159 23.7902 63.7424 23.7577 63.7744 23.7313C63.8065 23.7048 63.8436 23.6849 63.8835 23.6725C63.9234 23.6602 63.9654 23.6558 64.007 23.6595C69.1722 24.1225 74.2226 25.434 78.9498 27.5399C79.0179 27.5798 79.0687 27.643 79.0925 27.7176C79.1163 27.7922 79.1113 27.8728 79.0785 27.9439C79.0457 28.0151 78.9875 28.0718 78.9149 28.1031C78.8424 28.1345 78.7607 28.1383 78.6855 28.1138C74.0229 26.0396 69.0431 24.7458 63.9501 24.2855Z" fill="white"/>
<path fill-rule="evenodd" clip-rule="evenodd" d="M41.1761 51.3676C40.1424 51.6243 39.0783 51.7366 38.0138 51.7011C36.9083 51.6627 35.8573 51.211 35.0686 50.4354C33.0595 48.4263 32.7582 45.69 32.5613 43.926C32.5267 43.5067 32.4623 43.0905 32.3684 42.6804C32.3509 42.6159 32.3591 42.5472 32.3913 42.4887C32.4236 42.4302 32.4773 42.3865 32.5412 42.367C32.5873 42.3549 32.6357 42.3549 32.6818 42.367C33.0921 42.4591 33.5083 42.5222 33.9274 42.5558C35.6914 42.7567 38.4397 43.0702 40.4367 45.0672C41.2114 45.8549 41.663 46.9043 41.7024 48.0084C41.7383 49.0729 41.6261 50.1372 41.3689 51.1707C41.3592 51.2187 41.3359 51.2628 41.3016 51.2977C41.2674 51.3327 41.2238 51.3569 41.1761 51.3676ZM38.046 51.1948C39.0083 51.2279 39.9706 51.1306 40.9069 50.9055C41.133 49.9694 41.2317 49.0071 41.2002 48.0446C41.1651 47.0623 40.7655 46.1284 40.0791 45.4248C38.2067 43.5523 35.5668 43.251 33.8752 43.0581C33.5216 43.0179 33.2082 42.9858 32.943 42.9376C32.9872 43.2028 33.0233 43.5162 33.0635 43.8698C33.2524 45.5654 33.5537 48.2013 35.4262 50.0778C36.1311 50.7665 37.069 51.1652 38.054 51.1948H38.046Z" fill="white"/>
<path fill-rule="evenodd" clip-rule="evenodd" d="M41.0441 51.7072L37.4357 48.0989C36.2056 47.3936 33.7166 48.5417 33.7084 48.5458L33.5608 48.2137C33.5608 48.2137 35.447 47.3362 36.8781 47.5412L35.734 46.3972C34.6884 45.9871 33.2287 46.9876 33.2246 46.9917L33.0195 46.6842C33.0195 46.6842 34.1718 45.8887 35.2707 45.9338L34.1472 44.8103C33.7014 44.7965 33.2599 44.9012 32.8678 45.1137L32.6915 44.7939C33.0337 44.6164 33.4042 44.4999 33.7863 44.4494L32.3594 43.0225L32.6177 42.7642L34.0447 44.1911C34.0942 43.8088 34.2108 43.4382 34.3891 43.0963L34.7089 43.2726C34.4966 43.6646 34.3932 44.1064 34.4096 44.552L35.529 45.6755C35.4839 44.5766 36.2794 43.4284 36.2794 43.4243L36.5869 43.6253C36.5869 43.6253 35.5741 45.0932 35.9924 46.1388L37.1364 47.2829C36.9314 45.8477 37.8048 43.9697 37.8089 43.9656L38.141 44.1132C38.141 44.1132 36.9888 46.5981 37.6941 47.8405L41.3025 51.4489L41.0441 51.7072Z" fill="white"/>
<path fill-rule="evenodd" clip-rule="evenodd" d="M34.3029 63.1484C33.5343 63.8843 32.6672 64.5108 31.7262 65.0103C30.7462 65.5293 29.6065 65.6641 28.5316 65.3883C25.7854 64.6524 24.1376 62.4286 23.0754 61.001C22.8301 60.6538 22.5602 60.3245 22.2677 60.0157C22.2201 59.9682 22.1934 59.9039 22.1934 59.8368C22.1934 59.7697 22.2201 59.7053 22.2677 59.6578C22.3 59.6231 22.3423 59.5993 22.3888 59.5895C22.7933 59.4621 23.1887 59.3076 23.5722 59.127C25.1876 58.4192 27.7522 57.3134 30.4985 58.0453C31.5681 58.3432 32.4881 59.027 33.0792 59.9635C33.6445 60.8695 34.0808 61.8494 34.3756 62.8749C34.3918 62.9233 34.3927 62.9754 34.3783 63.0243C34.3639 63.0732 34.3347 63.1165 34.2948 63.1484H34.3029ZM31.5041 64.5559C32.3602 64.1042 33.1498 63.5372 33.8505 62.8709C33.5765 61.9459 33.177 61.0625 32.6632 60.245C32.1434 59.41 31.3275 58.8 30.3773 58.5359C27.8006 57.8482 25.3532 58.9099 23.7822 59.5935C23.4551 59.7342 23.1643 59.8589 22.9098 59.9554C23.0835 60.1605 23.2733 60.4139 23.4833 60.6994C24.5011 62.0747 26.0883 64.21 28.6649 64.8977C29.621 65.1401 30.6336 65.0182 31.5041 64.5559Z" fill="white"/>
<path fill-rule="evenodd" clip-rule="evenodd" d="M34.3172 63.3725L29.4543 62.0441C28.044 62.0441 26.4879 64.3007 26.4838 64.309L26.192 64.0903C26.192 64.0903 27.3754 62.3782 28.7046 61.8378L27.1565 61.4252C26.0543 61.5861 25.3046 63.1951 25.3005 63.1992L24.9763 63.0424C25.3218 62.3113 25.8607 61.6927 26.5324 61.2561L25.0168 60.8435C24.6289 61.054 24.303 61.3659 24.0726 61.747L23.7565 61.5696C23.9625 61.2404 24.223 60.9501 24.5265 60.7115L22.6016 60.1876L22.6948 59.8286L24.6197 60.3567C24.473 59.9977 24.3907 59.6149 24.3765 59.2263H24.7129C24.7228 59.6737 24.8516 60.11 25.0857 60.4887L26.6013 60.9013C26.2375 60.177 26.0749 59.3653 26.1313 58.5538L26.4919 58.5869C26.4919 58.5869 26.3501 60.3691 27.2254 61.0622L28.7735 61.4747C27.886 60.3278 27.7077 58.2486 27.7036 58.2444L28.0643 58.2114C28.0643 58.2114 28.3034 60.9549 29.5272 61.681L34.3902 63.0094L34.3172 63.3725Z" fill="white"/>
<path fill-rule="evenodd" clip-rule="evenodd" d="M34.7652 77.1272C34.4686 78.1518 34.0316 79.1305 33.4664 80.0357C32.8792 80.9735 31.9612 81.6581 30.8932 81.9546C28.1505 82.6868 25.6055 81.5805 23.976 80.8725C23.5936 80.6917 23.1987 80.5384 22.7943 80.4139C22.7291 80.3977 22.673 80.3565 22.6383 80.2992C22.6035 80.2419 22.5929 80.1732 22.6087 80.1081C22.6202 80.0583 22.647 80.0133 22.6854 79.9794C22.9777 79.6721 23.2473 79.3441 23.492 78.9978C24.5488 77.5698 26.1984 75.3451 28.9411 74.613C30.014 74.3359 31.1522 74.4693 32.1314 74.9871H32.1516C33.0866 75.4883 33.9484 76.115 34.7127 76.8497C34.7488 76.8825 34.7747 76.9249 34.7876 76.9719C34.8004 77.0189 34.7997 77.0686 34.7853 77.1152L34.7652 77.1272ZM33.047 79.7541C33.5584 78.9354 33.9572 78.0519 34.2328 77.1272C33.5352 76.4692 32.7542 75.9053 31.9096 75.4497H31.8894C31.0231 74.9914 30.0172 74.8696 29.0661 75.1078C26.4969 75.7957 24.9118 77.9238 23.8954 79.3076C23.6816 79.5932 23.492 79.8467 23.3226 80.0558C23.5767 80.1484 23.8671 80.2731 24.1938 80.4179C25.7628 81.0977 28.207 82.1598 30.7762 81.4719C31.721 81.2008 32.5306 80.5884 33.047 79.7541Z" fill="white"/>
<path fill-rule="evenodd" clip-rule="evenodd" d="M34.3902 76.9937L29.5356 78.3171C28.3219 79.0427 28.0792 81.7802 28.0792 81.7885L27.7191 81.7555C27.7191 81.7555 27.9012 79.6694 28.7831 78.5233L27.2418 78.9355C26.3639 79.6323 26.5095 81.4092 26.5095 81.4092L26.1495 81.4422C26.1495 81.4422 26.0362 80.0322 26.6188 79.1004L25.1057 79.5127C24.8725 79.8929 24.7439 80.3301 24.7336 80.7784H24.3695C24.3853 80.3886 24.4688 80.0047 24.6162 79.6446L22.6946 80.1724L22.6016 79.8178L24.5232 79.2901C24.2196 79.0541 23.9593 78.7651 23.7545 78.4367L24.0701 78.2553C24.2984 78.6376 24.6241 78.9496 25.0127 79.1582L26.5257 78.7459C25.5629 78.2347 24.9722 76.9607 24.9682 76.9566L25.2959 76.7999C25.2959 76.7999 26.0483 78.4161 27.1487 78.5727L28.6901 78.1604C27.3631 77.6204 26.1899 75.9177 26.1859 75.9094L26.4772 75.6909C26.4772 75.6909 28.0347 77.9502 29.4425 77.9543L34.2971 76.6268L34.3902 76.9937Z" fill="white"/>
<path fill-rule="evenodd" clip-rule="evenodd" d="M41.3656 88.8253C41.6236 89.8588 41.7372 90.923 41.703 91.9876C41.6646 93.0932 41.213 94.1442 40.4375 94.933C38.4286 96.942 35.6925 97.2434 33.9287 97.4403C33.5082 97.475 33.0906 97.5394 32.6792 97.6332C32.6153 97.6506 32.5471 97.6422 32.4893 97.6099C32.4314 97.5776 32.3886 97.5239 32.3699 97.4604C32.3559 97.4145 32.3559 97.3656 32.3699 97.3198C32.4622 96.9082 32.5253 96.4906 32.5587 96.0701C32.7596 94.3061 33.0689 91.5617 35.0698 89.5606C35.8581 88.7874 36.9072 88.3373 38.0107 88.2989C39.0751 88.2632 40.1392 88.3755 41.1727 88.6325C41.2201 88.6424 41.2636 88.6659 41.2979 88.7002C41.3321 88.7344 41.3556 88.7779 41.3656 88.8253ZM41.1968 91.9555C41.2299 90.9918 41.1326 90.0281 40.9075 89.0905C39.9701 88.8654 39.0065 88.7681 38.0429 88.8012C37.062 88.8365 36.1294 89.2362 35.4273 89.9223C33.5511 91.7948 33.2538 94.4347 33.0609 96.1264C33.0207 96.48 32.9846 96.7934 32.9404 97.0586C33.2055 97.0144 33.5189 96.9782 33.8725 96.938C35.568 96.7492 38.2036 96.4478 40.0799 94.5713C40.7666 93.8742 41.1678 92.9454 41.2049 91.9675L41.1968 91.9555Z" fill="white"/>
<path fill-rule="evenodd" clip-rule="evenodd" d="M41.7068 88.9575L38.1 92.5659C37.391 93.7961 38.5427 96.2851 38.5468 96.2933L38.2107 96.4409C38.2107 96.4409 37.3336 94.5547 37.5426 93.1236L36.395 94.2676C35.9851 95.3132 36.9852 96.773 36.9893 96.7771L36.686 96.9821C36.2313 96.3163 35.9716 95.5366 35.936 94.731L34.813 95.8504C34.7967 96.2977 34.9015 96.7412 35.1163 97.1339L34.7966 97.3102C34.6179 96.9685 34.5013 96.5978 34.4523 96.2153L33.026 97.6423L32.7637 97.384L34.19 95.957C33.8072 95.9075 33.4365 95.7895 33.0957 95.6085L33.276 95.2927C33.6681 95.5044 34.1095 95.6077 34.5547 95.5921L35.6778 94.4727C34.8723 94.4345 34.0934 94.1733 33.4276 93.7182L33.6285 93.4147C33.6285 93.4147 35.0917 94.4275 36.1368 94.0093L41.4649 88.6992L41.7068 88.9575Z" fill="white"/>
<path fill-rule="evenodd" clip-rule="evenodd" d="M33.7448 91.9512C33.7448 91.9512 36.2367 93.3269 37.4562 92.4646L37.6432 92.8377C36.2529 93.8065 33.6025 92.3532 33.5781 92.3532L33.7448 91.9512Z" fill="white"/>
<path fill-rule="evenodd" clip-rule="evenodd" d="M53.1528 95.2818C53.8877 96.0505 54.5145 96.9165 55.0156 97.8559C55.5322 98.8388 55.6656 99.9799 55.3898 101.056C54.6575 103.804 52.4327 105.453 51.0044 106.516C50.6571 106.761 50.3277 107.031 50.0187 107.324C49.9712 107.372 49.9068 107.398 49.8397 107.398C49.7726 107.398 49.7082 107.372 49.6606 107.324C49.6262 107.291 49.6013 107.249 49.5882 107.203C49.4644 106.797 49.3111 106.402 49.1296 106.019C48.4215 104.382 47.3151 101.836 48.0473 99.0884C48.343 98.0169 49.0277 97.0955 49.9664 96.5062C50.8669 95.9446 51.8403 95.5108 52.8591 95.2171C52.908 95.2 52.961 95.1986 53.0108 95.213C53.0605 95.2275 53.1045 95.2572 53.1367 95.2979L53.1528 95.2818ZM54.561 98.0822C54.109 97.2255 53.5418 96.4355 52.8752 95.7344C51.9551 96.0071 51.0755 96.4026 50.2601 96.9103C49.4248 97.4303 48.8145 98.2467 48.5502 99.1975C47.8623 101.776 48.9244 104.224 49.6043 105.796C49.7492 106.124 49.8739 106.415 49.9664 106.665C50.1756 106.495 50.4291 106.306 50.7147 106.095C52.0867 105.077 54.227 103.489 54.915 100.911C55.147 99.955 55.0165 98.9466 54.5489 98.0822H54.561Z" fill="white"/>
<path fill-rule="evenodd" clip-rule="evenodd" d="M54.1062 103.828C54.1062 103.828 52.3929 102.647 51.8521 101.32L51.4393 102.865C51.5962 103.965 53.2104 104.713 53.2145 104.717L53.0576 105.041C52.3253 104.695 51.7051 104.158 51.2659 103.488L50.8531 105C51.0637 105.387 51.3758 105.713 51.7572 105.943L51.5797 106.254C51.2478 106.053 50.9567 105.794 50.721 105.49L50.1843 107.398L49.8293 107.305L50.3577 105.385C49.9972 105.531 49.6126 105.614 49.2224 105.627V105.267C49.6713 105.257 50.1091 105.128 50.4898 104.895L50.9026 103.383C49.9696 103.961 48.5618 103.852 48.5577 103.852L48.5908 103.492C48.5908 103.492 50.3742 103.633 51.0678 102.76L51.4806 101.215C50.3329 102.097 48.2522 102.279 48.244 102.279L48.2109 101.923C48.2109 101.923 50.9604 101.68 51.687 100.463L53.0122 95.6099L53.3714 95.7029L52.042 100.556C52.042 101.963 54.3002 103.516 54.3085 103.52L54.1062 103.828Z" fill="white"/>
<path fill-rule="evenodd" clip-rule="evenodd" d="M67.1235 95.2147C68.149 95.5117 69.1289 95.9494 70.0353 96.5155C70.9729 97.1038 71.6573 98.0233 71.9537 99.093C72.6857 101.84 71.5797 104.385 70.8718 106.021C70.6911 106.405 70.5378 106.8 70.4133 107.205C70.3962 107.271 70.3542 107.327 70.2963 107.362C70.2384 107.396 70.1692 107.407 70.1036 107.391C70.0555 107.378 70.0121 107.352 69.979 107.314C69.6702 107.029 69.3423 106.766 68.9976 106.526C67.5699 105.468 65.3458 103.816 64.6138 101.069C64.334 99.994 64.4675 98.853 64.9879 97.8729C65.4892 96.9273 66.1201 96.057 66.862 95.2874C66.894 95.2512 66.9357 95.2251 66.982 95.2122C67.0284 95.1993 67.0776 95.2002 67.1235 95.2147ZM69.7537 96.9357C68.9347 96.4244 68.0515 96.025 67.1275 95.7479C66.4624 96.45 65.8955 97.2396 65.4423 98.0951C64.9841 98.9629 64.8623 99.9704 65.1005 100.923C65.7882 103.496 67.9158 105.084 69.2993 106.102C69.5848 106.316 69.8382 106.506 70.0433 106.676C70.1398 106.421 70.2645 106.131 70.4053 105.803C71.089 104.232 72.1508 101.784 71.463 99.2102C71.1887 98.2633 70.5737 97.4526 69.7377 96.9357H69.7537Z" fill="white"/>
<path fill-rule="evenodd" clip-rule="evenodd" d="M66.976 95.6099L68.308 100.464C69.0361 101.678 71.7829 101.921 71.787 101.921L71.7539 102.281C71.7539 102.281 69.6649 102.099 68.5149 101.213L68.9285 102.758C69.6318 103.636 71.4106 103.491 71.4106 103.491L71.4437 103.851C71.4437 103.851 70.0289 103.964 69.094 103.381L69.5077 104.894C69.8875 105.128 70.3249 105.257 70.7735 105.266V105.631C70.3838 105.614 70.0001 105.531 69.6401 105.384L70.1696 107.305L69.8096 107.398L69.2843 105.477C69.0462 105.781 68.7549 106.041 68.4238 106.246L68.246 105.93C68.6337 105.703 68.9522 105.379 69.1685 104.991L68.7548 103.478C68.2377 104.441 66.9636 105.032 66.9594 105.036L66.8022 104.708C66.8022 104.708 68.4197 103.956 68.581 102.855L68.1674 101.314C67.6254 102.641 65.9128 103.814 65.9087 103.818L65.6895 103.527C65.6895 103.527 67.9522 101.969 67.9605 100.562L66.6285 95.707L66.976 95.6099Z" fill="white"/>
<path fill-rule="evenodd" clip-rule="evenodd" d="M59.7975 46.8291C64.3401 46.8291 68.7806 48.1761 72.5576 50.6998C76.3346 53.2235 79.2784 56.8105 81.0167 61.0073C82.7551 65.2041 83.2099 69.8221 82.3237 74.2773C81.4375 78.7326 79.2501 82.825 76.038 86.037C72.826 89.2491 68.7335 91.4365 64.2783 92.3227C59.823 93.2089 55.205 92.7541 51.0083 91.0158C46.8115 89.2774 43.2245 86.3336 40.7008 82.5566C38.1771 78.7796 36.8301 74.3391 36.8301 69.7966C36.8301 63.7052 39.2499 57.8634 43.5571 53.5561C47.8643 49.2489 53.7062 46.8291 59.7975 46.8291ZM42.0241 65.1422H46.7962V66.9317H48.6019V60.3012H46.7962V63.7666H42.5111V60.3012H40.7053V63.9005C40.6974 64.0796 40.734 64.2579 40.8119 64.4194C40.8898 64.5808 41.0066 64.7205 41.1517 64.8257C41.3944 65.0282 41.6999 65.1401 42.016 65.1422H42.0241ZM57.8498 60.2728H56.0278V62.8576H51.2395V60.22H49.4135V62.9875C49.4089 63.1688 49.4491 63.3484 49.5305 63.5105C49.6119 63.6726 49.732 63.8121 49.8801 63.9167C50.1191 64.1143 50.4182 64.2245 50.7282 64.2292L56.0278 64.2819C56.0278 65.4641 54.8199 66.0552 52.4041 66.0552C51.9496 66.0552 51.4627 66.0552 50.9392 66.0025L50.8581 67.163C51.6016 67.2947 52.3551 67.3612 53.1102 67.3619C54.2285 67.4116 55.3422 67.1903 56.3565 66.7167C56.8173 66.5032 57.2047 66.158 57.4697 65.7248C57.7347 65.2915 57.8655 64.7895 57.8457 64.2819V60.2687L57.8498 60.2728ZM60.9338 65.3126H65.3284V61.6322H60.9419V65.3329L60.9338 65.3126ZM64.18 60.2403V59.6114L62.5569 59.7777V60.2565H60.5848C60.2746 60.2575 59.9751 60.3698 59.7407 60.5731C59.5937 60.6775 59.4745 60.8165 59.3939 60.9779C59.3132 61.1392 59.2735 61.3179 59.2781 61.4983V65.2964H58.8967V68.0314L60.7674 67.8813V66.9196H65.6896V68.0314L67.5968 67.8813V65.2964H67.1423V60.2525L64.18 60.2403ZM75.7977 65.6941V60.2403H72.8314V59.4774L71.2083 59.6438V60.2403H68.2541V65.6941C68.2496 65.8754 68.2898 66.055 68.3712 66.2171C68.4526 66.3792 68.5726 66.5187 68.7208 66.6233C68.9582 66.8209 69.256 66.9311 69.5648 66.9358H74.487C74.797 66.9311 75.0961 66.8209 75.3351 66.6233C75.482 66.5178 75.6009 66.3779 75.6815 66.216C75.7621 66.0541 75.802 65.8749 75.7977 65.6941ZM73.9757 65.7265V61.4617H70.0234V65.7387L73.9757 65.7265ZM44.0531 76.5813H50.5456V79.016H52.9804V70.0076H50.5456V74.7147H44.7186V70.0076H42.2635V74.877C42.2519 75.1214 42.3014 75.3649 42.4077 75.5853C42.514 75.8056 42.6737 75.996 42.8722 76.139C43.1997 76.4143 43.6131 76.5664 44.0409 76.5691L44.0531 76.5813ZM64.8902 79.3975V73.8098C64.9191 73.2144 64.8019 72.6209 64.5486 72.0812C64.2954 71.5415 63.9139 71.072 63.4374 70.7137C62.4717 69.9832 61.1204 69.618 59.3796 69.618C57.8309 69.6461 56.2929 69.8809 54.8064 70.316L55.5287 71.9838C56.8081 71.7586 58.1016 71.623 59.3999 71.578C61.4018 71.578 62.4013 72.3219 62.3986 73.8098H54.1977L54.1734 77.6607C54.1703 77.9059 54.2258 78.1483 54.3351 78.3678C54.4445 78.5873 54.6047 78.7775 54.8023 78.9227C55.1246 79.1933 55.53 79.3451 55.9507 79.3528L64.878 79.3975H64.8902ZM62.4352 77.4822V75.4532H56.6324V77.4822H62.4352ZM69.0576 68.0436C69.0164 68.6473 69.2016 69.2448 69.577 69.7195C69.7459 69.9091 69.9546 70.059 70.1882 70.1586C70.4218 70.2583 70.6745 70.3051 70.9283 70.2957H72.3242C72.583 70.3028 72.8405 70.2552 73.0796 70.1559C73.3188 70.0566 73.5343 69.9079 73.7119 69.7195C74.1078 69.2544 74.3059 68.6529 74.2638 68.0436H72.7421V68.6726C72.7421 68.7618 72.7421 68.8105 72.7178 68.8105C72.5711 68.8502 72.4189 68.8652 72.2674 68.8552H71.0054C70.8538 68.8652 70.7016 68.8502 70.5549 68.8105C70.5549 68.8105 70.5346 68.7618 70.5346 68.6726V68.0436H69.0576ZM65.8113 78.9998L65.7017 80.3511C66.1758 80.4496 66.6581 80.5026 67.1423 80.5093C68.4065 80.4731 69.6118 79.9667 70.5225 79.0891C71.7371 78.0259 73.2007 76.1187 74.9131 73.3675V78.9105L77.3478 79.1378V71.3304L78.3866 71.1965C78.5557 71.1318 78.6983 71.0123 78.7917 70.8572C78.8851 70.702 78.9239 70.5201 78.902 70.3403V69.9345H74.6087C72.9797 72.9197 71.0474 75.729 68.8425 78.3181V69.9345H66.635V79.1012C66.5117 79.1395 66.3826 79.156 66.2536 79.1499C66.0142 79.0728 65.8559 79.0282 65.7788 79.012L65.8113 78.9998Z" fill="white"/>
<path fill-rule="evenodd" clip-rule="evenodd" d="M102.801 95.3849C101.148 96.3109 99.3754 97.0013 97.5342 97.4363C95.6128 97.8864 93.5938 97.5935 91.8766 96.6158H91.844C87.498 94.072 85.7017 89.4727 84.549 86.5187C84.2981 85.814 83.9973 85.1285 83.6489 84.4672C83.6157 84.413 83.5936 84.3526 83.5838 84.2896C83.5741 84.2267 83.5769 84.1624 83.592 84.1005C83.6072 84.0386 83.6344 83.9804 83.6722 83.9293C83.7099 83.8781 83.7574 83.835 83.8118 83.8026C83.898 83.748 83.9996 83.7235 84.101 83.7328C84.8376 83.6999 85.5711 83.6163 86.2964 83.4825C89.4246 83.0107 94.2919 82.2763 98.6624 84.816C100.36 85.8238 101.623 87.433 102.206 89.3291C102.757 91.1596 103.055 93.058 103.09 94.9705C103.094 95.0688 103.069 95.166 103.017 95.2494C102.965 95.3329 102.89 95.3987 102.801 95.4383V95.3849ZM97.3509 96.4722C99.0122 96.0854 100.614 95.474 102.112 94.6546C102.069 92.9377 101.795 91.2346 101.298 89.5917C100.793 87.9136 99.6827 86.4866 98.1858 85.5914C94.1127 83.22 89.4408 83.9257 86.443 84.3606C85.8361 84.4508 85.2985 84.5329 84.8138 84.578C85.0052 85.0088 85.2211 85.5217 85.4329 86.1002C86.5408 88.9352 88.2597 93.3458 92.3206 95.7214H92.345C93.8615 96.5939 95.6478 96.8618 97.3509 96.4722Z" fill="white"/>
<path fill-rule="evenodd" clip-rule="evenodd" d="M102.484 94.7967L94.7828 90.4291C92.3118 89.7743 88.5931 92.8245 88.5809 92.8245L88.3493 92.549C88.3493 92.549 91.4462 90.0059 93.9985 89.9739L91.1536 88.377C89.1215 88.1095 87.061 90.4969 87.0528 90.5009L86.7724 90.2774C86.7724 90.2774 88.5484 88.2253 90.5195 88.0177L87.76 86.4527C86.6545 86.5805 85.6182 87.5586 85.6141 87.5626L85.3703 87.2991C85.9223 86.7987 86.5761 86.4191 87.2885 86.1852L83.9844 84.3088L84.1632 84.0014L87.4674 85.8778C87.3166 85.1538 87.3249 84.4066 87.4917 83.686L87.8453 83.7659C87.8453 83.7659 87.4999 85.1392 87.9388 86.1613L90.6984 87.7263C89.8855 85.9417 90.8122 83.4225 90.8162 83.4146L91.1617 83.5303C91.1617 83.5303 90.0847 86.4886 91.3324 88.0816L94.1773 89.7025C92.9296 87.5147 93.6205 83.6221 93.6246 83.6102L93.9822 83.6661C93.9822 83.6661 93.145 88.373 94.9617 90.1456L102.684 94.5132L102.484 94.7967Z" fill="white"/>
<path fill-rule="evenodd" clip-rule="evenodd" d="M109.918 70.0624C108.939 71.6663 107.741 73.1294 106.359 74.4105C104.919 75.7351 103.031 76.4816 101.064 76.504C96.0219 76.504 92.1691 73.4724 89.6969 71.5238C89.1278 71.0445 88.5248 70.6059 87.8926 70.2113C87.7809 70.151 87.6979 70.0492 87.6621 69.9284C87.6262 69.8076 87.6402 69.6777 87.7012 69.5672C87.7476 69.489 87.8135 69.4239 87.8926 69.378C88.524 68.9837 89.1268 68.5465 89.6969 68.0695C92.1691 66.1209 96.0219 63.0894 101.064 63.0894C103.031 63.1117 104.919 63.8582 106.359 65.1829C107.744 66.4657 108.943 67.9316 109.922 69.539C109.973 69.617 110 69.7079 110 69.8007C110 69.8935 109.973 69.9844 109.922 70.0624H109.918ZM105.723 73.6858C106.971 72.5367 108.054 71.2257 108.945 69.7886C108.054 68.3515 106.971 67.0405 105.723 65.8914C104.453 64.7159 102.784 64.0525 101.044 64.0314C96.3355 64.0314 92.6456 66.9382 90.2752 68.8022C89.7946 69.1807 89.367 69.5189 88.9882 69.7886C89.367 70.0584 89.8028 70.3965 90.2752 70.775C92.6456 72.639 96.3355 75.5458 101.044 75.5458C102.783 75.5269 104.452 74.8664 105.723 73.6938V73.6858Z" fill="white"/>
<path fill-rule="evenodd" clip-rule="evenodd" d="M109.594 70.4008H100.624C98.1287 71.0677 96.4487 75.6745 96.4446 75.6909L96.1045 75.5592C96.1045 75.5592 97.4977 71.7223 99.7104 70.4008H96.3914C94.4819 71.1912 93.9083 74.3694 93.9042 74.3777L93.5477 74.3077C93.5477 74.3077 94.0394 71.5823 95.6538 70.4008H92.4414C91.5399 71.0759 91.1424 72.4592 91.1424 72.4592L90.7901 72.3563C91.014 71.629 91.3898 70.9581 91.8923 70.3884H88.0488V70.0179H91.8923C91.3898 69.4481 91.014 68.7773 90.7901 68.05L91.1424 67.9471C91.1424 67.9471 91.5522 69.3468 92.4414 70.0055H95.6538C94.0394 68.824 93.5477 66.1068 93.5477 66.0986L93.9042 66.0286C93.9042 66.0286 94.4819 69.2151 96.3914 70.0055H99.7104C97.4977 68.684 96.1086 64.8594 96.1045 64.8471L96.4446 64.7153C96.4446 64.7153 98.1287 69.3386 100.624 70.0055H109.594V70.4008Z" fill="white"/>
<path fill-rule="evenodd" clip-rule="evenodd" d="M103.472 45.4528C103.437 47.3626 103.139 49.2584 102.588 51.0863C102.006 52.9798 100.743 54.5867 99.0458 55.5932C94.6768 58.1293 89.8111 57.3959 86.684 56.9247C85.955 56.7906 85.2175 56.7084 84.4771 56.6789C84.4136 56.6805 84.3505 56.6695 84.2913 56.6465C84.2321 56.6234 84.1781 56.5888 84.1323 56.5446C84.0865 56.5004 84.0498 56.4475 84.0244 56.389C83.9991 56.3305 83.9854 56.2675 83.9844 56.2036C83.9841 56.1129 84.0081 56.0238 84.0536 55.9455C84.4022 55.2854 84.703 54.6007 84.9535 53.897C86.1098 50.9348 87.9096 46.3255 92.2826 43.7894C93.9993 42.813 96.0176 42.5206 97.9383 42.97C99.7883 43.4036 101.57 44.093 103.232 45.0185C103.314 45.0612 103.383 45.1267 103.43 45.2072C103.476 45.2878 103.5 45.3801 103.496 45.4733L103.472 45.4528ZM101.676 50.7791C102.173 49.1384 102.447 47.4377 102.491 45.7232C100.993 44.9049 99.3914 44.2944 97.7306 43.9082C96.036 43.5124 94.2556 43.7682 92.7387 44.6252C88.6669 46.9933 86.9364 51.41 85.8167 54.2452C85.5927 54.8229 85.4095 55.3351 85.1978 55.7652C85.662 55.8103 86.1954 55.8923 86.7939 55.9824C89.7907 56.4372 94.457 57.1419 98.5328 54.7533C100.039 53.8685 101.161 52.4475 101.676 50.7709V50.7791Z" fill="white"/>
<path fill-rule="evenodd" clip-rule="evenodd" d="M102.684 45.4866L94.9583 49.8542C93.1408 51.6268 93.9743 56.3217 93.9784 56.3337L93.6206 56.3896C93.6206 56.3896 92.9253 52.4851 94.1736 50.2973L91.3274 51.9182C90.0792 53.5151 91.1526 56.4615 91.1566 56.4695L90.8111 56.5852C90.8111 56.5852 89.8922 54.0581 90.6932 52.2735L87.9405 53.8385C87.5014 54.8446 87.847 56.214 87.847 56.2339L87.4973 56.3138C87.3251 55.594 87.3154 54.8459 87.4689 54.122L84.1633 55.9984L83.9844 55.691L87.29 53.8146C86.5773 53.5807 85.9231 53.2011 85.3708 52.7007L85.6148 52.4372C85.6148 52.4372 86.6557 53.4233 87.7616 53.5471L90.5224 51.9821C88.5504 51.7745 86.7858 49.7344 86.7777 49.7264L87.0541 49.4949C87.0541 49.4949 89.1237 51.8903 91.1566 51.6228L94.0028 50.0259C91.4494 49.9939 88.3634 47.4588 88.3512 47.4508L88.5829 47.1753C88.5829 47.1753 92.3154 50.2414 94.7916 49.5707L102.517 45.2031L102.684 45.4866Z" fill="white"/>
<path fill-rule="evenodd" clip-rule="evenodd" d="M38.5434 86.1104C38.5094 86.0674 38.4847 86.018 38.4706 85.9652C38.4565 85.9124 38.4533 85.8574 38.4614 85.8034C38.4694 85.7494 38.4884 85.6976 38.5173 85.651C38.5461 85.6045 38.5843 85.5642 38.6293 85.5326C38.6729 85.499 38.7229 85.4746 38.7763 85.4606C38.8297 85.4467 38.8855 85.4436 38.9401 85.4516C38.9948 85.4595 39.0473 85.4783 39.0944 85.5068C39.1415 85.5353 39.1823 85.5729 39.2142 85.6174C41.3903 88.5222 44.154 90.9483 47.3297 92.7417C50.4851 94.5287 53.9835 95.645 57.6009 96.019C57.6546 96.0245 57.7067 96.0405 57.7541 96.066C57.8016 96.0914 57.8435 96.1259 57.8775 96.1673C57.9115 96.2088 57.9369 96.2565 57.9523 96.3076C57.9676 96.3588 57.9726 96.4124 57.967 96.4655C57.9613 96.5185 57.9452 96.57 57.9194 96.6169C57.8936 96.6638 57.8588 96.7052 57.8168 96.7388C57.7748 96.7724 57.7266 96.7975 57.6748 96.8126C57.623 96.8278 57.5687 96.8327 57.515 96.8272C53.7848 96.4463 50.1763 95.2997 46.9207 93.461C43.6427 91.611 40.7899 89.1078 38.5434 86.1104Z" fill="white"/>
<path fill-rule="evenodd" clip-rule="evenodd" d="M62.8885 96.3947C62.8356 96.4005 62.7822 96.3958 62.7311 96.3811C62.6801 96.3664 62.6325 96.3418 62.591 96.3088C62.5496 96.2758 62.515 96.235 62.4894 96.1887C62.4639 96.1425 62.4477 96.0917 62.4419 96.0392C62.4361 95.9868 62.4407 95.9337 62.4556 95.883C62.4704 95.8324 62.4952 95.7851 62.5284 95.7439C62.5617 95.7028 62.6028 95.6685 62.6494 95.6431C62.696 95.6177 62.7471 95.6016 62.8 95.5959C66.3624 95.2016 69.8029 94.0746 72.9021 92.2866C76.0013 90.4986 78.6911 88.0889 80.7998 85.2113C80.8309 85.167 80.8708 85.1295 80.917 85.1009C80.9632 85.0723 81.0147 85.0534 81.0685 85.0452C81.1223 85.037 81.1772 85.0397 81.2299 85.0531C81.2826 85.0666 81.332 85.0905 81.3751 85.1235C81.4191 85.1544 81.4565 85.1937 81.4848 85.2393C81.5132 85.2848 81.5321 85.3355 81.5404 85.3884C81.5487 85.4413 81.5461 85.4953 81.5329 85.5472C81.5197 85.5992 81.4962 85.6479 81.4636 85.6906C79.2888 88.6629 76.5137 91.1524 73.3154 93.0002C70.1172 94.8481 66.5659 96.0137 62.8885 96.4226V96.3947Z" fill="white"/>
<path fill-rule="evenodd" clip-rule="evenodd" d="M84.4819 80.7243C84.4363 80.8257 84.3507 80.9055 84.244 80.9462C84.1373 80.9868 84.0182 80.985 83.9129 80.9411C83.8076 80.8971 83.7247 80.8147 83.6825 80.7119C83.6403 80.6091 83.6422 80.4944 83.6878 80.3929C85.2032 77.0379 85.9796 73.4164 85.968 69.7576C85.9555 66.1203 85.1543 62.5256 83.6157 59.204C83.5925 59.154 83.5798 59.1002 83.5783 59.0455C83.5767 58.9908 83.5864 58.9364 83.6067 58.8853C83.627 58.8342 83.6576 58.7875 83.6966 58.7478C83.7357 58.708 83.7825 58.6761 83.8343 58.6538C83.8862 58.6315 83.9421 58.6193 83.9989 58.6178C84.0556 58.6163 84.1122 58.6257 84.1652 58.6452C84.2182 58.6648 84.2667 58.6942 84.308 58.7318C84.3492 58.7695 84.3823 58.8145 84.4054 58.8645C85.9947 62.2968 86.8206 66.0116 86.83 69.7698C86.8431 73.5385 86.0435 77.2688 84.4819 80.7243Z" fill="white"/>
<path fill-rule="evenodd" clip-rule="evenodd" d="M81.8652 53.8898C81.8992 53.9329 81.924 53.9823 81.9381 54.0351C81.9522 54.0878 81.9553 54.1429 81.9473 54.1969C81.9393 54.2509 81.9202 54.3027 81.8914 54.3493C81.8625 54.3958 81.8244 54.4361 81.7793 54.4677C81.7357 54.5012 81.6856 54.5257 81.6322 54.5396C81.5787 54.5536 81.5229 54.5567 81.4682 54.5487C81.4136 54.5408 81.3611 54.522 81.3139 54.4935C81.2668 54.465 81.226 54.4273 81.194 54.3828C79.0291 51.4834 76.2762 49.0611 73.1106 47.2702C69.9451 45.4793 66.4363 44.3593 62.808 43.9813C62.7543 43.9757 62.7022 43.9598 62.6547 43.9343C62.6072 43.9089 62.5652 43.8744 62.5312 43.833C62.4972 43.7915 62.4718 43.7438 62.4564 43.6927C62.4411 43.6415 62.4361 43.5879 62.4417 43.5348C62.4473 43.4817 62.4635 43.4303 62.4893 43.3834C62.5151 43.3365 62.55 43.2951 62.592 43.2615C62.634 43.2279 62.6823 43.2028 62.7341 43.1876C62.7859 43.1725 62.8402 43.1675 62.894 43.1731C66.6303 43.5567 70.244 44.7074 73.5031 46.5514C76.7746 48.4001 79.622 50.899 81.8652 53.8898Z" fill="white"/>
<path fill-rule="evenodd" clip-rule="evenodd" d="M56.7165 43.1723C56.8232 43.1633 56.9291 43.1968 57.011 43.2655C57.0929 43.3342 57.144 43.4324 57.1531 43.5385C57.1621 43.6446 57.1284 43.75 57.0594 43.8314C56.9903 43.9128 56.8916 43.9636 56.7849 43.9726C53.1615 44.2578 49.6478 45.3432 46.4997 47.1498C43.4105 48.9396 40.7756 51.4105 38.7979 54.3724C38.7376 54.462 38.6439 54.5242 38.5375 54.5452C38.4311 54.5662 38.3207 54.5444 38.2305 54.4844C38.1403 54.4244 38.0778 54.3313 38.0567 54.2255C38.0355 54.1197 38.0575 54.0099 38.1178 53.9202C40.1618 50.8598 42.8848 48.3067 46.0772 46.4575C49.3328 44.5871 52.968 43.4646 56.7165 43.1723Z" fill="white"/>
<path fill-rule="evenodd" clip-rule="evenodd" d="M52.8748 44.785C51.8502 44.4901 50.8714 44.0537 49.9665 43.4882C49.028 42.899 48.3434 41.9779 48.0478 40.9067C47.3157 38.1596 48.4179 35.6144 49.1298 33.9783C49.3113 33.5955 49.4646 33.1999 49.5884 32.7946C49.6046 32.7293 49.6458 32.6732 49.7031 32.6383C49.7604 32.6035 49.8291 32.5929 49.8941 32.6088C49.9436 32.6212 49.9883 32.6479 50.0228 32.6855C50.3308 32.9714 50.6588 33.2346 51.0043 33.4733C52.4323 34.5317 54.6568 36.184 55.3889 38.9312C55.666 40.0059 55.5326 41.1459 55.0148 42.1267C54.5109 43.072 53.8802 43.9433 53.1403 44.7163C53.1067 44.7513 53.0641 44.7763 53.0172 44.7884C52.9704 44.8005 52.9211 44.7993 52.8748 44.785ZM50.2481 43.064C51.0649 43.5797 51.9489 43.9794 52.8748 44.2517C53.5387 43.5496 54.1044 42.7599 54.5562 41.9045C55.0175 41.0377 55.1395 40.0291 54.8982 39.0766C54.2143 36.4992 52.0824 34.9115 50.7027 33.8934C50.4171 33.6793 50.1596 33.4895 49.9545 33.3198C49.8619 33.5743 49.7332 33.8652 49.5924 34.1924C48.9126 35.7639 47.8507 38.2121 48.5385 40.7855C48.8052 41.7327 49.415 42.5454 50.2481 43.064Z" fill="white"/>
<path fill-rule="evenodd" clip-rule="evenodd" d="M53.0252 44.3902L51.6923 39.5372C50.9679 38.324 48.2192 38.0773 48.2109 38.0773L48.244 37.7174C48.244 37.7174 50.3387 37.8994 51.4895 38.785L51.0755 37.2402C50.3718 36.3626 48.5918 36.5082 48.5918 36.5082L48.5587 36.1483C48.5587 36.1483 49.9744 36.035 50.9099 36.6174L50.496 35.1049C50.1142 34.8717 49.6752 34.7432 49.2251 34.7328V34.3688C49.6151 34.3851 49.9991 34.4686 50.3594 34.6155L49.8336 32.6946L50.1896 32.6016L50.7154 34.5225C50.9559 34.2207 51.247 33.9609 51.5764 33.7541L51.7585 34.0696C51.3686 34.2955 51.0493 34.6213 50.8354 35.0119L51.2494 36.5244C51.6886 35.8534 52.3108 35.3156 53.0459 34.9714L53.2032 35.295C53.2032 35.295 51.5805 36.0472 51.4191 37.1472L51.8331 38.692C52.3753 37.3615 54.085 36.1887 54.0932 36.1847L54.3085 36.4758C54.3085 36.4758 52.0442 38.0328 52.0359 39.4402L53.3688 44.2931L53.0252 44.3902Z" fill="white"/>
<path fill-rule="evenodd" clip-rule="evenodd" d="M78.8259 88.6318C79.86 88.3767 80.9242 88.2645 81.9888 88.2984C83.0931 88.3378 84.1427 88.7893 84.9306 89.564C86.94 91.5728 87.2415 94.3089 87.4424 96.0727C87.4778 96.4916 87.5409 96.9077 87.6313 97.3182C87.6411 97.3499 87.6446 97.3832 87.6414 97.4162C87.6382 97.4491 87.6285 97.4812 87.6128 97.5104C87.597 97.5396 87.5757 97.5653 87.5498 97.5861C87.524 97.6069 87.4944 97.6224 87.4625 97.6316C87.4167 97.6456 87.3677 97.6456 87.3218 97.6316C86.9101 97.5396 86.4925 97.4765 86.072 97.4428C84.3077 97.2419 81.5628 96.9325 79.5614 94.9317C78.788 94.1434 78.3378 93.0942 78.2994 91.9907C78.2637 90.9263 78.376 89.8622 78.633 88.8287C78.6427 88.7808 78.6661 88.7367 78.7003 88.7017C78.7345 88.6668 78.7782 88.6425 78.8259 88.6318ZM81.9566 88.8046C80.9928 88.7715 80.0289 88.8688 79.0912 89.0939C78.8663 90.03 78.7689 90.9923 78.8018 91.9545C78.8354 92.9362 79.2337 93.8702 79.919 94.5741C81.7959 96.4504 84.4363 96.7477 86.1282 96.9405C86.4819 96.9807 86.7954 97.0169 87.0606 97.0611C87.0164 96.7959 86.9802 96.4825 86.94 96.1289C86.7471 94.4335 86.4497 91.7978 84.5729 89.9215C83.8714 89.235 82.9378 88.8365 81.9566 88.8046Z" fill="white"/>
<path fill-rule="evenodd" clip-rule="evenodd" d="M78.9575 88.6992L82.5618 92.3076C83.792 93.017 86.285 91.8648 86.2932 91.8607L86.4409 92.1969C86.4409 92.1969 84.5547 93.0703 83.1195 92.8653L84.2676 94.0134C85.3132 94.4234 86.773 93.4229 86.7771 93.4188L86.9821 93.7223C86.3146 94.1769 85.5337 94.4367 84.7269 94.4727L85.8504 95.5962C86.2963 95.6113 86.7381 95.5065 87.1298 95.2927L87.3102 95.6126C86.9685 95.7913 86.5978 95.908 86.2153 95.957L87.6423 97.384L87.384 97.6423L85.957 96.2071C85.9071 96.59 85.789 96.9608 85.6085 97.302L85.2886 97.1256C85.504 96.7346 85.6089 96.2924 85.5921 95.8463L84.4685 94.7228C84.4329 95.5284 84.173 96.3081 83.7182 96.9739L83.4147 96.773C83.4147 96.773 84.4275 95.3051 84.0093 94.2635L82.8612 93.1154C83.0703 94.5506 82.1969 96.4286 82.1928 96.4368L81.8607 96.2851C81.8607 96.2851 83.0129 93.8002 82.3035 92.5577L78.6992 88.9493L78.9575 88.6992Z" fill="white"/>
<path fill-rule="evenodd" clip-rule="evenodd" d="M85.2821 76.4462C86.0494 75.7085 86.9157 75.0803 87.8562 74.5795C88.8392 74.063 89.9802 73.9296 91.0567 74.2054C93.8005 74.9376 95.4533 77.1623 96.516 78.5905C96.7614 78.9391 97.0315 79.2698 97.3242 79.5801C97.3477 79.6033 97.3663 79.6309 97.379 79.6613C97.3917 79.6916 97.3982 79.7242 97.3982 79.7571C97.3982 79.79 97.3917 79.8226 97.379 79.853C97.3663 79.8834 97.3477 79.911 97.3242 79.9341C97.291 79.9685 97.2491 79.9935 97.203 80.0066C96.7976 80.1304 96.4019 80.2837 96.019 80.4652C94.3824 81.1772 91.8366 82.2795 89.0887 81.5474C88.0172 81.2517 87.0959 80.5671 86.5065 79.6284C85.9442 78.7269 85.5104 77.7521 85.2175 76.7318C85.2 76.6836 85.1985 76.6311 85.213 76.5819C85.2275 76.5327 85.2574 76.4894 85.2983 76.4583L85.2821 76.4462ZM88.0825 75.0382C87.2263 75.489 86.4363 76.0549 85.7347 76.7198C86.0075 77.6398 86.403 78.5193 86.9106 79.3347C87.4334 80.1692 88.2507 80.779 89.2019 81.0445C91.78 81.7324 94.2288 80.6703 95.8008 79.9905C96.1281 79.8497 96.4191 79.7209 96.6696 79.6284C96.4999 79.4192 96.3099 79.1657 96.0998 78.8801C95.0774 77.5083 93.4934 75.368 90.9153 74.6841C89.9598 74.4454 88.9491 74.5717 88.0825 75.0382Z" fill="white"/>
<path fill-rule="evenodd" clip-rule="evenodd" d="M85.7065 76.628L90.5594 77.9574C91.9668 77.9574 93.5156 75.695 93.5237 75.6909L93.8149 75.9056C93.8149 75.9056 92.634 77.6188 91.3075 78.1597L92.8524 78.5725C93.9524 78.4115 94.7006 76.7973 94.7046 76.7932L95.0281 76.9501C94.6839 77.6832 94.1461 78.3037 93.4752 78.7418L94.9877 79.1546C95.3761 78.9458 95.7018 78.6333 95.93 78.2505L96.2414 78.4321C96.0387 78.7614 95.7799 79.0508 95.477 79.2867L97.398 79.8151L97.305 80.1702L95.384 79.6459C95.5307 80.005 95.6129 80.3882 95.6267 80.777H95.2667C95.2564 80.3281 95.1279 79.8904 94.8947 79.5096L93.3822 79.0968C93.9605 80.0298 93.8513 81.4376 93.8513 81.4417L93.4914 81.4087C93.4914 81.4087 93.6329 79.6294 92.7594 78.9317L91.2145 78.5188C92.0962 79.6665 92.2781 81.7472 92.2781 81.7555L91.9223 81.7885C91.9223 81.7885 91.6796 79.039 90.4623 78.3165L85.6094 76.9872L85.7065 76.628Z" fill="white"/>
<path fill-rule="evenodd" clip-rule="evenodd" d="M85.2348 62.8743C85.5313 61.8486 85.9683 60.8687 86.5334 59.9622C87.1213 59.026 88.0391 58.343 89.1064 58.0475C91.8487 57.3114 94.3894 58.4176 96.0227 59.1255C96.4059 59.3055 96.8007 59.46 97.2043 59.5881C97.2492 59.5984 97.2903 59.6208 97.3232 59.6529C97.3561 59.685 97.3794 59.7256 97.3906 59.7701C97.4019 59.8146 97.4006 59.8613 97.387 59.9051C97.3733 59.949 97.3478 59.9882 97.3132 60.0185C97.0219 60.3266 96.7524 60.6545 96.5067 60.9999C95.4501 62.4278 93.8006 64.6522 91.0583 65.3883C89.9849 65.6642 88.8469 65.5293 87.8683 65.0102C86.924 64.5092 86.0552 63.8782 85.2873 63.1358C85.2512 63.1038 85.2251 63.0621 85.2122 63.0158C85.1993 62.9694 85.2002 62.9202 85.2147 62.8743H85.2348ZM86.9528 60.2477C86.4392 61.0651 86.0402 61.9489 85.7672 62.8743C86.4691 63.537 87.2572 64.1025 88.1103 64.5557C88.9765 65.0139 89.9822 65.1357 90.9333 64.8976C93.5022 64.2097 95.0871 62.0819 96.1034 60.6982C96.3171 60.4126 96.5067 60.1592 96.676 59.9541C96.422 59.8576 96.1316 59.7329 95.8049 59.5921C94.2362 58.9083 91.7721 57.8464 89.2233 58.5342C88.2795 58.8046 87.4702 59.4153 86.9528 60.2477Z" fill="white"/>
<path fill-rule="evenodd" clip-rule="evenodd" d="M85.6094 63.0159L90.464 61.6857C91.6776 60.9586 91.9204 58.2197 91.9204 58.2114L92.2804 58.2445C92.2804 58.2445 92.0984 60.3307 91.2124 61.4792L92.7578 61.066C93.6357 60.3637 93.49 58.5874 93.49 58.5874L93.8501 58.5543C93.8501 58.5543 93.9634 59.9672 93.3808 60.9049L94.8938 60.4918C95.1275 60.1125 95.2561 59.6757 95.266 59.2277H95.6301C95.6138 59.6169 95.5303 60.0001 95.3833 60.3596L97.305 59.835L97.398 60.1902L95.4764 60.7025C95.7803 60.9402 96.0406 61.2312 96.245 61.5618L95.9295 61.7394C95.7006 61.3578 95.3749 61.0466 94.9869 60.8388L93.4738 61.2519C94.4367 61.7642 95.0273 63.0407 95.0314 63.0407L94.7037 63.2018C94.7037 63.2018 93.9512 61.5824 92.8508 61.4213L91.3095 61.8344C92.6364 62.3756 93.8096 64.0859 93.8137 64.09L93.5224 64.309C93.5224 64.309 91.9649 62.0492 90.557 62.041L85.7024 63.3712L85.6094 63.0159Z" fill="white"/>
<path fill-rule="evenodd" clip-rule="evenodd" d="M78.6323 51.1746C78.3775 50.1404 78.2653 49.0763 78.2987 48.0117C78.3382 46.9073 78.7898 45.8578 79.5645 45.0699C81.5737 43.0604 84.3103 42.755 86.0744 42.5581C86.4933 42.5223 86.9094 42.4592 87.32 42.3692C87.3517 42.3593 87.385 42.3559 87.418 42.3591C87.451 42.3622 87.483 42.372 87.5122 42.3877C87.5414 42.4034 87.5672 42.4248 87.588 42.4506C87.6088 42.4764 87.6243 42.5061 87.6335 42.538C87.6456 42.5841 87.6456 42.6325 87.6335 42.6786C87.5411 43.0903 87.478 43.5079 87.4446 43.9285C87.2437 45.6888 86.9343 48.4377 84.9331 50.4391C84.1447 51.2125 83.0953 51.6627 81.9916 51.701C80.9271 51.7367 79.8628 51.6245 78.8292 51.3675C78.7812 51.3578 78.7371 51.3344 78.7022 51.3002C78.6672 51.2659 78.6429 51.2223 78.6323 51.1746ZM78.8051 48.0438C78.772 49.0077 78.8693 49.9716 79.0944 50.9093C80.0307 51.1342 80.9931 51.2316 81.9555 51.1987C82.9374 51.1651 83.8714 50.7667 84.5755 50.0814C86.4521 48.2046 86.7494 45.5642 86.9423 43.8722C86.9825 43.5186 87.0187 43.2051 87.0629 42.9399C86.7976 42.9841 86.4842 43.0202 86.1306 43.0604C84.4348 43.2533 81.7988 43.5507 79.9222 45.4276C79.2383 46.1261 78.8399 47.0548 78.8051 48.0318V48.0438Z" fill="white"/>
<path fill-rule="evenodd" clip-rule="evenodd" d="M78.6992 51.0427L82.3076 47.4343C83.0129 46.2041 81.8648 43.7152 81.8607 43.707L82.1969 43.5593C82.1969 43.5593 83.0703 45.4455 82.8653 46.8766L84.0134 45.7326C84.4235 44.687 83.4188 43.2272 83.4188 43.2231L83.7223 43.0181C84.1771 43.684 84.437 44.4636 84.4727 45.2692L85.5962 44.1498C85.6113 43.7039 85.5066 43.2621 85.2928 42.8705L85.6126 42.69C85.7913 43.0317 85.908 43.4024 85.957 43.7849L87.384 42.3579L87.6423 42.6162L86.2154 44.0432C86.5986 44.091 86.9698 44.2091 87.3102 44.3917L87.1339 44.7116C86.7428 44.4962 86.3006 44.3913 85.8545 44.4081L84.731 45.5317C85.5366 45.5673 86.3163 45.8272 86.9821 46.282L86.7812 46.5855C86.7812 46.5855 85.3133 45.5727 84.2717 45.9909L83.1236 47.139C84.5588 46.9299 86.4368 47.8033 86.4409 47.8074L86.2933 48.1396C86.2933 48.1396 83.8084 46.9873 82.5659 47.6967L78.9575 51.301L78.6992 51.0427Z" fill="white"/>
<path fill-rule="evenodd" clip-rule="evenodd" d="M66.4473 44.2943C65.7114 43.5278 65.0847 42.6628 64.5851 41.7239C64.0651 40.7436 63.9302 39.6033 64.2071 38.5281C64.9431 35.7882 67.1673 34.1378 68.5951 33.0766C68.9433 32.8328 69.2727 32.563 69.5804 32.2696C69.6279 32.222 69.6923 32.1953 69.7594 32.1953C69.8265 32.1953 69.8909 32.222 69.9384 32.2696C69.974 32.3028 69.998 32.3467 70.0068 32.3947C70.1342 32.7974 70.2888 33.1911 70.4693 33.5729C71.1772 35.2072 72.2832 37.7533 71.5472 40.4932C71.2554 41.5648 70.5737 42.4878 69.6367 43.0797C68.7307 43.6459 67.7507 44.0831 66.7248 44.379C66.676 44.3942 66.6238 44.3942 66.575 44.3791C66.5262 44.364 66.4831 44.3344 66.4513 44.2943H66.4473ZM65.0396 41.502C65.4925 42.3555 66.0595 43.1429 66.7248 43.8424C67.6482 43.569 68.5303 43.1713 69.3472 42.6601C70.1827 42.1385 70.7938 41.3225 71.0605 40.3721C71.7483 37.7977 70.6865 35.3524 70.0027 33.7827C69.862 33.4559 69.7373 33.1654 69.6408 32.9152C69.4356 33.0847 69.1823 33.2743 68.8967 33.4841C67.5212 34.505 65.3855 36.0868 64.6978 38.6612C64.4555 39.6178 64.5774 40.6307 65.0396 41.502Z" fill="white"/>
<path fill-rule="evenodd" clip-rule="evenodd" d="M66.6241 44.2811L67.9498 39.4331C67.9498 38.0272 65.6977 36.4799 65.6895 36.4719L65.9077 36.185C65.9077 36.185 67.6163 37.3606 68.1557 38.6857L68.5674 37.1425C68.4068 36.0436 66.8011 35.2962 66.7929 35.2922L66.9493 34.969C67.6794 35.3145 68.2978 35.8514 68.7362 36.5203L69.1479 35.0094C68.9365 34.6235 68.6256 34.2989 68.2462 34.0681L68.4233 33.757C68.7533 33.9588 69.0434 34.2174 69.2796 34.5205L69.8025 32.6016L70.1566 32.6945L69.6461 34.6256C70.0044 34.4794 70.3864 34.3973 70.7742 34.3832V34.7427C70.3277 34.7526 69.8923 34.8811 69.5143 35.1144L69.1026 36.6254C69.8254 36.2626 70.6355 36.1006 71.4453 36.1567L71.4123 36.5163C71.4123 36.5163 69.6337 36.3749 68.942 37.2475L68.5303 38.7908C69.6749 37.9101 71.75 37.7283 71.7541 37.7283L71.787 38.0838C71.787 38.0838 69.0491 38.3262 68.3245 39.5422L66.9987 44.3902L66.6241 44.2811Z" fill="white"/>
</g>
<defs>
<linearGradient id="paint0_linear_47_3982" x1="120" y1="0" x2="17.0144" y2="142.313" gradientUnits="userSpaceOnUse">
<stop stop-color="#D7B46A"/>
<stop offset="1" stop-color="#E9D09D"/>
</linearGradient>
<clipPath id="clip0_47_3982">
<rect width="100" height="100" fill="white" transform="translate(10 20)"/>
</clipPath>
</defs>
</svg>
